ISO-10303-21;
HEADER;
/* Generated by software containing ST-Developer
 * from STEP Tools, Inc. (www.steptools.com) 
 */
/* OPTION: using custom renumber hook */

FILE_DESCRIPTION(
/* description */ ('STEP AP242 Edition 2',
'CAx-IF Rec.Pracs.---Representation and Presentation of Product Manufa
cturing Information (PMI)---4.0---2014-10-13',
'CAx-IF Rec.Pracs.---3D Tessellated Geometry---0.4---2014-09-14','2;1',
'CAx-IF Rec.Pracs.---User Defined Attributes---1.5---2016-08-15'),
/* implementation_level */ '2;1');

FILE_NAME(
/* name */ 'Battery Holder',
/* time_stamp */ '2026-09-04T00:29:03Z',
/* author */ (''),
/* organization */ (''),
/* preprocessor_version */ 'ST-DEVELOPER v20',
/* originating_system */ 'ONSHAPE BY PTC INC, 1.220',
/* authorisation */ '  ');

FILE_SCHEMA (('AP242_MANAGED_MODEL_BASED_3D_ENGINEERING_MIM_LF { 1 0 10303 442 3 1 4 }'));
ENDSEC;

DATA;
#10=SHAPE_REPRESENTATION_RELATIONSHIP('','',#439,#11);
#11=ADVANCED_BREP_SHAPE_REPRESENTATION('',(#437),#753);
#12=SPHERICAL_SURFACE('',#465,0.002);
#13=SPHERICAL_SURFACE('',#476,0.002);
#14=SPHERICAL_SURFACE('',#478,0.002);
#15=SPHERICAL_SURFACE('',#484,0.002);
#16=CYLINDRICAL_SURFACE('',#463,0.002);
#17=CYLINDRICAL_SURFACE('',#468,0.002);
#18=CYLINDRICAL_SURFACE('',#470,0.002);
#19=CYLINDRICAL_SURFACE('',#472,0.002);
#20=CYLINDRICAL_SURFACE('',#474,0.002);
#21=CYLINDRICAL_SURFACE('',#480,0.002);
#22=CYLINDRICAL_SURFACE('',#482,0.002);
#23=CYLINDRICAL_SURFACE('',#486,0.002);
#24=CYLINDRICAL_SURFACE('',#487,0.002);
#25=CYLINDRICAL_SURFACE('',#488,0.002);
#26=CYLINDRICAL_SURFACE('',#489,0.002);
#27=CYLINDRICAL_SURFACE('',#490,0.002);
#28=CIRCLE('',#442,0.002);
#29=CIRCLE('',#443,0.002);
#30=CIRCLE('',#444,0.002);
#31=CIRCLE('',#445,0.002);
#32=CIRCLE('',#451,0.002);
#33=CIRCLE('',#452,0.002);
#34=CIRCLE('',#453,0.002);
#35=CIRCLE('',#454,0.002);
#36=CIRCLE('',#456,0.002);
#37=CIRCLE('',#457,0.002);
#38=CIRCLE('',#458,0.002);
#39=CIRCLE('',#459,0.002);
#40=CIRCLE('',#464,0.002);
#41=CIRCLE('',#466,0.002);
#42=CIRCLE('',#467,0.002);
#43=CIRCLE('',#469,0.002);
#44=CIRCLE('',#471,0.002);
#45=CIRCLE('',#473,0.002);
#46=CIRCLE('',#475,0.002);
#47=CIRCLE('',#477,0.002);
#48=CIRCLE('',#479,0.002);
#49=CIRCLE('',#481,0.002);
#50=CIRCLE('',#483,0.002);
#51=CIRCLE('',#485,0.002);
#52=ORIENTED_EDGE('',*,*,#172,.F.);
#53=ORIENTED_EDGE('',*,*,#173,.T.);
#54=ORIENTED_EDGE('',*,*,#174,.F.);
#55=ORIENTED_EDGE('',*,*,#175,.T.);
#56=ORIENTED_EDGE('',*,*,#176,.F.);
#57=ORIENTED_EDGE('',*,*,#177,.T.);
#58=ORIENTED_EDGE('',*,*,#178,.T.);
#59=ORIENTED_EDGE('',*,*,#179,.T.);
#60=ORIENTED_EDGE('',*,*,#180,.F.);
#61=ORIENTED_EDGE('',*,*,#181,.T.);
#62=ORIENTED_EDGE('',*,*,#182,.T.);
#63=ORIENTED_EDGE('',*,*,#183,.T.);
#64=ORIENTED_EDGE('',*,*,#184,.T.);
#65=ORIENTED_EDGE('',*,*,#174,.T.);
#66=ORIENTED_EDGE('',*,*,#185,.T.);
#67=ORIENTED_EDGE('',*,*,#186,.F.);
#68=ORIENTED_EDGE('',*,*,#187,.T.);
#69=ORIENTED_EDGE('',*,*,#188,.T.);
#70=ORIENTED_EDGE('',*,*,#189,.T.);
#71=ORIENTED_EDGE('',*,*,#190,.T.);
#72=ORIENTED_EDGE('',*,*,#191,.F.);
#73=ORIENTED_EDGE('',*,*,#192,.T.);
#74=ORIENTED_EDGE('',*,*,#172,.T.);
#75=ORIENTED_EDGE('',*,*,#193,.T.);
#76=ORIENTED_EDGE('',*,*,#194,.T.);
#77=ORIENTED_EDGE('',*,*,#195,.F.);
#78=ORIENTED_EDGE('',*,*,#196,.T.);
#79=ORIENTED_EDGE('',*,*,#197,.T.);
#80=ORIENTED_EDGE('',*,*,#198,.T.);
#81=ORIENTED_EDGE('',*,*,#178,.F.);
#82=ORIENTED_EDGE('',*,*,#199,.T.);
#83=ORIENTED_EDGE('',*,*,#200,.T.);
#84=ORIENTED_EDGE('',*,*,#197,.F.);
#85=ORIENTED_EDGE('',*,*,#201,.T.);
#86=ORIENTED_EDGE('',*,*,#180,.T.);
#87=ORIENTED_EDGE('',*,*,#202,.T.);
#88=ORIENTED_EDGE('',*,*,#186,.T.);
#89=ORIENTED_EDGE('',*,*,#203,.T.);
#90=ORIENTED_EDGE('',*,*,#191,.T.);
#91=ORIENTED_EDGE('',*,*,#204,.T.);
#92=ORIENTED_EDGE('',*,*,#182,.F.);
#93=ORIENTED_EDGE('',*,*,#205,.T.);
#94=ORIENTED_EDGE('',*,*,#195,.T.);
#95=ORIENTED_EDGE('',*,*,#206,.T.);
#96=ORIENTED_EDGE('',*,*,#207,.T.);
#97=ORIENTED_EDGE('',*,*,#208,.T.);
#98=ORIENTED_EDGE('',*,*,#188,.F.);
#99=ORIENTED_EDGE('',*,*,#209,.T.);
#100=ORIENTED_EDGE('',*,*,#210,.T.);
#101=ORIENTED_EDGE('',*,*,#211,.T.);
#102=ORIENTED_EDGE('',*,*,#207,.F.);
#103=ORIENTED_EDGE('',*,*,#212,.T.);
#104=ORIENTED_EDGE('',*,*,#176,.T.);
#105=ORIENTED_EDGE('',*,*,#213,.T.);
#106=ORIENTED_EDGE('',*,*,#214,.T.);
#107=ORIENTED_EDGE('',*,*,#215,.T.);
#108=ORIENTED_EDGE('',*,*,#216,.T.);
#109=ORIENTED_EDGE('',*,*,#217,.T.);
#110=ORIENTED_EDGE('',*,*,#218,.T.);
#111=ORIENTED_EDGE('',*,*,#219,.T.);
#112=ORIENTED_EDGE('',*,*,#220,.F.);
#113=ORIENTED_EDGE('',*,*,#212,.F.);
#114=ORIENTED_EDGE('',*,*,#206,.F.);
#115=ORIENTED_EDGE('',*,*,#194,.F.);
#116=ORIENTED_EDGE('',*,*,#221,.F.);
#117=ORIENTED_EDGE('',*,*,#220,.T.);
#118=ORIENTED_EDGE('',*,*,#222,.F.);
#119=ORIENTED_EDGE('',*,*,#177,.F.);
#120=ORIENTED_EDGE('',*,*,#215,.F.);
#121=ORIENTED_EDGE('',*,*,#223,.F.);
#122=ORIENTED_EDGE('',*,*,#199,.F.);
#123=ORIENTED_EDGE('',*,*,#222,.T.);
#124=ORIENTED_EDGE('',*,*,#200,.F.);
#125=ORIENTED_EDGE('',*,*,#224,.F.);
#126=ORIENTED_EDGE('',*,*,#216,.F.);
#127=ORIENTED_EDGE('',*,*,#221,.T.);
#128=ORIENTED_EDGE('',*,*,#219,.F.);
#129=ORIENTED_EDGE('',*,*,#225,.F.);
#130=ORIENTED_EDGE('',*,*,#210,.F.);
#131=ORIENTED_EDGE('',*,*,#208,.F.);
#132=ORIENTED_EDGE('',*,*,#211,.F.);
#133=ORIENTED_EDGE('',*,*,#226,.F.);
#134=ORIENTED_EDGE('',*,*,#189,.F.);
#135=ORIENTED_EDGE('',*,*,#224,.T.);
#136=ORIENTED_EDGE('',*,*,#223,.T.);
#137=ORIENTED_EDGE('',*,*,#227,.F.);
#138=ORIENTED_EDGE('',*,*,#226,.T.);
#139=ORIENTED_EDGE('',*,*,#225,.T.);
#140=ORIENTED_EDGE('',*,*,#228,.F.);
#141=ORIENTED_EDGE('',*,*,#227,.T.);
#142=ORIENTED_EDGE('',*,*,#214,.F.);
#143=ORIENTED_EDGE('',*,*,#229,.F.);
#144=ORIENTED_EDGE('',*,*,#217,.F.);
#145=ORIENTED_EDGE('',*,*,#228,.T.);
#146=ORIENTED_EDGE('',*,*,#218,.F.);
#147=ORIENTED_EDGE('',*,*,#230,.F.);
#148=ORIENTED_EDGE('',*,*,#190,.F.);
#149=ORIENTED_EDGE('',*,*,#230,.T.);
#150=ORIENTED_EDGE('',*,*,#229,.T.);
#151=ORIENTED_EDGE('',*,*,#231,.F.);
#152=ORIENTED_EDGE('',*,*,#231,.T.);
#153=ORIENTED_EDGE('',*,*,#213,.F.);
#154=ORIENTED_EDGE('',*,*,#175,.F.);
#155=ORIENTED_EDGE('',*,*,#184,.F.);
#156=ORIENTED_EDGE('',*,*,#201,.F.);
#157=ORIENTED_EDGE('',*,*,#196,.F.);
#158=ORIENTED_EDGE('',*,*,#205,.F.);
#159=ORIENTED_EDGE('',*,*,#181,.F.);
#160=ORIENTED_EDGE('',*,*,#202,.F.);
#161=ORIENTED_EDGE('',*,*,#183,.F.);
#162=ORIENTED_EDGE('',*,*,#209,.F.);
#163=ORIENTED_EDGE('',*,*,#187,.F.);
#164=ORIENTED_EDGE('',*,*,#203,.F.);
#165=ORIENTED_EDGE('',*,*,#185,.F.);
#166=ORIENTED_EDGE('',*,*,#173,.F.);
#167=ORIENTED_EDGE('',*,*,#192,.F.);
#168=ORIENTED_EDGE('',*,*,#204,.F.);
#169=ORIENTED_EDGE('',*,*,#193,.F.);
#170=ORIENTED_EDGE('',*,*,#179,.F.);
#171=ORIENTED_EDGE('',*,*,#198,.F.);
#172=EDGE_CURVE('',#232,#233,#268,.T.);
#173=EDGE_CURVE('',#232,#234,#28,.F.);
#174=EDGE_CURVE('',#235,#234,#269,.T.);
#175=EDGE_CURVE('',#235,#236,#29,.T.);
#176=EDGE_CURVE('',#237,#236,#270,.T.);
#177=EDGE_CURVE('',#237,#238,#30,.T.);
#178=EDGE_CURVE('',#238,#239,#271,.T.);
#179=EDGE_CURVE('',#239,#233,#31,.F.);
#180=EDGE_CURVE('',#240,#241,#272,.T.);
#181=EDGE_CURVE('',#240,#242,#273,.T.);
#182=EDGE_CURVE('',#242,#243,#274,.T.);
#183=EDGE_CURVE('',#243,#241,#275,.F.);
#184=EDGE_CURVE('',#244,#235,#276,.T.);
#185=EDGE_CURVE('',#234,#245,#277,.F.);
#186=EDGE_CURVE('',#246,#245,#278,.T.);
#187=EDGE_CURVE('',#246,#247,#279,.T.);
#188=EDGE_CURVE('',#247,#248,#280,.T.);
#189=EDGE_CURVE('',#248,#249,#281,.F.);
#190=EDGE_CURVE('',#249,#244,#282,.T.);
#191=EDGE_CURVE('',#250,#251,#283,.T.);
#192=EDGE_CURVE('',#250,#232,#284,.T.);
#193=EDGE_CURVE('',#233,#251,#285,.F.);
#194=EDGE_CURVE('',#252,#253,#286,.T.);
#195=EDGE_CURVE('',#254,#253,#287,.T.);
#196=EDGE_CURVE('',#254,#255,#288,.F.);
#197=EDGE_CURVE('',#255,#256,#289,.T.);
#198=EDGE_CURVE('',#256,#239,#290,.T.);
#199=EDGE_CURVE('',#238,#257,#291,.F.);
#200=EDGE_CURVE('',#257,#252,#292,.F.);
#201=EDGE_CURVE('',#255,#240,#32,.T.);
#202=EDGE_CURVE('',#241,#246,#33,.T.);
#203=EDGE_CURVE('',#245,#250,#34,.T.);
#204=EDGE_CURVE('',#251,#256,#35,.T.);
#205=EDGE_CURVE('',#242,#254,#36,.F.);
#206=EDGE_CURVE('',#253,#258,#37,.T.);
#207=EDGE_CURVE('',#258,#259,#293,.T.);
#208=EDGE_CURVE('',#259,#248,#38,.T.);
#209=EDGE_CURVE('',#247,#243,#39,.F.);
#210=EDGE_CURVE('',#260,#261,#294,.T.);
#211=EDGE_CURVE('',#261,#259,#295,.T.);
#212=EDGE_CURVE('',#258,#260,#296,.F.);
#213=EDGE_CURVE('',#236,#262,#297,.F.);
#214=EDGE_CURVE('',#262,#263,#298,.F.);
#215=EDGE_CURVE('',#263,#237,#299,.T.);
#216=EDGE_CURVE('',#264,#265,#300,.T.);
#217=EDGE_CURVE('',#265,#266,#301,.T.);
#218=EDGE_CURVE('',#266,#267,#302,.F.);
#219=EDGE_CURVE('',#267,#264,#303,.F.);
#220=EDGE_CURVE('',#260,#252,#40,.T.);
#221=EDGE_CURVE('',#260,#264,#41,.F.);
#222=EDGE_CURVE('',#264,#252,#42,.F.);
#223=EDGE_CURVE('',#257,#263,#43,.T.);
#224=EDGE_CURVE('',#265,#257,#44,.T.);
#225=EDGE_CURVE('',#261,#267,#45,.T.);
#226=EDGE_CURVE('',#249,#261,#46,.T.);
#227=EDGE_CURVE('',#265,#263,#47,.F.);
#228=EDGE_CURVE('',#249,#267,#48,.F.);
#229=EDGE_CURVE('',#266,#262,#49,.T.);
#230=EDGE_CURVE('',#244,#266,#50,.T.);
#231=EDGE_CURVE('',#244,#262,#51,.F.);
#232=VERTEX_POINT('',#632);
#233=VERTEX_POINT('',#633);
#234=VERTEX_POINT('',#635);
#235=VERTEX_POINT('',#637);
#236=VERTEX_POINT('',#639);
#237=VERTEX_POINT('',#641);
#238=VERTEX_POINT('',#643);
#239=VERTEX_POINT('',#645);
#240=VERTEX_POINT('',#649);
#241=VERTEX_POINT('',#650);
#242=VERTEX_POINT('',#652);
#243=VERTEX_POINT('',#654);
#244=VERTEX_POINT('',#658);
#245=VERTEX_POINT('',#660);
#246=VERTEX_POINT('',#662);
#247=VERTEX_POINT('',#664);
#248=VERTEX_POINT('',#666);
#249=VERTEX_POINT('',#668);
#250=VERTEX_POINT('',#672);
#251=VERTEX_POINT('',#673);
#252=VERTEX_POINT('',#678);
#253=VERTEX_POINT('',#679);
#254=VERTEX_POINT('',#681);
#255=VERTEX_POINT('',#683);
#256=VERTEX_POINT('',#685);
#257=VERTEX_POINT('',#688);
#258=VERTEX_POINT('',#698);
#259=VERTEX_POINT('',#700);
#260=VERTEX_POINT('',#705);
#261=VERTEX_POINT('',#706);
#262=VERTEX_POINT('',#711);
#263=VERTEX_POINT('',#713);
#264=VERTEX_POINT('',#717);
#265=VERTEX_POINT('',#718);
#266=VERTEX_POINT('',#720);
#267=VERTEX_POINT('',#722);
#268=LINE('',#631,#304);
#269=LINE('',#636,#305);
#270=LINE('',#640,#306);
#271=LINE('',#644,#307);
#272=LINE('',#648,#308);
#273=LINE('',#651,#309);
#274=LINE('',#653,#310);
#275=LINE('',#655,#311);
#276=LINE('',#657,#312);
#277=LINE('',#659,#313);
#278=LINE('',#661,#314);
#279=LINE('',#663,#315);
#280=LINE('',#665,#316);
#281=LINE('',#667,#317);
#282=LINE('',#669,#318);
#283=LINE('',#671,#319);
#284=LINE('',#674,#320);
#285=LINE('',#675,#321);
#286=LINE('',#677,#322);
#287=LINE('',#680,#323);
#288=LINE('',#682,#324);
#289=LINE('',#684,#325);
#290=LINE('',#686,#326);
#291=LINE('',#687,#327);
#292=LINE('',#689,#328);
#293=LINE('',#699,#329);
#294=LINE('',#704,#330);
#295=LINE('',#707,#331);
#296=LINE('',#708,#332);
#297=LINE('',#710,#333);
#298=LINE('',#712,#334);
#299=LINE('',#714,#335);
#300=LINE('',#716,#336);
#301=LINE('',#719,#337);
#302=LINE('',#721,#338);
#303=LINE('',#723,#339);
#304=VECTOR('',#495,1.);
#305=VECTOR('',#498,1.);
#306=VECTOR('',#501,1.);
#307=VECTOR('',#504,1.);
#308=VECTOR('',#509,1.);
#309=VECTOR('',#510,1.);
#310=VECTOR('',#511,1.);
#311=VECTOR('',#512,1.);
#312=VECTOR('',#515,1.);
#313=VECTOR('',#516,1.);
#314=VECTOR('',#517,1.);
#315=VECTOR('',#518,1.);
#316=VECTOR('',#519,1.);
#317=VECTOR('',#520,1.);
#318=VECTOR('',#521,1.);
#319=VECTOR('',#524,1.);
#320=VECTOR('',#525,1.);
#321=VECTOR('',#526,1.);
#322=VECTOR('',#529,1.);
#323=VECTOR('',#530,1.);
#324=VECTOR('',#531,1.);
#325=VECTOR('',#532,1.);
#326=VECTOR('',#533,1.);
#327=VECTOR('',#534,1.);
#328=VECTOR('',#535,1.);
#329=VECTOR('',#552,1.);
#330=VECTOR('',#559,1.);
#331=VECTOR('',#560,1.);
#332=VECTOR('',#561,1.);
#333=VECTOR('',#564,1.);
#334=VECTOR('',#565,1.);
#335=VECTOR('',#566,1.);
#336=VECTOR('',#569,1.);
#337=VECTOR('',#570,1.);
#338=VECTOR('',#571,1.);
#339=VECTOR('',#572,1.);
#340=EDGE_LOOP('',(#52,#53,#54,#55,#56,#57,#58,#59));
#341=EDGE_LOOP('',(#60,#61,#62,#63));
#342=EDGE_LOOP('',(#64,#65,#66,#67,#68,#69,#70,#71));
#343=EDGE_LOOP('',(#72,#73,#74,#75));
#344=EDGE_LOOP('',(#76,#77,#78,#79,#80,#81,#82,#83));
#345=EDGE_LOOP('',(#84,#85,#86,#87,#88,#89,#90,#91));
#346=EDGE_LOOP('',(#92,#93,#94,#95,#96,#97,#98,#99));
#347=EDGE_LOOP('',(#100,#101,#102,#103));
#348=EDGE_LOOP('',(#104,#105,#106,#107));
#349=EDGE_LOOP('',(#108,#109,#110,#111));
#350=EDGE_LOOP('',(#112,#113,#114,#115));
#351=EDGE_LOOP('',(#116,#117,#118));
#352=EDGE_LOOP('',(#119,#120,#121,#122));
#353=EDGE_LOOP('',(#123,#124,#125,#126));
#354=EDGE_LOOP('',(#127,#128,#129,#130));
#355=EDGE_LOOP('',(#131,#132,#133,#134));
#356=EDGE_LOOP('',(#135,#136,#137));
#357=EDGE_LOOP('',(#138,#139,#140));
#358=EDGE_LOOP('',(#141,#142,#143,#144));
#359=EDGE_LOOP('',(#145,#146,#147,#148));
#360=EDGE_LOOP('',(#149,#150,#151));
#361=EDGE_LOOP('',(#152,#153,#154,#155));
#362=EDGE_LOOP('',(#156,#157,#158,#159));
#363=EDGE_LOOP('',(#160,#161,#162,#163));
#364=EDGE_LOOP('',(#164,#165,#166,#167));
#365=EDGE_LOOP('',(#168,#169,#170,#171));
#366=FACE_BOUND('',#340,.T.);
#367=FACE_BOUND('',#341,.T.);
#368=FACE_BOUND('',#342,.T.);
#369=FACE_BOUND('',#343,.T.);
#370=FACE_BOUND('',#344,.T.);
#371=FACE_BOUND('',#345,.T.);
#372=FACE_BOUND('',#346,.T.);
#373=FACE_BOUND('',#347,.T.);
#374=FACE_BOUND('',#348,.T.);
#375=FACE_BOUND('',#349,.T.);
#376=FACE_BOUND('',#350,.T.);
#377=FACE_BOUND('',#351,.T.);
#378=FACE_BOUND('',#352,.T.);
#379=FACE_BOUND('',#353,.T.);
#380=FACE_BOUND('',#354,.T.);
#381=FACE_BOUND('',#355,.T.);
#382=FACE_BOUND('',#356,.T.);
#383=FACE_BOUND('',#357,.T.);
#384=FACE_BOUND('',#358,.T.);
#385=FACE_BOUND('',#359,.T.);
#386=FACE_BOUND('',#360,.T.);
#387=FACE_BOUND('',#361,.T.);
#388=FACE_BOUND('',#362,.T.);
#389=FACE_BOUND('',#363,.T.);
#390=FACE_BOUND('',#364,.T.);
#391=FACE_BOUND('',#365,.T.);
#392=PLANE('',#441);
#393=PLANE('',#446);
#394=PLANE('',#447);
#395=PLANE('',#448);
#396=PLANE('',#449);
#397=PLANE('',#450);
#398=PLANE('',#455);
#399=PLANE('',#460);
#400=PLANE('',#461);
#401=PLANE('',#462);
#402=ADVANCED_FACE('',(#366),#392,.F.);
#403=ADVANCED_FACE('',(#367),#393,.F.);
#404=ADVANCED_FACE('',(#368),#394,.F.);
#405=ADVANCED_FACE('',(#369),#395,.F.);
#406=ADVANCED_FACE('',(#370),#396,.T.);
#407=ADVANCED_FACE('',(#371),#397,.T.);
#408=ADVANCED_FACE('',(#372),#398,.F.);
#409=ADVANCED_FACE('',(#373),#399,.T.);
#410=ADVANCED_FACE('',(#374),#400,.F.);
#411=ADVANCED_FACE('',(#375),#401,.T.);
#412=ADVANCED_FACE('',(#376),#16,.T.);
#413=ADVANCED_FACE('',(#377),#12,.T.);
#414=ADVANCED_FACE('',(#378),#17,.T.);
#415=ADVANCED_FACE('',(#379),#18,.T.);
#416=ADVANCED_FACE('',(#380),#19,.T.);
#417=ADVANCED_FACE('',(#381),#20,.T.);
#418=ADVANCED_FACE('',(#382),#13,.T.);
#419=ADVANCED_FACE('',(#383),#14,.T.);
#420=ADVANCED_FACE('',(#384),#21,.T.);
#421=ADVANCED_FACE('',(#385),#22,.T.);
#422=ADVANCED_FACE('',(#386),#15,.T.);
#423=ADVANCED_FACE('',(#387),#23,.T.);
#424=ADVANCED_FACE('',(#388),#24,.T.);
#425=ADVANCED_FACE('',(#389),#25,.T.);
#426=ADVANCED_FACE('',(#390),#26,.T.);
#427=ADVANCED_FACE('',(#391),#27,.T.);
#428=CLOSED_SHELL('',(#402,#403,#404,#405,#406,#407,#408,#409,#410,#411,
#412,#413,#414,#415,#416,#417,#418,#419,#420,#421,#422,#423,#424,#425,#426,
#427));
#429=STYLED_ITEM('',(#430),#437);
#430=PRESENTATION_STYLE_ASSIGNMENT((#431));
#431=SURFACE_STYLE_USAGE(.BOTH.,#432);
#432=SURFACE_SIDE_STYLE('',(#433));
#433=SURFACE_STYLE_FILL_AREA(#434);
#434=FILL_AREA_STYLE('',(#435));
#435=FILL_AREA_STYLE_COLOUR('',#436);
#436=DRAUGHTING_PRE_DEFINED_COLOUR('white');
#437=MANIFOLD_SOLID_BREP('Part 1',#428);
#438=SHAPE_DEFINITION_REPRESENTATION(#758,#439);
#439=SHAPE_REPRESENTATION('Part 1',(#440),#753);
#440=AXIS2_PLACEMENT_3D('',#629,#491,#492);
#441=AXIS2_PLACEMENT_3D('',#630,#493,#494);
#442=AXIS2_PLACEMENT_3D('',#634,#496,#497);
#443=AXIS2_PLACEMENT_3D('',#638,#499,#500);
#444=AXIS2_PLACEMENT_3D('',#642,#502,#503);
#445=AXIS2_PLACEMENT_3D('',#646,#505,#506);
#446=AXIS2_PLACEMENT_3D('',#647,#507,#508);
#447=AXIS2_PLACEMENT_3D('',#656,#513,#514);
#448=AXIS2_PLACEMENT_3D('',#670,#522,#523);
#449=AXIS2_PLACEMENT_3D('',#676,#527,#528);
#450=AXIS2_PLACEMENT_3D('',#690,#536,#537);
#451=AXIS2_PLACEMENT_3D('',#691,#538,#539);
#452=AXIS2_PLACEMENT_3D('',#692,#540,#541);
#453=AXIS2_PLACEMENT_3D('',#693,#542,#543);
#454=AXIS2_PLACEMENT_3D('',#694,#544,#545);
#455=AXIS2_PLACEMENT_3D('',#695,#546,#547);
#456=AXIS2_PLACEMENT_3D('',#696,#548,#549);
#457=AXIS2_PLACEMENT_3D('',#697,#550,#551);
#458=AXIS2_PLACEMENT_3D('',#701,#553,#554);
#459=AXIS2_PLACEMENT_3D('',#702,#555,#556);
#460=AXIS2_PLACEMENT_3D('',#703,#557,#558);
#461=AXIS2_PLACEMENT_3D('',#709,#562,#563);
#462=AXIS2_PLACEMENT_3D('',#715,#567,#568);
#463=AXIS2_PLACEMENT_3D('',#724,#573,#574);
#464=AXIS2_PLACEMENT_3D('',#725,#575,#576);
#465=AXIS2_PLACEMENT_3D('',#726,#577,#578);
#466=AXIS2_PLACEMENT_3D('',#727,#579,#580);
#467=AXIS2_PLACEMENT_3D('',#728,#581,#582);
#468=AXIS2_PLACEMENT_3D('',#729,#583,#584);
#469=AXIS2_PLACEMENT_3D('',#730,#585,#586);
#470=AXIS2_PLACEMENT_3D('',#731,#587,#588);
#471=AXIS2_PLACEMENT_3D('',#732,#589,#590);
#472=AXIS2_PLACEMENT_3D('',#733,#591,#592);
#473=AXIS2_PLACEMENT_3D('',#734,#593,#594);
#474=AXIS2_PLACEMENT_3D('',#735,#595,#596);
#475=AXIS2_PLACEMENT_3D('',#736,#597,#598);
#476=AXIS2_PLACEMENT_3D('',#737,#599,#600);
#477=AXIS2_PLACEMENT_3D('',#738,#601,#602);
#478=AXIS2_PLACEMENT_3D('',#739,#603,#604);
#479=AXIS2_PLACEMENT_3D('',#740,#605,#606);
#480=AXIS2_PLACEMENT_3D('',#741,#607,#608);
#481=AXIS2_PLACEMENT_3D('',#742,#609,#610);
#482=AXIS2_PLACEMENT_3D('',#743,#611,#612);
#483=AXIS2_PLACEMENT_3D('',#744,#613,#614);
#484=AXIS2_PLACEMENT_3D('',#745,#615,#616);
#485=AXIS2_PLACEMENT_3D('',#746,#617,#618);
#486=AXIS2_PLACEMENT_3D('',#747,#619,#620);
#487=AXIS2_PLACEMENT_3D('',#748,#621,#622);
#488=AXIS2_PLACEMENT_3D('',#749,#623,#624);
#489=AXIS2_PLACEMENT_3D('',#750,#625,#626);
#490=AXIS2_PLACEMENT_3D('',#751,#627,#628);
#491=DIRECTION('',(0.,0.,1.));
#492=DIRECTION('',(1.,0.,0.));
#493=DIRECTION('',(0.,0.,1.));
#494=DIRECTION('',(1.,0.,0.));
#495=DIRECTION('',(-1.,-1.38777878078145E-16,0.));
#496=DIRECTION('',(0.,0.,1.));
#497=DIRECTION('',(1.,0.,0.));
#498=DIRECTION('',(-1.15648231731787E-15,1.,0.));
#499=DIRECTION('',(0.,0.,1.));
#500=DIRECTION('',(1.,0.,0.));
#501=DIRECTION('',(1.,0.,0.));
#502=DIRECTION('',(0.,0.,1.));
#503=DIRECTION('',(1.,0.,0.));
#504=DIRECTION('',(-1.15648231731786E-15,1.,0.));
#505=DIRECTION('',(0.,0.,1.));
#506=DIRECTION('',(1.,0.,0.));
#507=DIRECTION('',(0.,1.,0.));
#508=DIRECTION('',(0.,0.,1.));
#509=DIRECTION('',(1.,0.,0.));
#510=DIRECTION('',(0.,0.,-1.));
#511=DIRECTION('',(1.,0.,0.));
#512=DIRECTION('',(0.,0.,-1.));
#513=DIRECTION('',(-1.,-1.15648231731787E-15,0.));
#514=DIRECTION('',(1.15648231731787E-15,-1.,0.));
#515=DIRECTION('',(0.,0.,1.));
#516=DIRECTION('',(0.,0.,-1.));
#517=DIRECTION('',(-1.15648231731787E-15,1.,0.));
#518=DIRECTION('',(0.,0.,-1.));
#519=DIRECTION('',(-1.15648231731787E-15,1.,0.));
#520=DIRECTION('',(0.,0.,1.));
#521=DIRECTION('',(-1.15648231731787E-15,1.,0.));
#522=DIRECTION('',(1.38777878078145E-16,-1.,0.));
#523=DIRECTION('',(1.,1.38777878078145E-16,0.));
#524=DIRECTION('',(-1.,-1.38777878078145E-16,0.));
#525=DIRECTION('',(0.,0.,-1.));
#526=DIRECTION('',(0.,0.,-1.));
#527=DIRECTION('',(-1.,-1.15648231731786E-15,0.));
#528=DIRECTION('',(1.15648231731786E-15,-1.,0.));
#529=DIRECTION('',(0.,0.,1.));
#530=DIRECTION('',(-1.15648231731786E-15,1.,0.));
#531=DIRECTION('',(0.,0.,-1.));
#532=DIRECTION('',(-1.15648231731786E-15,1.,0.));
#533=DIRECTION('',(0.,0.,-1.));
#534=DIRECTION('',(0.,0.,1.));
#535=DIRECTION('',(-1.15648231731786E-15,1.,0.));
#536=DIRECTION('',(0.,0.,1.));
#537=DIRECTION('',(1.,0.,0.));
#538=DIRECTION('',(0.,0.,1.));
#539=DIRECTION('',(1.,0.,0.));
#540=DIRECTION('',(0.,0.,1.));
#541=DIRECTION('',(1.,0.,0.));
#542=DIRECTION('',(0.,0.,1.));
#543=DIRECTION('',(1.,0.,0.));
#544=DIRECTION('',(0.,0.,1.));
#545=DIRECTION('',(1.,0.,0.));
#546=DIRECTION('',(0.,0.,1.));
#547=DIRECTION('',(1.,0.,0.));
#548=DIRECTION('',(0.,0.,1.));
#549=DIRECTION('',(1.,0.,0.));
#550=DIRECTION('',(0.,0.,1.));
#551=DIRECTION('',(1.,0.,0.));
#552=DIRECTION('',(1.,0.,0.));
#553=DIRECTION('',(0.,0.,1.));
#554=DIRECTION('',(1.,0.,0.));
#555=DIRECTION('',(0.,0.,1.));
#556=DIRECTION('',(1.,0.,0.));
#557=DIRECTION('',(0.,-1.,0.));
#558=DIRECTION('',(0.,0.,-1.));
#559=DIRECTION('',(1.,0.,0.));
#560=DIRECTION('',(0.,0.,1.));
#561=DIRECTION('',(0.,0.,1.));
#562=DIRECTION('',(0.,-1.,0.));
#563=DIRECTION('',(0.,0.,-1.));
#564=DIRECTION('',(0.,0.,1.));
#565=DIRECTION('',(1.,0.,0.));
#566=DIRECTION('',(0.,0.,1.));
#567=DIRECTION('',(0.,0.,-1.));
#568=DIRECTION('',(1.,0.,0.));
#569=DIRECTION('',(-1.15648231731786E-15,1.,0.));
#570=DIRECTION('',(1.,0.,0.));
#571=DIRECTION('',(-1.15648231731787E-15,1.,0.));
#572=DIRECTION('',(1.,0.,0.));
#573=DIRECTION('',(0.,0.,1.));
#574=DIRECTION('',(1.,0.,0.));
#575=DIRECTION('',(0.,0.,-1.));
#576=DIRECTION('',(-1.,0.,0.));
#577=DIRECTION('',(-1.,3.46944695195361E-15,0.));
#578=DIRECTION('',(-3.46944695195361E-15,-1.,0.));
#579=DIRECTION('',(-1.,0.,0.));
#580=DIRECTION('',(0.,0.,1.));
#581=DIRECTION('',(0.,-1.,3.46944695195361E-15));
#582=DIRECTION('',(0.,-3.46944695195361E-15,-1.));
#583=DIRECTION('',(0.,0.,-1.));
#584=DIRECTION('',(-1.,0.,0.));
#585=DIRECTION('',(0.,0.,-1.));
#586=DIRECTION('',(-1.,0.,0.));
#587=DIRECTION('',(-1.15648231731786E-15,1.,0.));
#588=DIRECTION('',(-1.,-1.15648231731786E-15,0.));
#589=DIRECTION('',(-1.3010426069826E-15,1.,0.));
#590=DIRECTION('',(-1.,-1.3010426069826E-15,0.));
#591=DIRECTION('',(1.,0.,0.));
#592=DIRECTION('',(0.,0.,-1.));
#593=DIRECTION('',(1.,0.,0.));
#594=DIRECTION('',(0.,0.,-1.));
#595=DIRECTION('',(0.,0.,-1.));
#596=DIRECTION('',(-1.,0.,0.));
#597=DIRECTION('',(0.,0.,-1.));
#598=DIRECTION('',(-1.,0.,0.));
#599=DIRECTION('',(-1.,-1.3010426069826E-15,0.));
#600=DIRECTION('',(1.3010426069826E-15,-1.,0.));
#601=DIRECTION('',(-1.,0.,0.));
#602=DIRECTION('',(0.,0.,1.));
#603=DIRECTION('',(0.,-1.,0.));
#604=DIRECTION('',(0.,0.,-1.));
#605=DIRECTION('',(0.,-1.,0.));
#606=DIRECTION('',(0.,0.,-1.));
#607=DIRECTION('',(-1.,0.,0.));
#608=DIRECTION('',(0.,0.,1.));
#609=DIRECTION('',(1.,0.,0.));
#610=DIRECTION('',(0.,0.,-1.));
#611=DIRECTION('',(1.15648231731787E-15,-1.,0.));
#612=DIRECTION('',(1.,1.15648231731787E-15,0.));
#613=DIRECTION('',(-1.30104260698261E-15,1.,2.16840434497101E-15));
#614=DIRECTION('',(0.,-2.16840434497101E-15,1.));
#615=DIRECTION('',(0.,0.,-1.));
#616=DIRECTION('',(-1.,0.,0.));
#617=DIRECTION('',(0.,0.,-1.));
#618=DIRECTION('',(-1.,0.,0.));
#619=DIRECTION('',(0.,0.,1.));
#620=DIRECTION('',(1.,0.,0.));
#621=DIRECTION('',(0.,0.,1.));
#622=DIRECTION('',(1.,0.,0.));
#623=DIRECTION('',(0.,0.,-1.));
#624=DIRECTION('',(-1.,0.,0.));
#625=DIRECTION('',(0.,0.,-1.));
#626=DIRECTION('',(-1.,0.,0.));
#627=DIRECTION('',(0.,0.,1.));
#628=DIRECTION('',(1.,0.,0.));
#629=CARTESIAN_POINT('',(0.,0.,0.));
#630=CARTESIAN_POINT('',(6.93889390390723E-18,-0.005,0.));
#631=CARTESIAN_POINT('',(-6.93889390390723E-18,0.058,0.));
#632=CARTESIAN_POINT('',(0.023,0.058,0.));
#633=CARTESIAN_POINT('',(-0.023,0.058,0.));
#634=CARTESIAN_POINT('',(0.023,0.056,0.));
#635=CARTESIAN_POINT('',(0.025,0.056,0.));
#636=CARTESIAN_POINT('',(0.025,0.0565,0.));
#637=CARTESIAN_POINT('',(0.025,-0.007,0.));
#638=CARTESIAN_POINT('',(0.023,-0.007,0.));
#639=CARTESIAN_POINT('',(0.023,-0.005,0.));
#640=CARTESIAN_POINT('',(8.67361737988404E-17,-0.005,0.));
#641=CARTESIAN_POINT('',(-0.023,-0.005,0.));
#642=CARTESIAN_POINT('',(-0.023,-0.007,0.));
#643=CARTESIAN_POINT('',(-0.025,-0.007,0.));
#644=CARTESIAN_POINT('',(-0.025,0.0565,0.));
#645=CARTESIAN_POINT('',(-0.025,0.056,0.));
#646=CARTESIAN_POINT('',(-0.023,0.056,0.));
#647=CARTESIAN_POINT('',(2.08166817117217E-17,-0.068,0.0023));
#648=CARTESIAN_POINT('',(2.08166817117217E-17,-0.068,0.0023));
#649=CARTESIAN_POINT('',(-0.023,-0.068,0.0023));
#650=CARTESIAN_POINT('',(0.023,-0.068,0.0023));
#651=CARTESIAN_POINT('',(-0.023,-0.068,0.));
#652=CARTESIAN_POINT('',(-0.023,-0.068,0.));
#653=CARTESIAN_POINT('',(2.08166817117217E-17,-0.068,0.));
#654=CARTESIAN_POINT('',(0.023,-0.068,0.));
#655=CARTESIAN_POINT('',(0.023,-0.068,0.0023));
#656=CARTESIAN_POINT('',(0.025,0.0565,0.0023));
#657=CARTESIAN_POINT('',(0.025,-0.007,0.0023));
#658=CARTESIAN_POINT('',(0.025,-0.007,-0.0075));
#659=CARTESIAN_POINT('',(0.025,0.056,0.0023));
#660=CARTESIAN_POINT('',(0.025,0.056,0.0023));
#661=CARTESIAN_POINT('',(0.025,0.0565,0.0023));
#662=CARTESIAN_POINT('',(0.025,-0.066,0.0023));
#663=CARTESIAN_POINT('',(0.025,-0.066,0.0023));
#664=CARTESIAN_POINT('',(0.025,-0.066,0.));
#665=CARTESIAN_POINT('',(0.025,0.0565,0.));
#666=CARTESIAN_POINT('',(0.025,-0.058,0.));
#667=CARTESIAN_POINT('',(0.025,-0.058,-0.0095));
#668=CARTESIAN_POINT('',(0.025,-0.058,-0.0075));
#669=CARTESIAN_POINT('',(0.025,-0.005,-0.0075));
#670=CARTESIAN_POINT('',(-6.93889390390723E-18,0.058,0.0023));
#671=CARTESIAN_POINT('',(-6.93889390390723E-18,0.058,0.0023));
#672=CARTESIAN_POINT('',(0.023,0.058,0.0023));
#673=CARTESIAN_POINT('',(-0.023,0.058,0.0023));
#674=CARTESIAN_POINT('',(0.023,0.058,0.0023));
#675=CARTESIAN_POINT('',(-0.023,0.058,0.0023));
#676=CARTESIAN_POINT('',(-0.025,0.0565,0.0023));
#677=CARTESIAN_POINT('',(-0.025,-0.058,0.0023));
#678=CARTESIAN_POINT('',(-0.025,-0.058,-0.0075));
#679=CARTESIAN_POINT('',(-0.025,-0.058,0.));
#680=CARTESIAN_POINT('',(-0.025,0.0565,0.));
#681=CARTESIAN_POINT('',(-0.025,-0.066,0.));
#682=CARTESIAN_POINT('',(-0.025,-0.066,0.0023));
#683=CARTESIAN_POINT('',(-0.025,-0.066,0.0023));
#684=CARTESIAN_POINT('',(-0.025,0.0565,0.0023));
#685=CARTESIAN_POINT('',(-0.025,0.056,0.0023));
#686=CARTESIAN_POINT('',(-0.025,0.056,0.));
#687=CARTESIAN_POINT('',(-0.025,-0.007,-0.0095));
#688=CARTESIAN_POINT('',(-0.025,-0.007,-0.0075));
#689=CARTESIAN_POINT('',(-0.025,0.0565,-0.0075));
#690=CARTESIAN_POINT('',(6.93889390390723E-18,-0.005,0.0023));
#691=CARTESIAN_POINT('',(-0.023,-0.066,0.0023));
#692=CARTESIAN_POINT('',(0.023,-0.066,0.0023));
#693=CARTESIAN_POINT('',(0.023,0.056,0.0023));
#694=CARTESIAN_POINT('',(-0.023,0.056,0.0023));
#695=CARTESIAN_POINT('',(6.93889390390723E-18,-0.005,0.));
#696=CARTESIAN_POINT('',(-0.023,-0.066,0.));
#697=CARTESIAN_POINT('',(-0.023,-0.058,0.));
#698=CARTESIAN_POINT('',(-0.023,-0.06,0.));
#699=CARTESIAN_POINT('',(1.28369537222284E-16,-0.06,0.));
#700=CARTESIAN_POINT('',(0.023,-0.06,0.));
#701=CARTESIAN_POINT('',(0.023,-0.058,0.));
#702=CARTESIAN_POINT('',(0.023,-0.066,0.));
#703=CARTESIAN_POINT('',(1.28369537222284E-16,-0.06,-0.0095));
#704=CARTESIAN_POINT('',(1.28369537222284E-16,-0.06,-0.0075));
#705=CARTESIAN_POINT('',(-0.023,-0.06,-0.0075));
#706=CARTESIAN_POINT('',(0.023,-0.06,-0.0075));
#707=CARTESIAN_POINT('',(0.023,-0.06,0.));
#708=CARTESIAN_POINT('',(-0.023,-0.06,-0.0095));
#709=CARTESIAN_POINT('',(8.67361737988404E-17,-0.005,-0.0095));
#710=CARTESIAN_POINT('',(0.023,-0.005,-0.0095));
#711=CARTESIAN_POINT('',(0.023,-0.005,-0.0075));
#712=CARTESIAN_POINT('',(-0.025,-0.005,-0.0075));
#713=CARTESIAN_POINT('',(-0.023,-0.005,-0.0075));
#714=CARTESIAN_POINT('',(-0.023,-0.005,0.));
#715=CARTESIAN_POINT('',(5.89805981832114E-17,-0.005,-0.0095));
#716=CARTESIAN_POINT('',(-0.023,-0.005,-0.0095));
#717=CARTESIAN_POINT('',(-0.023,-0.058,-0.0095));
#718=CARTESIAN_POINT('',(-0.023,-0.007,-0.0095));
#719=CARTESIAN_POINT('',(0.025,-0.007,-0.0095));
#720=CARTESIAN_POINT('',(0.023,-0.007,-0.0095));
#721=CARTESIAN_POINT('',(0.023,-0.06,-0.0095));
#722=CARTESIAN_POINT('',(0.023,-0.058,-0.0095));
#723=CARTESIAN_POINT('',(5.89805981832114E-17,-0.058,-0.0095));
#724=CARTESIAN_POINT('',(-0.023,-0.058,0.0023));
#725=CARTESIAN_POINT('',(-0.023,-0.058,-0.0075));
#726=CARTESIAN_POINT('',(-0.023,-0.058,-0.0075));
#727=CARTESIAN_POINT('',(-0.023,-0.058,-0.0075));
#728=CARTESIAN_POINT('',(-0.023,-0.058,-0.0075));
#729=CARTESIAN_POINT('',(-0.023,-0.007,-0.0095));
#730=CARTESIAN_POINT('',(-0.023,-0.007,-0.0075));
#731=CARTESIAN_POINT('',(-0.023,-0.005,-0.0075));
#732=CARTESIAN_POINT('',(-0.023,-0.007,-0.0075));
#733=CARTESIAN_POINT('',(1.28369537222284E-16,-0.058,-0.0075));
#734=CARTESIAN_POINT('',(0.023,-0.058,-0.0075));
#735=CARTESIAN_POINT('',(0.023,-0.058,-0.0095));
#736=CARTESIAN_POINT('',(0.023,-0.058,-0.0075));
#737=CARTESIAN_POINT('',(-0.023,-0.007,-0.0075));
#738=CARTESIAN_POINT('',(-0.023,-0.007,-0.0075));
#739=CARTESIAN_POINT('',(0.023,-0.058,-0.0075));
#740=CARTESIAN_POINT('',(0.023,-0.058,-0.0075));
#741=CARTESIAN_POINT('',(5.89805981832114E-17,-0.007,-0.0075));
#742=CARTESIAN_POINT('',(0.023,-0.007,-0.0075));
#743=CARTESIAN_POINT('',(0.023,0.0565,-0.0075));
#744=CARTESIAN_POINT('',(0.023,-0.007,-0.0075));
#745=CARTESIAN_POINT('',(0.023,-0.007,-0.0075));
#746=CARTESIAN_POINT('',(0.023,-0.007,-0.0075));
#747=CARTESIAN_POINT('',(0.023,-0.007,0.0023));
#748=CARTESIAN_POINT('',(-0.023,-0.066,0.0023));
#749=CARTESIAN_POINT('',(0.023,-0.066,0.0023));
#750=CARTESIAN_POINT('',(0.023,0.056,0.0023));
#751=CARTESIAN_POINT('',(-0.023,0.056,0.0023));
#752=MECHANICAL_DESIGN_GEOMETRIC_PRESENTATION_REPRESENTATION('',(#429),
#753);
#753=(
GEOMETRIC_REPRESENTATION_CONTEXT(3)
GLOBAL_UNCERTAINTY_ASSIGNED_CONTEXT((#754))
GLOBAL_UNIT_ASSIGNED_CONTEXT((#757,#756,#755))
REPRESENTATION_CONTEXT('Part 1','TOP_LEVEL_ASSEMBLY_PART')
);
#754=UNCERTAINTY_MEASURE_WITH_UNIT(LENGTH_MEASURE(1.E-8),#757,
'DISTANCE_ACCURACY_VALUE','Maximum Tolerance applied to model');
#755=(
NAMED_UNIT(*)
SI_UNIT($,.STERADIAN.)
SOLID_ANGLE_UNIT()
);
#756=(
NAMED_UNIT(*)
PLANE_ANGLE_UNIT()
SI_UNIT($,.RADIAN.)
);
#757=(
LENGTH_UNIT()
NAMED_UNIT(*)
SI_UNIT($,.METRE.)
);
#758=PRODUCT_DEFINITION_SHAPE('','',#759);
#759=PRODUCT_DEFINITION('','',#761,#760);
#760=PRODUCT_DEFINITION_CONTEXT('',#767,'design');
#761=PRODUCT_DEFINITION_FORMATION_WITH_SPECIFIED_SOURCE('','',#763,
 .NOT_KNOWN.);
#762=PRODUCT_RELATED_PRODUCT_CATEGORY('','',(#763));
#763=PRODUCT('Part 1','Part 1','Part 1',(#765));
#764=PRODUCT_CATEGORY('','');
#765=PRODUCT_CONTEXT('',#767,'mechanical');
#766=APPLICATION_PROTOCOL_DEFINITION('international standard',
'ap242_managed_model_based_3d_engineering',2020,#767);
#767=APPLICATION_CONTEXT('managed model based 3d engineering');
ENDSEC;
END-ISO-10303-21;
