ISO-10303-21;
HEADER;
/* Generated by software containing ST-Developer
 * from STEP Tools, Inc. (www.steptools.com) 
 */
/* OPTION: using custom renumber hook */

FILE_DESCRIPTION(
/* description */ ('STEP AP242 Edition 2',
'CAx-IF Rec.Pracs.---Representation and Presentation of Product Manufa
cturing Information (PMI)---4.0---2014-10-13',
'CAx-IF Rec.Pracs.---3D Tessellated Geometry---0.4---2014-09-14','2;1',
'CAx-IF Rec.Pracs.---User Defined Attributes---1.5---2016-08-15'),
/* implementation_level */ '2;1');

FILE_NAME(
/* name */ 'Level 2',
/* time_stamp */ '2026-09-02T14:42:36Z',
/* author */ (''),
/* organization */ (''),
/* preprocessor_version */ 'ST-DEVELOPER v20',
/* originating_system */ 'ONSHAPE BY PTC INC, 1.220',
/* authorisation */ '  ');

FILE_SCHEMA (('AP242_MANAGED_MODEL_BASED_3D_ENGINEERING_MIM_LF { 1 0 10303 442 3 1 4 }'));
ENDSEC;

DATA;
#10=SHAPE_REPRESENTATION_RELATIONSHIP('','',#748,#11);
#11=ADVANCED_BREP_SHAPE_REPRESENTATION('',(#746),#1300);
#12=TOROIDAL_SURFACE('',#840,0.005,0.002);
#13=TOROIDAL_SURFACE('',#841,0.005,0.002);
#14=TOROIDAL_SURFACE('',#842,0.0029,0.002);
#15=TOROIDAL_SURFACE('',#843,0.0029,0.002);
#16=TOROIDAL_SURFACE('',#844,0.0029,0.002);
#17=TOROIDAL_SURFACE('',#845,0.0029,0.002);
#18=TOROIDAL_SURFACE('',#846,0.005,0.002);
#19=TOROIDAL_SURFACE('',#847,0.005,0.002);
#20=CYLINDRICAL_SURFACE('',#778,0.003);
#21=CYLINDRICAL_SURFACE('',#783,0.003);
#22=CYLINDRICAL_SURFACE('',#788,0.003);
#23=CYLINDRICAL_SURFACE('',#793,0.0009);
#24=CYLINDRICAL_SURFACE('',#796,0.0009);
#25=CYLINDRICAL_SURFACE('',#799,0.0009);
#26=CYLINDRICAL_SURFACE('',#802,0.0009);
#27=CYLINDRICAL_SURFACE('',#805,0.003);
#28=CYLINDRICAL_SURFACE('',#810,0.00165);
#29=CYLINDRICAL_SURFACE('',#813,0.00165);
#30=CYLINDRICAL_SURFACE('',#816,0.00165);
#31=CYLINDRICAL_SURFACE('',#819,0.00165);
#32=CYLINDRICAL_SURFACE('',#833,0.002);
#33=CYLINDRICAL_SURFACE('',#834,0.002);
#34=CYLINDRICAL_SURFACE('',#835,0.002);
#35=CYLINDRICAL_SURFACE('',#836,0.002);
#36=CYLINDRICAL_SURFACE('',#837,0.002);
#37=CYLINDRICAL_SURFACE('',#838,0.002);
#38=CYLINDRICAL_SURFACE('',#839,0.002);
#39=CYLINDRICAL_SURFACE('',#848,0.004);
#40=LINE('',#1110,#77);
#41=LINE('',#1115,#78);
#42=LINE('',#1119,#79);
#43=LINE('',#1123,#80);
#44=LINE('',#1127,#81);
#45=LINE('',#1129,#82);
#46=LINE('',#1131,#83);
#47=LINE('',#1133,#84);
#48=LINE('',#1137,#85);
#49=LINE('',#1139,#86);
#50=LINE('',#1141,#87);
#51=LINE('',#1143,#88);
#52=LINE('',#1145,#89);
#53=LINE('',#1147,#90);
#54=LINE('',#1149,#91);
#55=LINE('',#1151,#92);
#56=LINE('',#1153,#93);
#57=LINE('',#1155,#94);
#58=LINE('',#1157,#95);
#59=LINE('',#1159,#96);
#60=LINE('',#1161,#97);
#61=LINE('',#1163,#98);
#62=LINE('',#1165,#99);
#63=LINE('',#1168,#100);
#64=LINE('',#1170,#101);
#65=LINE('',#1172,#102);
#66=LINE('',#1174,#103);
#67=LINE('',#1176,#104);
#68=LINE('',#1178,#105);
#69=LINE('',#1180,#106);
#70=LINE('',#1182,#107);
#71=LINE('',#1261,#108);
#72=LINE('',#1264,#109);
#73=LINE('',#1265,#110);
#74=LINE('',#1267,#111);
#75=LINE('',#1269,#112);
#76=LINE('',#1271,#113);
#77=VECTOR('',#871,1.);
#78=VECTOR('',#874,1.);
#79=VECTOR('',#877,1.);
#80=VECTOR('',#880,1.);
#81=VECTOR('',#883,1.);
#82=VECTOR('',#884,1.);
#83=VECTOR('',#885,1.);
#84=VECTOR('',#886,1.);
#85=VECTOR('',#891,1.);
#86=VECTOR('',#892,1.);
#87=VECTOR('',#893,1.);
#88=VECTOR('',#896,1.);
#89=VECTOR('',#897,1.);
#90=VECTOR('',#898,1.);
#91=VECTOR('',#901,1.);
#92=VECTOR('',#902,1.);
#93=VECTOR('',#903,1.);
#94=VECTOR('',#906,1.);
#95=VECTOR('',#907,1.);
#96=VECTOR('',#908,1.);
#97=VECTOR('',#909,1.);
#98=VECTOR('',#910,1.);
#99=VECTOR('',#913,1.);
#100=VECTOR('',#914,1.);
#101=VECTOR('',#915,1.);
#102=VECTOR('',#916,1.);
#103=VECTOR('',#919,1.);
#104=VECTOR('',#920,1.);
#105=VECTOR('',#921,1.);
#106=VECTOR('',#922,1.);
#107=VECTOR('',#923,1.);
#108=VECTOR('',#1030,1.);
#109=VECTOR('',#1031,1.);
#110=VECTOR('',#1032,1.);
#111=VECTOR('',#1035,1.);
#112=VECTOR('',#1036,1.);
#113=VECTOR('',#1039,1.);
#114=ORIENTED_EDGE('',*,*,#284,.T.);
#115=ORIENTED_EDGE('',*,*,#285,.T.);
#116=ORIENTED_EDGE('',*,*,#286,.T.);
#117=ORIENTED_EDGE('',*,*,#287,.T.);
#118=ORIENTED_EDGE('',*,*,#288,.T.);
#119=ORIENTED_EDGE('',*,*,#289,.T.);
#120=ORIENTED_EDGE('',*,*,#290,.T.);
#121=ORIENTED_EDGE('',*,*,#291,.T.);
#122=ORIENTED_EDGE('',*,*,#292,.T.);
#123=ORIENTED_EDGE('',*,*,#293,.T.);
#124=ORIENTED_EDGE('',*,*,#294,.T.);
#125=ORIENTED_EDGE('',*,*,#295,.T.);
#126=ORIENTED_EDGE('',*,*,#296,.T.);
#127=ORIENTED_EDGE('',*,*,#297,.T.);
#128=ORIENTED_EDGE('',*,*,#298,.T.);
#129=ORIENTED_EDGE('',*,*,#299,.T.);
#130=ORIENTED_EDGE('',*,*,#300,.F.);
#131=ORIENTED_EDGE('',*,*,#301,.T.);
#132=ORIENTED_EDGE('',*,*,#302,.F.);
#133=ORIENTED_EDGE('',*,*,#303,.T.);
#134=ORIENTED_EDGE('',*,*,#304,.T.);
#135=ORIENTED_EDGE('',*,*,#294,.F.);
#136=ORIENTED_EDGE('',*,*,#305,.T.);
#137=ORIENTED_EDGE('',*,*,#306,.T.);
#138=ORIENTED_EDGE('',*,*,#307,.T.);
#139=ORIENTED_EDGE('',*,*,#296,.F.);
#140=ORIENTED_EDGE('',*,*,#308,.T.);
#141=ORIENTED_EDGE('',*,*,#309,.T.);
#142=ORIENTED_EDGE('',*,*,#310,.T.);
#143=ORIENTED_EDGE('',*,*,#298,.F.);
#144=ORIENTED_EDGE('',*,*,#311,.T.);
#145=ORIENTED_EDGE('',*,*,#312,.T.);
#146=ORIENTED_EDGE('',*,*,#313,.T.);
#147=ORIENTED_EDGE('',*,*,#300,.T.);
#148=ORIENTED_EDGE('',*,*,#314,.T.);
#149=ORIENTED_EDGE('',*,*,#315,.F.);
#150=ORIENTED_EDGE('',*,*,#316,.T.);
#151=ORIENTED_EDGE('',*,*,#317,.T.);
#152=ORIENTED_EDGE('',*,*,#318,.T.);
#153=ORIENTED_EDGE('',*,*,#319,.F.);
#154=ORIENTED_EDGE('',*,*,#320,.T.);
#155=ORIENTED_EDGE('',*,*,#321,.T.);
#156=ORIENTED_EDGE('',*,*,#322,.T.);
#157=ORIENTED_EDGE('',*,*,#292,.F.);
#158=ORIENTED_EDGE('',*,*,#323,.T.);
#159=ORIENTED_EDGE('',*,*,#324,.F.);
#160=ORIENTED_EDGE('',*,*,#325,.T.);
#161=ORIENTED_EDGE('',*,*,#326,.T.);
#162=ORIENTED_EDGE('',*,*,#327,.T.);
#163=ORIENTED_EDGE('',*,*,#328,.F.);
#164=ORIENTED_EDGE('',*,*,#306,.F.);
#165=ORIENTED_EDGE('',*,*,#329,.T.);
#166=ORIENTED_EDGE('',*,*,#326,.F.);
#167=ORIENTED_EDGE('',*,*,#330,.T.);
#168=ORIENTED_EDGE('',*,*,#319,.T.);
#169=ORIENTED_EDGE('',*,*,#331,.T.);
#170=ORIENTED_EDGE('',*,*,#315,.T.);
#171=ORIENTED_EDGE('',*,*,#332,.T.);
#172=ORIENTED_EDGE('',*,*,#312,.F.);
#173=ORIENTED_EDGE('',*,*,#333,.T.);
#174=ORIENTED_EDGE('',*,*,#309,.F.);
#175=ORIENTED_EDGE('',*,*,#334,.T.);
#176=ORIENTED_EDGE('',*,*,#335,.T.);
#177=ORIENTED_EDGE('',*,*,#336,.F.);
#178=ORIENTED_EDGE('',*,*,#337,.F.);
#179=ORIENTED_EDGE('',*,*,#336,.T.);
#180=ORIENTED_EDGE('',*,*,#338,.T.);
#181=ORIENTED_EDGE('',*,*,#339,.F.);
#182=ORIENTED_EDGE('',*,*,#340,.F.);
#183=ORIENTED_EDGE('',*,*,#339,.T.);
#184=ORIENTED_EDGE('',*,*,#341,.T.);
#185=ORIENTED_EDGE('',*,*,#342,.F.);
#186=ORIENTED_EDGE('',*,*,#343,.F.);
#187=ORIENTED_EDGE('',*,*,#342,.T.);
#188=ORIENTED_EDGE('',*,*,#344,.T.);
#189=ORIENTED_EDGE('',*,*,#345,.F.);
#190=ORIENTED_EDGE('',*,*,#346,.T.);
#191=ORIENTED_EDGE('',*,*,#347,.F.);
#192=ORIENTED_EDGE('',*,*,#348,.T.);
#193=ORIENTED_EDGE('',*,*,#349,.F.);
#194=ORIENTED_EDGE('',*,*,#350,.T.);
#195=ORIENTED_EDGE('',*,*,#351,.F.);
#196=ORIENTED_EDGE('',*,*,#352,.T.);
#197=ORIENTED_EDGE('',*,*,#353,.F.);
#198=ORIENTED_EDGE('',*,*,#354,.F.);
#199=ORIENTED_EDGE('',*,*,#353,.T.);
#200=ORIENTED_EDGE('',*,*,#355,.F.);
#201=ORIENTED_EDGE('',*,*,#354,.T.);
#202=ORIENTED_EDGE('',*,*,#355,.T.);
#203=ORIENTED_EDGE('',*,*,#356,.F.);
#204=ORIENTED_EDGE('',*,*,#343,.T.);
#205=ORIENTED_EDGE('',*,*,#356,.T.);
#206=ORIENTED_EDGE('',*,*,#357,.F.);
#207=ORIENTED_EDGE('',*,*,#340,.T.);
#208=ORIENTED_EDGE('',*,*,#357,.T.);
#209=ORIENTED_EDGE('',*,*,#358,.F.);
#210=ORIENTED_EDGE('',*,*,#337,.T.);
#211=ORIENTED_EDGE('',*,*,#358,.T.);
#212=ORIENTED_EDGE('',*,*,#359,.T.);
#213=ORIENTED_EDGE('',*,*,#360,.T.);
#214=ORIENTED_EDGE('',*,*,#303,.F.);
#215=ORIENTED_EDGE('',*,*,#361,.F.);
#216=ORIENTED_EDGE('',*,*,#302,.T.);
#217=ORIENTED_EDGE('',*,*,#362,.F.);
#218=ORIENTED_EDGE('',*,*,#363,.F.);
#219=ORIENTED_EDGE('',*,*,#361,.T.);
#220=ORIENTED_EDGE('',*,*,#301,.F.);
#221=ORIENTED_EDGE('',*,*,#318,.F.);
#222=ORIENTED_EDGE('',*,*,#364,.T.);
#223=ORIENTED_EDGE('',*,*,#362,.T.);
#224=ORIENTED_EDGE('',*,*,#324,.T.);
#225=ORIENTED_EDGE('',*,*,#365,.T.);
#226=ORIENTED_EDGE('',*,*,#359,.F.);
#227=ORIENTED_EDGE('',*,*,#363,.T.);
#228=ORIENTED_EDGE('',*,*,#364,.F.);
#229=ORIENTED_EDGE('',*,*,#317,.F.);
#230=ORIENTED_EDGE('',*,*,#366,.T.);
#231=ORIENTED_EDGE('',*,*,#321,.F.);
#232=ORIENTED_EDGE('',*,*,#367,.T.);
#233=ORIENTED_EDGE('',*,*,#351,.T.);
#234=ORIENTED_EDGE('',*,*,#349,.T.);
#235=ORIENTED_EDGE('',*,*,#347,.T.);
#236=ORIENTED_EDGE('',*,*,#345,.T.);
#237=ORIENTED_EDGE('',*,*,#365,.F.);
#238=ORIENTED_EDGE('',*,*,#323,.F.);
#239=ORIENTED_EDGE('',*,*,#304,.F.);
#240=ORIENTED_EDGE('',*,*,#360,.F.);
#241=ORIENTED_EDGE('',*,*,#293,.F.);
#242=ORIENTED_EDGE('',*,*,#327,.F.);
#243=ORIENTED_EDGE('',*,*,#329,.F.);
#244=ORIENTED_EDGE('',*,*,#305,.F.);
#245=ORIENTED_EDGE('',*,*,#295,.F.);
#246=ORIENTED_EDGE('',*,*,#307,.F.);
#247=ORIENTED_EDGE('',*,*,#334,.F.);
#248=ORIENTED_EDGE('',*,*,#308,.F.);
#249=ORIENTED_EDGE('',*,*,#297,.F.);
#250=ORIENTED_EDGE('',*,*,#310,.F.);
#251=ORIENTED_EDGE('',*,*,#333,.F.);
#252=ORIENTED_EDGE('',*,*,#311,.F.);
#253=ORIENTED_EDGE('',*,*,#299,.F.);
#254=ORIENTED_EDGE('',*,*,#313,.F.);
#255=ORIENTED_EDGE('',*,*,#332,.F.);
#256=ORIENTED_EDGE('',*,*,#314,.F.);
#257=ORIENTED_EDGE('',*,*,#367,.F.);
#258=ORIENTED_EDGE('',*,*,#320,.F.);
#259=ORIENTED_EDGE('',*,*,#330,.F.);
#260=ORIENTED_EDGE('',*,*,#325,.F.);
#261=ORIENTED_EDGE('',*,*,#366,.F.);
#262=ORIENTED_EDGE('',*,*,#316,.F.);
#263=ORIENTED_EDGE('',*,*,#331,.F.);
#264=ORIENTED_EDGE('',*,*,#322,.F.);
#265=ORIENTED_EDGE('',*,*,#284,.F.);
#266=ORIENTED_EDGE('',*,*,#338,.F.);
#267=ORIENTED_EDGE('',*,*,#285,.F.);
#268=ORIENTED_EDGE('',*,*,#341,.F.);
#269=ORIENTED_EDGE('',*,*,#286,.F.);
#270=ORIENTED_EDGE('',*,*,#350,.F.);
#271=ORIENTED_EDGE('',*,*,#287,.F.);
#272=ORIENTED_EDGE('',*,*,#348,.F.);
#273=ORIENTED_EDGE('',*,*,#288,.F.);
#274=ORIENTED_EDGE('',*,*,#346,.F.);
#275=ORIENTED_EDGE('',*,*,#289,.F.);
#276=ORIENTED_EDGE('',*,*,#344,.F.);
#277=ORIENTED_EDGE('',*,*,#290,.F.);
#278=ORIENTED_EDGE('',*,*,#352,.F.);
#279=ORIENTED_EDGE('',*,*,#291,.F.);
#280=ORIENTED_EDGE('',*,*,#335,.F.);
#281=ORIENTED_EDGE('',*,*,#368,.F.);
#282=ORIENTED_EDGE('',*,*,#328,.T.);
#283=ORIENTED_EDGE('',*,*,#368,.T.);
#284=EDGE_CURVE('',#369,#369,#437,.F.);
#285=EDGE_CURVE('',#370,#370,#438,.F.);
#286=EDGE_CURVE('',#371,#371,#439,.F.);
#287=EDGE_CURVE('',#372,#372,#440,.F.);
#288=EDGE_CURVE('',#373,#373,#441,.F.);
#289=EDGE_CURVE('',#374,#374,#442,.F.);
#290=EDGE_CURVE('',#375,#375,#443,.F.);
#291=EDGE_CURVE('',#376,#376,#444,.F.);
#292=EDGE_CURVE('',#377,#378,#40,.T.);
#293=EDGE_CURVE('',#378,#379,#445,.T.);
#294=EDGE_CURVE('',#379,#380,#41,.T.);
#295=EDGE_CURVE('',#380,#381,#446,.T.);
#296=EDGE_CURVE('',#381,#382,#42,.T.);
#297=EDGE_CURVE('',#382,#383,#447,.T.);
#298=EDGE_CURVE('',#383,#384,#43,.T.);
#299=EDGE_CURVE('',#384,#385,#448,.T.);
#300=EDGE_CURVE('',#386,#385,#44,.T.);
#301=EDGE_CURVE('',#386,#387,#45,.T.);
#302=EDGE_CURVE('',#388,#387,#46,.T.);
#303=EDGE_CURVE('',#388,#389,#47,.T.);
#304=EDGE_CURVE('',#389,#377,#449,.F.);
#305=EDGE_CURVE('',#379,#390,#48,.T.);
#306=EDGE_CURVE('',#390,#391,#49,.T.);
#307=EDGE_CURVE('',#391,#380,#50,.F.);
#308=EDGE_CURVE('',#381,#392,#51,.T.);
#309=EDGE_CURVE('',#392,#393,#52,.T.);
#310=EDGE_CURVE('',#393,#382,#53,.F.);
#311=EDGE_CURVE('',#383,#394,#54,.T.);
#312=EDGE_CURVE('',#394,#395,#55,.T.);
#313=EDGE_CURVE('',#395,#384,#56,.F.);
#314=EDGE_CURVE('',#385,#396,#57,.T.);
#315=EDGE_CURVE('',#397,#396,#58,.T.);
#316=EDGE_CURVE('',#397,#398,#59,.F.);
#317=EDGE_CURVE('',#398,#399,#60,.T.);
#318=EDGE_CURVE('',#399,#386,#61,.T.);
#319=EDGE_CURVE('',#400,#401,#62,.T.);
#320=EDGE_CURVE('',#400,#402,#63,.F.);
#321=EDGE_CURVE('',#402,#403,#64,.T.);
#322=EDGE_CURVE('',#403,#401,#65,.T.);
#323=EDGE_CURVE('',#377,#404,#66,.F.);
#324=EDGE_CURVE('',#405,#404,#67,.T.);
#325=EDGE_CURVE('',#405,#406,#68,.T.);
#326=EDGE_CURVE('',#406,#407,#69,.T.);
#327=EDGE_CURVE('',#407,#378,#70,.F.);
#328=EDGE_CURVE('',#408,#408,#450,.T.);
#329=EDGE_CURVE('',#390,#407,#451,.F.);
#330=EDGE_CURVE('',#406,#400,#452,.T.);
#331=EDGE_CURVE('',#401,#397,#453,.F.);
#332=EDGE_CURVE('',#396,#395,#454,.F.);
#333=EDGE_CURVE('',#394,#393,#455,.F.);
#334=EDGE_CURVE('',#392,#391,#456,.F.);
#335=EDGE_CURVE('',#409,#409,#457,.T.);
#336=EDGE_CURVE('',#410,#410,#458,.T.);
#337=EDGE_CURVE('',#411,#411,#459,.T.);
#338=EDGE_CURVE('',#412,#412,#460,.T.);
#339=EDGE_CURVE('',#413,#413,#461,.T.);
#340=EDGE_CURVE('',#414,#414,#462,.T.);
#341=EDGE_CURVE('',#415,#415,#463,.T.);
#342=EDGE_CURVE('',#416,#416,#464,.T.);
#343=EDGE_CURVE('',#417,#417,#465,.T.);
#344=EDGE_CURVE('',#418,#418,#466,.T.);
#345=EDGE_CURVE('',#419,#419,#467,.T.);
#346=EDGE_CURVE('',#420,#420,#468,.T.);
#347=EDGE_CURVE('',#421,#421,#469,.T.);
#348=EDGE_CURVE('',#422,#422,#470,.T.);
#349=EDGE_CURVE('',#423,#423,#471,.T.);
#350=EDGE_CURVE('',#424,#424,#472,.T.);
#351=EDGE_CURVE('',#425,#425,#473,.T.);
#352=EDGE_CURVE('',#426,#426,#474,.T.);
#353=EDGE_CURVE('',#427,#427,#475,.T.);
#354=EDGE_CURVE('',#428,#428,#476,.T.);
#355=EDGE_CURVE('',#429,#429,#477,.T.);
#356=EDGE_CURVE('',#430,#430,#478,.T.);
#357=EDGE_CURVE('',#431,#431,#479,.T.);
#358=EDGE_CURVE('',#432,#432,#480,.T.);
#359=EDGE_CURVE('',#433,#434,#71,.T.);
#360=EDGE_CURVE('',#434,#389,#72,.T.);
#361=EDGE_CURVE('',#433,#388,#73,.T.);
#362=EDGE_CURVE('',#435,#387,#74,.T.);
#363=EDGE_CURVE('',#433,#435,#75,.T.);
#364=EDGE_CURVE('',#399,#435,#76,.T.);
#365=EDGE_CURVE('',#404,#434,#481,.T.);
#366=EDGE_CURVE('',#398,#403,#482,.T.);
#367=EDGE_CURVE('',#402,#405,#483,.F.);
#368=EDGE_CURVE('',#436,#436,#484,.T.);
#369=VERTEX_POINT('',#1095);
#370=VERTEX_POINT('',#1097);
#371=VERTEX_POINT('',#1099);
#372=VERTEX_POINT('',#1101);
#373=VERTEX_POINT('',#1103);
#374=VERTEX_POINT('',#1105);
#375=VERTEX_POINT('',#1107);
#376=VERTEX_POINT('',#1109);
#377=VERTEX_POINT('',#1111);
#378=VERTEX_POINT('',#1112);
#379=VERTEX_POINT('',#1114);
#380=VERTEX_POINT('',#1116);
#381=VERTEX_POINT('',#1118);
#382=VERTEX_POINT('',#1120);
#383=VERTEX_POINT('',#1122);
#384=VERTEX_POINT('',#1124);
#385=VERTEX_POINT('',#1126);
#386=VERTEX_POINT('',#1128);
#387=VERTEX_POINT('',#1130);
#388=VERTEX_POINT('',#1132);
#389=VERTEX_POINT('',#1134);
#390=VERTEX_POINT('',#1138);
#391=VERTEX_POINT('',#1140);
#392=VERTEX_POINT('',#1144);
#393=VERTEX_POINT('',#1146);
#394=VERTEX_POINT('',#1150);
#395=VERTEX_POINT('',#1152);
#396=VERTEX_POINT('',#1156);
#397=VERTEX_POINT('',#1158);
#398=VERTEX_POINT('',#1160);
#399=VERTEX_POINT('',#1162);
#400=VERTEX_POINT('',#1166);
#401=VERTEX_POINT('',#1167);
#402=VERTEX_POINT('',#1169);
#403=VERTEX_POINT('',#1171);
#404=VERTEX_POINT('',#1175);
#405=VERTEX_POINT('',#1177);
#406=VERTEX_POINT('',#1179);
#407=VERTEX_POINT('',#1181);
#408=VERTEX_POINT('',#1185);
#409=VERTEX_POINT('',#1194);
#410=VERTEX_POINT('',#1196);
#411=VERTEX_POINT('',#1199);
#412=VERTEX_POINT('',#1202);
#413=VERTEX_POINT('',#1204);
#414=VERTEX_POINT('',#1207);
#415=VERTEX_POINT('',#1210);
#416=VERTEX_POINT('',#1212);
#417=VERTEX_POINT('',#1215);
#418=VERTEX_POINT('',#1218);
#419=VERTEX_POINT('',#1220);
#420=VERTEX_POINT('',#1223);
#421=VERTEX_POINT('',#1225);
#422=VERTEX_POINT('',#1228);
#423=VERTEX_POINT('',#1230);
#424=VERTEX_POINT('',#1233);
#425=VERTEX_POINT('',#1235);
#426=VERTEX_POINT('',#1238);
#427=VERTEX_POINT('',#1240);
#428=VERTEX_POINT('',#1243);
#429=VERTEX_POINT('',#1246);
#430=VERTEX_POINT('',#1250);
#431=VERTEX_POINT('',#1254);
#432=VERTEX_POINT('',#1258);
#433=VERTEX_POINT('',#1262);
#434=VERTEX_POINT('',#1263);
#435=VERTEX_POINT('',#1268);
#436=VERTEX_POINT('',#1297);
#437=CIRCLE('',#751,0.005);
#438=CIRCLE('',#752,0.005);
#439=CIRCLE('',#753,0.0029);
#440=CIRCLE('',#754,0.0029);
#441=CIRCLE('',#755,0.0029);
#442=CIRCLE('',#756,0.0029);
#443=CIRCLE('',#757,0.005);
#444=CIRCLE('',#758,0.005);
#445=CIRCLE('',#759,0.002);
#446=CIRCLE('',#760,0.002);
#447=CIRCLE('',#761,0.002);
#448=CIRCLE('',#762,0.002);
#449=CIRCLE('',#763,0.002);
#450=CIRCLE('',#771,0.004);
#451=CIRCLE('',#772,0.002);
#452=CIRCLE('',#773,0.002);
#453=CIRCLE('',#774,0.002);
#454=CIRCLE('',#775,0.002);
#455=CIRCLE('',#776,0.002);
#456=CIRCLE('',#777,0.002);
#457=CIRCLE('',#779,0.003);
#458=CIRCLE('',#780,0.003);
#459=CIRCLE('',#782,0.00165);
#460=CIRCLE('',#784,0.003);
#461=CIRCLE('',#785,0.003);
#462=CIRCLE('',#787,0.00165);
#463=CIRCLE('',#789,0.003);
#464=CIRCLE('',#790,0.003);
#465=CIRCLE('',#792,0.00165);
#466=CIRCLE('',#794,0.0009);
#467=CIRCLE('',#795,0.0009);
#468=CIRCLE('',#797,0.0009);
#469=CIRCLE('',#798,0.0009);
#470=CIRCLE('',#800,0.0009);
#471=CIRCLE('',#801,0.0009);
#472=CIRCLE('',#803,0.0009);
#473=CIRCLE('',#804,0.0009);
#474=CIRCLE('',#806,0.003);
#475=CIRCLE('',#807,0.003);
#476=CIRCLE('',#809,0.00165);
#477=CIRCLE('',#811,0.00165);
#478=CIRCLE('',#814,0.00165);
#479=CIRCLE('',#817,0.00165);
#480=CIRCLE('',#820,0.00165);
#481=CIRCLE('',#826,0.002);
#482=CIRCLE('',#827,0.002);
#483=CIRCLE('',#828,0.002);
#484=CIRCLE('',#849,0.004);
#485=EDGE_LOOP('',(#114));
#486=EDGE_LOOP('',(#115));
#487=EDGE_LOOP('',(#116));
#488=EDGE_LOOP('',(#117));
#489=EDGE_LOOP('',(#118));
#490=EDGE_LOOP('',(#119));
#491=EDGE_LOOP('',(#120));
#492=EDGE_LOOP('',(#121));
#493=EDGE_LOOP('',(#122,#123,#124,#125,#126,#127,#128,#129,#130,#131,#132,
#133,#134));
#494=EDGE_LOOP('',(#135,#136,#137,#138));
#495=EDGE_LOOP('',(#139,#140,#141,#142));
#496=EDGE_LOOP('',(#143,#144,#145,#146));
#497=EDGE_LOOP('',(#147,#148,#149,#150,#151,#152));
#498=EDGE_LOOP('',(#153,#154,#155,#156));
#499=EDGE_LOOP('',(#157,#158,#159,#160,#161,#162));
#500=EDGE_LOOP('',(#163));
#501=EDGE_LOOP('',(#164,#165,#166,#167,#168,#169,#170,#171,#172,#173,#174,
#175));
#502=EDGE_LOOP('',(#176));
#503=EDGE_LOOP('',(#177));
#504=EDGE_LOOP('',(#178));
#505=EDGE_LOOP('',(#179));
#506=EDGE_LOOP('',(#180));
#507=EDGE_LOOP('',(#181));
#508=EDGE_LOOP('',(#182));
#509=EDGE_LOOP('',(#183));
#510=EDGE_LOOP('',(#184));
#511=EDGE_LOOP('',(#185));
#512=EDGE_LOOP('',(#186));
#513=EDGE_LOOP('',(#187));
#514=EDGE_LOOP('',(#188));
#515=EDGE_LOOP('',(#189));
#516=EDGE_LOOP('',(#190));
#517=EDGE_LOOP('',(#191));
#518=EDGE_LOOP('',(#192));
#519=EDGE_LOOP('',(#193));
#520=EDGE_LOOP('',(#194));
#521=EDGE_LOOP('',(#195));
#522=EDGE_LOOP('',(#196));
#523=EDGE_LOOP('',(#197));
#524=EDGE_LOOP('',(#198));
#525=EDGE_LOOP('',(#199));
#526=EDGE_LOOP('',(#200));
#527=EDGE_LOOP('',(#201));
#528=EDGE_LOOP('',(#202));
#529=EDGE_LOOP('',(#203));
#530=EDGE_LOOP('',(#204));
#531=EDGE_LOOP('',(#205));
#532=EDGE_LOOP('',(#206));
#533=EDGE_LOOP('',(#207));
#534=EDGE_LOOP('',(#208));
#535=EDGE_LOOP('',(#209));
#536=EDGE_LOOP('',(#210));
#537=EDGE_LOOP('',(#211));
#538=EDGE_LOOP('',(#212,#213,#214,#215));
#539=EDGE_LOOP('',(#216,#217,#218,#219));
#540=EDGE_LOOP('',(#220,#221,#222,#223));
#541=EDGE_LOOP('',(#224,#225,#226,#227,#228,#229,#230,#231,#232));
#542=EDGE_LOOP('',(#233));
#543=EDGE_LOOP('',(#234));
#544=EDGE_LOOP('',(#235));
#545=EDGE_LOOP('',(#236));
#546=EDGE_LOOP('',(#237,#238,#239,#240));
#547=EDGE_LOOP('',(#241,#242,#243,#244));
#548=EDGE_LOOP('',(#245,#246,#247,#248));
#549=EDGE_LOOP('',(#249,#250,#251,#252));
#550=EDGE_LOOP('',(#253,#254,#255,#256));
#551=EDGE_LOOP('',(#257,#258,#259,#260));
#552=EDGE_LOOP('',(#261,#262,#263,#264));
#553=EDGE_LOOP('',(#265));
#554=EDGE_LOOP('',(#266));
#555=EDGE_LOOP('',(#267));
#556=EDGE_LOOP('',(#268));
#557=EDGE_LOOP('',(#269));
#558=EDGE_LOOP('',(#270));
#559=EDGE_LOOP('',(#271));
#560=EDGE_LOOP('',(#272));
#561=EDGE_LOOP('',(#273));
#562=EDGE_LOOP('',(#274));
#563=EDGE_LOOP('',(#275));
#564=EDGE_LOOP('',(#276));
#565=EDGE_LOOP('',(#277));
#566=EDGE_LOOP('',(#278));
#567=EDGE_LOOP('',(#279));
#568=EDGE_LOOP('',(#280));
#569=EDGE_LOOP('',(#281));
#570=EDGE_LOOP('',(#282));
#571=EDGE_LOOP('',(#283));
#572=FACE_BOUND('',#485,.T.);
#573=FACE_BOUND('',#486,.T.);
#574=FACE_BOUND('',#487,.T.);
#575=FACE_BOUND('',#488,.T.);
#576=FACE_BOUND('',#489,.T.);
#577=FACE_BOUND('',#490,.T.);
#578=FACE_BOUND('',#491,.T.);
#579=FACE_BOUND('',#492,.T.);
#580=FACE_BOUND('',#493,.T.);
#581=FACE_BOUND('',#494,.T.);
#582=FACE_BOUND('',#495,.T.);
#583=FACE_BOUND('',#496,.T.);
#584=FACE_BOUND('',#497,.T.);
#585=FACE_BOUND('',#498,.T.);
#586=FACE_BOUND('',#499,.T.);
#587=FACE_BOUND('',#500,.T.);
#588=FACE_BOUND('',#501,.T.);
#589=FACE_BOUND('',#502,.T.);
#590=FACE_BOUND('',#503,.T.);
#591=FACE_BOUND('',#504,.T.);
#592=FACE_BOUND('',#505,.T.);
#593=FACE_BOUND('',#506,.T.);
#594=FACE_BOUND('',#507,.T.);
#595=FACE_BOUND('',#508,.T.);
#596=FACE_BOUND('',#509,.T.);
#597=FACE_BOUND('',#510,.T.);
#598=FACE_BOUND('',#511,.T.);
#599=FACE_BOUND('',#512,.T.);
#600=FACE_BOUND('',#513,.T.);
#601=FACE_BOUND('',#514,.T.);
#602=FACE_BOUND('',#515,.T.);
#603=FACE_BOUND('',#516,.T.);
#604=FACE_BOUND('',#517,.T.);
#605=FACE_BOUND('',#518,.T.);
#606=FACE_BOUND('',#519,.T.);
#607=FACE_BOUND('',#520,.T.);
#608=FACE_BOUND('',#521,.T.);
#609=FACE_BOUND('',#522,.T.);
#610=FACE_BOUND('',#523,.T.);
#611=FACE_BOUND('',#524,.T.);
#612=FACE_BOUND('',#525,.T.);
#613=FACE_BOUND('',#526,.T.);
#614=FACE_BOUND('',#527,.T.);
#615=FACE_BOUND('',#528,.T.);
#616=FACE_BOUND('',#529,.T.);
#617=FACE_BOUND('',#530,.T.);
#618=FACE_BOUND('',#531,.T.);
#619=FACE_BOUND('',#532,.T.);
#620=FACE_BOUND('',#533,.T.);
#621=FACE_BOUND('',#534,.T.);
#622=FACE_BOUND('',#535,.T.);
#623=FACE_BOUND('',#536,.T.);
#624=FACE_BOUND('',#537,.T.);
#625=FACE_BOUND('',#538,.T.);
#626=FACE_BOUND('',#539,.T.);
#627=FACE_BOUND('',#540,.T.);
#628=FACE_BOUND('',#541,.T.);
#629=FACE_BOUND('',#542,.T.);
#630=FACE_BOUND('',#543,.T.);
#631=FACE_BOUND('',#544,.T.);
#632=FACE_BOUND('',#545,.T.);
#633=FACE_BOUND('',#546,.T.);
#634=FACE_BOUND('',#547,.T.);
#635=FACE_BOUND('',#548,.T.);
#636=FACE_BOUND('',#549,.T.);
#637=FACE_BOUND('',#550,.T.);
#638=FACE_BOUND('',#551,.T.);
#639=FACE_BOUND('',#552,.T.);
#640=FACE_BOUND('',#553,.T.);
#641=FACE_BOUND('',#554,.T.);
#642=FACE_BOUND('',#555,.T.);
#643=FACE_BOUND('',#556,.T.);
#644=FACE_BOUND('',#557,.T.);
#645=FACE_BOUND('',#558,.T.);
#646=FACE_BOUND('',#559,.T.);
#647=FACE_BOUND('',#560,.T.);
#648=FACE_BOUND('',#561,.T.);
#649=FACE_BOUND('',#562,.T.);
#650=FACE_BOUND('',#563,.T.);
#651=FACE_BOUND('',#564,.T.);
#652=FACE_BOUND('',#565,.T.);
#653=FACE_BOUND('',#566,.T.);
#654=FACE_BOUND('',#567,.T.);
#655=FACE_BOUND('',#568,.T.);
#656=FACE_BOUND('',#569,.T.);
#657=FACE_BOUND('',#570,.T.);
#658=FACE_BOUND('',#571,.T.);
#659=PLANE('',#750);
#660=PLANE('',#764);
#661=PLANE('',#765);
#662=PLANE('',#766);
#663=PLANE('',#767);
#664=PLANE('',#768);
#665=PLANE('',#769);
#666=PLANE('',#770);
#667=PLANE('',#781);
#668=PLANE('',#786);
#669=PLANE('',#791);
#670=PLANE('',#808);
#671=PLANE('',#812);
#672=PLANE('',#815);
#673=PLANE('',#818);
#674=PLANE('',#821);
#675=PLANE('',#822);
#676=PLANE('',#823);
#677=PLANE('',#824);
#678=PLANE('',#825);
#679=PLANE('',#829);
#680=PLANE('',#830);
#681=PLANE('',#831);
#682=PLANE('',#832);
#683=PLANE('',#850);
#684=ADVANCED_FACE('',(#572,#573,#574,#575,#576,#577,#578,#579,#580),#659,
 .T.);
#685=ADVANCED_FACE('',(#581),#660,.F.);
#686=ADVANCED_FACE('',(#582),#661,.F.);
#687=ADVANCED_FACE('',(#583),#662,.F.);
#688=ADVANCED_FACE('',(#584),#663,.T.);
#689=ADVANCED_FACE('',(#585),#664,.T.);
#690=ADVANCED_FACE('',(#586),#665,.F.);
#691=ADVANCED_FACE('',(#587,#588),#666,.F.);
#692=ADVANCED_FACE('',(#589,#590),#20,.T.);
#693=ADVANCED_FACE('',(#591,#592),#667,.T.);
#694=ADVANCED_FACE('',(#593,#594),#21,.T.);
#695=ADVANCED_FACE('',(#595,#596),#668,.T.);
#696=ADVANCED_FACE('',(#597,#598),#22,.T.);
#697=ADVANCED_FACE('',(#599,#600),#669,.T.);
#698=ADVANCED_FACE('',(#601,#602),#23,.T.);
#699=ADVANCED_FACE('',(#603,#604),#24,.T.);
#700=ADVANCED_FACE('',(#605,#606),#25,.T.);
#701=ADVANCED_FACE('',(#607,#608),#26,.T.);
#702=ADVANCED_FACE('',(#609,#610),#27,.T.);
#703=ADVANCED_FACE('',(#611,#612),#670,.T.);
#704=ADVANCED_FACE('',(#613,#614),#28,.F.);
#705=ADVANCED_FACE('',(#615),#671,.T.);
#706=ADVANCED_FACE('',(#616,#617),#29,.F.);
#707=ADVANCED_FACE('',(#618),#672,.T.);
#708=ADVANCED_FACE('',(#619,#620),#30,.F.);
#709=ADVANCED_FACE('',(#621),#673,.T.);
#710=ADVANCED_FACE('',(#622,#623),#31,.F.);
#711=ADVANCED_FACE('',(#624),#674,.T.);
#712=ADVANCED_FACE('',(#625),#675,.T.);
#713=ADVANCED_FACE('',(#626),#676,.F.);
#714=ADVANCED_FACE('',(#627),#677,.T.);
#715=ADVANCED_FACE('',(#628),#678,.T.);
#716=ADVANCED_FACE('',(#629),#679,.T.);
#717=ADVANCED_FACE('',(#630),#680,.T.);
#718=ADVANCED_FACE('',(#631),#681,.T.);
#719=ADVANCED_FACE('',(#632),#682,.T.);
#720=ADVANCED_FACE('',(#633),#32,.T.);
#721=ADVANCED_FACE('',(#634),#33,.T.);
#722=ADVANCED_FACE('',(#635),#34,.T.);
#723=ADVANCED_FACE('',(#636),#35,.T.);
#724=ADVANCED_FACE('',(#637),#36,.T.);
#725=ADVANCED_FACE('',(#638),#37,.F.);
#726=ADVANCED_FACE('',(#639),#38,.T.);
#727=ADVANCED_FACE('',(#640,#641),#12,.F.);
#728=ADVANCED_FACE('',(#642,#643),#13,.F.);
#729=ADVANCED_FACE('',(#644,#645),#14,.F.);
#730=ADVANCED_FACE('',(#646,#647),#15,.F.);
#731=ADVANCED_FACE('',(#648,#649),#16,.F.);
#732=ADVANCED_FACE('',(#650,#651),#17,.F.);
#733=ADVANCED_FACE('',(#652,#653),#18,.F.);
#734=ADVANCED_FACE('',(#654,#655),#19,.F.);
#735=ADVANCED_FACE('',(#656,#657),#39,.F.);
#736=ADVANCED_FACE('',(#658),#683,.T.);
#737=CLOSED_SHELL('',(#684,#685,#686,#687,#688,#689,#690,#691,#692,#693,
#694,#695,#696,#697,#698,#699,#700,#701,#702,#703,#704,#705,#706,#707,#708,
#709,#710,#711,#712,#713,#714,#715,#716,#717,#718,#719,#720,#721,#722,#723,
#724,#725,#726,#727,#728,#729,#730,#731,#732,#733,#734,#735,#736));
#738=STYLED_ITEM('',(#739),#746);
#739=PRESENTATION_STYLE_ASSIGNMENT((#740));
#740=SURFACE_STYLE_USAGE(.BOTH.,#741);
#741=SURFACE_SIDE_STYLE('',(#742));
#742=SURFACE_STYLE_FILL_AREA(#743);
#743=FILL_AREA_STYLE('',(#744));
#744=FILL_AREA_STYLE_COLOUR('',#745);
#745=DRAUGHTING_PRE_DEFINED_COLOUR('white');
#746=MANIFOLD_SOLID_BREP('Part 1',#737);
#747=SHAPE_DEFINITION_REPRESENTATION(#1305,#748);
#748=SHAPE_REPRESENTATION('Part 1',(#749),#1300);
#749=AXIS2_PLACEMENT_3D('',#1092,#851,#852);
#750=AXIS2_PLACEMENT_3D('',#1093,#853,#854);
#751=AXIS2_PLACEMENT_3D('',#1094,#855,#856);
#752=AXIS2_PLACEMENT_3D('',#1096,#857,#858);
#753=AXIS2_PLACEMENT_3D('',#1098,#859,#860);
#754=AXIS2_PLACEMENT_3D('',#1100,#861,#862);
#755=AXIS2_PLACEMENT_3D('',#1102,#863,#864);
#756=AXIS2_PLACEMENT_3D('',#1104,#865,#866);
#757=AXIS2_PLACEMENT_3D('',#1106,#867,#868);
#758=AXIS2_PLACEMENT_3D('',#1108,#869,#870);
#759=AXIS2_PLACEMENT_3D('',#1113,#872,#873);
#760=AXIS2_PLACEMENT_3D('',#1117,#875,#876);
#761=AXIS2_PLACEMENT_3D('',#1121,#878,#879);
#762=AXIS2_PLACEMENT_3D('',#1125,#881,#882);
#763=AXIS2_PLACEMENT_3D('',#1135,#887,#888);
#764=AXIS2_PLACEMENT_3D('',#1136,#889,#890);
#765=AXIS2_PLACEMENT_3D('',#1142,#894,#895);
#766=AXIS2_PLACEMENT_3D('',#1148,#899,#900);
#767=AXIS2_PLACEMENT_3D('',#1154,#904,#905);
#768=AXIS2_PLACEMENT_3D('',#1164,#911,#912);
#769=AXIS2_PLACEMENT_3D('',#1173,#917,#918);
#770=AXIS2_PLACEMENT_3D('',#1183,#924,#925);
#771=AXIS2_PLACEMENT_3D('',#1184,#926,#927);
#772=AXIS2_PLACEMENT_3D('',#1186,#928,#929);
#773=AXIS2_PLACEMENT_3D('',#1187,#930,#931);
#774=AXIS2_PLACEMENT_3D('',#1188,#932,#933);
#775=AXIS2_PLACEMENT_3D('',#1189,#934,#935);
#776=AXIS2_PLACEMENT_3D('',#1190,#936,#937);
#777=AXIS2_PLACEMENT_3D('',#1191,#938,#939);
#778=AXIS2_PLACEMENT_3D('',#1192,#940,#941);
#779=AXIS2_PLACEMENT_3D('',#1193,#942,#943);
#780=AXIS2_PLACEMENT_3D('',#1195,#944,#945);
#781=AXIS2_PLACEMENT_3D('',#1197,#946,#947);
#782=AXIS2_PLACEMENT_3D('',#1198,#948,#949);
#783=AXIS2_PLACEMENT_3D('',#1200,#950,#951);
#784=AXIS2_PLACEMENT_3D('',#1201,#952,#953);
#785=AXIS2_PLACEMENT_3D('',#1203,#954,#955);
#786=AXIS2_PLACEMENT_3D('',#1205,#956,#957);
#787=AXIS2_PLACEMENT_3D('',#1206,#958,#959);
#788=AXIS2_PLACEMENT_3D('',#1208,#960,#961);
#789=AXIS2_PLACEMENT_3D('',#1209,#962,#963);
#790=AXIS2_PLACEMENT_3D('',#1211,#964,#965);
#791=AXIS2_PLACEMENT_3D('',#1213,#966,#967);
#792=AXIS2_PLACEMENT_3D('',#1214,#968,#969);
#793=AXIS2_PLACEMENT_3D('',#1216,#970,#971);
#794=AXIS2_PLACEMENT_3D('',#1217,#972,#973);
#795=AXIS2_PLACEMENT_3D('',#1219,#974,#975);
#796=AXIS2_PLACEMENT_3D('',#1221,#976,#977);
#797=AXIS2_PLACEMENT_3D('',#1222,#978,#979);
#798=AXIS2_PLACEMENT_3D('',#1224,#980,#981);
#799=AXIS2_PLACEMENT_3D('',#1226,#982,#983);
#800=AXIS2_PLACEMENT_3D('',#1227,#984,#985);
#801=AXIS2_PLACEMENT_3D('',#1229,#986,#987);
#802=AXIS2_PLACEMENT_3D('',#1231,#988,#989);
#803=AXIS2_PLACEMENT_3D('',#1232,#990,#991);
#804=AXIS2_PLACEMENT_3D('',#1234,#992,#993);
#805=AXIS2_PLACEMENT_3D('',#1236,#994,#995);
#806=AXIS2_PLACEMENT_3D('',#1237,#996,#997);
#807=AXIS2_PLACEMENT_3D('',#1239,#998,#999);
#808=AXIS2_PLACEMENT_3D('',#1241,#1000,#1001);
#809=AXIS2_PLACEMENT_3D('',#1242,#1002,#1003);
#810=AXIS2_PLACEMENT_3D('',#1244,#1004,#1005);
#811=AXIS2_PLACEMENT_3D('',#1245,#1006,#1007);
#812=AXIS2_PLACEMENT_3D('',#1247,#1008,#1009);
#813=AXIS2_PLACEMENT_3D('',#1248,#1010,#1011);
#814=AXIS2_PLACEMENT_3D('',#1249,#1012,#1013);
#815=AXIS2_PLACEMENT_3D('',#1251,#1014,#1015);
#816=AXIS2_PLACEMENT_3D('',#1252,#1016,#1017);
#817=AXIS2_PLACEMENT_3D('',#1253,#1018,#1019);
#818=AXIS2_PLACEMENT_3D('',#1255,#1020,#1021);
#819=AXIS2_PLACEMENT_3D('',#1256,#1022,#1023);
#820=AXIS2_PLACEMENT_3D('',#1257,#1024,#1025);
#821=AXIS2_PLACEMENT_3D('',#1259,#1026,#1027);
#822=AXIS2_PLACEMENT_3D('',#1260,#1028,#1029);
#823=AXIS2_PLACEMENT_3D('',#1266,#1033,#1034);
#824=AXIS2_PLACEMENT_3D('',#1270,#1037,#1038);
#825=AXIS2_PLACEMENT_3D('',#1272,#1040,#1041);
#826=AXIS2_PLACEMENT_3D('',#1273,#1042,#1043);
#827=AXIS2_PLACEMENT_3D('',#1274,#1044,#1045);
#828=AXIS2_PLACEMENT_3D('',#1275,#1046,#1047);
#829=AXIS2_PLACEMENT_3D('',#1276,#1048,#1049);
#830=AXIS2_PLACEMENT_3D('',#1277,#1050,#1051);
#831=AXIS2_PLACEMENT_3D('',#1278,#1052,#1053);
#832=AXIS2_PLACEMENT_3D('',#1279,#1054,#1055);
#833=AXIS2_PLACEMENT_3D('',#1280,#1056,#1057);
#834=AXIS2_PLACEMENT_3D('',#1281,#1058,#1059);
#835=AXIS2_PLACEMENT_3D('',#1282,#1060,#1061);
#836=AXIS2_PLACEMENT_3D('',#1283,#1062,#1063);
#837=AXIS2_PLACEMENT_3D('',#1284,#1064,#1065);
#838=AXIS2_PLACEMENT_3D('',#1285,#1066,#1067);
#839=AXIS2_PLACEMENT_3D('',#1286,#1068,#1069);
#840=AXIS2_PLACEMENT_3D('',#1287,#1070,#1071);
#841=AXIS2_PLACEMENT_3D('',#1288,#1072,#1073);
#842=AXIS2_PLACEMENT_3D('',#1289,#1074,#1075);
#843=AXIS2_PLACEMENT_3D('',#1290,#1076,#1077);
#844=AXIS2_PLACEMENT_3D('',#1291,#1078,#1079);
#845=AXIS2_PLACEMENT_3D('',#1292,#1080,#1081);
#846=AXIS2_PLACEMENT_3D('',#1293,#1082,#1083);
#847=AXIS2_PLACEMENT_3D('',#1294,#1084,#1085);
#848=AXIS2_PLACEMENT_3D('',#1295,#1086,#1087);
#849=AXIS2_PLACEMENT_3D('',#1296,#1088,#1089);
#850=AXIS2_PLACEMENT_3D('',#1298,#1090,#1091);
#851=DIRECTION('',(0.,0.,1.));
#852=DIRECTION('',(1.,0.,0.));
#853=DIRECTION('',(0.,0.,1.));
#854=DIRECTION('',(1.,0.,0.));
#855=DIRECTION('',(0.,0.,1.));
#856=DIRECTION('',(1.,0.,0.));
#857=DIRECTION('',(0.,0.,1.));
#858=DIRECTION('',(1.,0.,0.));
#859=DIRECTION('',(0.,0.,1.));
#860=DIRECTION('',(1.,0.,0.));
#861=DIRECTION('',(0.,0.,1.));
#862=DIRECTION('',(1.,0.,0.));
#863=DIRECTION('',(0.,0.,1.));
#864=DIRECTION('',(1.,0.,0.));
#865=DIRECTION('',(0.,0.,1.));
#866=DIRECTION('',(1.,0.,0.));
#867=DIRECTION('',(0.,0.,1.));
#868=DIRECTION('',(1.,0.,0.));
#869=DIRECTION('',(0.,0.,1.));
#870=DIRECTION('',(1.,0.,0.));
#871=DIRECTION('',(0.,-1.,0.));
#872=DIRECTION('',(0.,0.,1.));
#873=DIRECTION('',(1.,0.,0.));
#874=DIRECTION('',(1.,0.,0.));
#875=DIRECTION('',(0.,0.,1.));
#876=DIRECTION('',(1.,0.,0.));
#877=DIRECTION('',(0.,1.,0.));
#878=DIRECTION('',(0.,0.,1.));
#879=DIRECTION('',(1.,0.,0.));
#880=DIRECTION('',(-1.,-9.25185853854297E-17,0.));
#881=DIRECTION('',(0.,0.,1.));
#882=DIRECTION('',(1.,0.,0.));
#883=DIRECTION('',(0.,1.,0.));
#884=DIRECTION('',(1.,0.,0.));
#885=DIRECTION('',(0.,1.,0.));
#886=DIRECTION('',(-1.,0.,0.));
#887=DIRECTION('',(0.,0.,1.));
#888=DIRECTION('',(1.,0.,0.));
#889=DIRECTION('',(0.,1.,0.));
#890=DIRECTION('',(0.,0.,1.));
#891=DIRECTION('',(0.,0.,-1.));
#892=DIRECTION('',(1.,0.,0.));
#893=DIRECTION('',(0.,0.,-1.));
#894=DIRECTION('',(-1.,0.,0.));
#895=DIRECTION('',(0.,0.,1.));
#896=DIRECTION('',(0.,0.,-1.));
#897=DIRECTION('',(0.,1.,0.));
#898=DIRECTION('',(0.,0.,-1.));
#899=DIRECTION('',(9.25185853854297E-17,-1.,0.));
#900=DIRECTION('',(1.,9.25185853854297E-17,0.));
#901=DIRECTION('',(0.,0.,-1.));
#902=DIRECTION('',(-1.,-9.25185853854297E-17,0.));
#903=DIRECTION('',(0.,0.,-1.));
#904=DIRECTION('',(-1.,0.,0.));
#905=DIRECTION('',(0.,0.,1.));
#906=DIRECTION('',(0.,0.,-1.));
#907=DIRECTION('',(0.,1.,0.));
#908=DIRECTION('',(0.,0.,-1.));
#909=DIRECTION('',(0.,1.,0.));
#910=DIRECTION('',(0.,0.,-1.));
#911=DIRECTION('',(0.,-1.,0.));
#912=DIRECTION('',(0.,0.,-1.));
#913=DIRECTION('',(-1.,0.,0.));
#914=DIRECTION('',(0.,0.,-1.));
#915=DIRECTION('',(-1.,0.,0.));
#916=DIRECTION('',(0.,0.,-1.));
#917=DIRECTION('',(1.,0.,0.));
#918=DIRECTION('',(0.,0.,-1.));
#919=DIRECTION('',(0.,0.,-1.));
#920=DIRECTION('',(0.,-1.,0.));
#921=DIRECTION('',(0.,0.,-1.));
#922=DIRECTION('',(0.,-1.,0.));
#923=DIRECTION('',(0.,0.,-1.));
#924=DIRECTION('',(0.,0.,1.));
#925=DIRECTION('',(1.,0.,0.));
#926=DIRECTION('',(0.,0.,-1.));
#927=DIRECTION('',(-1.,0.,0.));
#928=DIRECTION('',(0.,0.,1.));
#929=DIRECTION('',(1.,0.,0.));
#930=DIRECTION('',(0.,0.,1.));
#931=DIRECTION('',(1.,0.,0.));
#932=DIRECTION('',(0.,0.,1.));
#933=DIRECTION('',(1.,0.,0.));
#934=DIRECTION('',(0.,0.,1.));
#935=DIRECTION('',(1.,0.,0.));
#936=DIRECTION('',(0.,0.,1.));
#937=DIRECTION('',(1.,0.,0.));
#938=DIRECTION('',(0.,0.,1.));
#939=DIRECTION('',(1.,0.,0.));
#940=DIRECTION('',(0.,0.,-1.));
#941=DIRECTION('',(-1.,0.,0.));
#942=DIRECTION('',(0.,0.,1.));
#943=DIRECTION('',(1.,0.,0.));
#944=DIRECTION('',(0.,0.,1.));
#945=DIRECTION('',(1.,0.,0.));
#946=DIRECTION('',(0.,0.,1.));
#947=DIRECTION('',(1.,0.,0.));
#948=DIRECTION('',(0.,0.,1.));
#949=DIRECTION('',(1.,0.,0.));
#950=DIRECTION('',(0.,0.,-1.));
#951=DIRECTION('',(-1.,0.,0.));
#952=DIRECTION('',(0.,0.,1.));
#953=DIRECTION('',(1.,0.,0.));
#954=DIRECTION('',(0.,0.,1.));
#955=DIRECTION('',(1.,0.,0.));
#956=DIRECTION('',(0.,0.,1.));
#957=DIRECTION('',(1.,0.,0.));
#958=DIRECTION('',(0.,0.,1.));
#959=DIRECTION('',(1.,0.,0.));
#960=DIRECTION('',(0.,0.,-1.));
#961=DIRECTION('',(-1.,0.,0.));
#962=DIRECTION('',(0.,0.,1.));
#963=DIRECTION('',(1.,0.,0.));
#964=DIRECTION('',(0.,0.,1.));
#965=DIRECTION('',(1.,0.,0.));
#966=DIRECTION('',(0.,0.,1.));
#967=DIRECTION('',(1.,0.,0.));
#968=DIRECTION('',(0.,0.,1.));
#969=DIRECTION('',(1.,0.,0.));
#970=DIRECTION('',(0.,0.,-1.));
#971=DIRECTION('',(-1.,0.,0.));
#972=DIRECTION('',(0.,0.,1.));
#973=DIRECTION('',(1.,0.,0.));
#974=DIRECTION('',(0.,0.,1.));
#975=DIRECTION('',(1.,0.,0.));
#976=DIRECTION('',(0.,0.,-1.));
#977=DIRECTION('',(-1.,0.,0.));
#978=DIRECTION('',(0.,0.,1.));
#979=DIRECTION('',(1.,0.,0.));
#980=DIRECTION('',(0.,0.,1.));
#981=DIRECTION('',(1.,0.,0.));
#982=DIRECTION('',(0.,0.,-1.));
#983=DIRECTION('',(-1.,0.,0.));
#984=DIRECTION('',(0.,0.,1.));
#985=DIRECTION('',(1.,0.,0.));
#986=DIRECTION('',(0.,0.,1.));
#987=DIRECTION('',(1.,0.,0.));
#988=DIRECTION('',(0.,0.,-1.));
#989=DIRECTION('',(-1.,0.,0.));
#990=DIRECTION('',(0.,0.,1.));
#991=DIRECTION('',(1.,0.,0.));
#992=DIRECTION('',(0.,0.,1.));
#993=DIRECTION('',(1.,0.,0.));
#994=DIRECTION('',(0.,0.,-1.));
#995=DIRECTION('',(-1.,0.,0.));
#996=DIRECTION('',(0.,0.,1.));
#997=DIRECTION('',(1.,0.,0.));
#998=DIRECTION('',(0.,0.,1.));
#999=DIRECTION('',(1.,0.,0.));
#1000=DIRECTION('',(0.,0.,1.));
#1001=DIRECTION('',(1.,0.,0.));
#1002=DIRECTION('',(0.,0.,1.));
#1003=DIRECTION('',(1.,0.,0.));
#1004=DIRECTION('',(0.,0.,1.));
#1005=DIRECTION('',(1.,0.,0.));
#1006=DIRECTION('',(0.,0.,1.));
#1007=DIRECTION('',(1.,0.,0.));
#1008=DIRECTION('',(0.,0.,1.));
#1009=DIRECTION('',(1.,0.,0.));
#1010=DIRECTION('',(0.,0.,1.));
#1011=DIRECTION('',(1.,0.,0.));
#1012=DIRECTION('',(0.,0.,1.));
#1013=DIRECTION('',(1.,0.,0.));
#1014=DIRECTION('',(0.,0.,1.));
#1015=DIRECTION('',(1.,0.,0.));
#1016=DIRECTION('',(0.,0.,1.));
#1017=DIRECTION('',(1.,0.,0.));
#1018=DIRECTION('',(0.,0.,1.));
#1019=DIRECTION('',(1.,0.,0.));
#1020=DIRECTION('',(0.,0.,1.));
#1021=DIRECTION('',(1.,0.,0.));
#1022=DIRECTION('',(0.,0.,1.));
#1023=DIRECTION('',(1.,0.,0.));
#1024=DIRECTION('',(0.,0.,1.));
#1025=DIRECTION('',(1.,0.,0.));
#1026=DIRECTION('',(0.,0.,1.));
#1027=DIRECTION('',(1.,0.,0.));
#1028=DIRECTION('',(0.,-1.,0.));
#1029=DIRECTION('',(0.,0.,-1.));
#1030=DIRECTION('',(-1.,0.,0.));
#1031=DIRECTION('',(0.,0.,-1.));
#1032=DIRECTION('',(0.,0.,-1.));
#1033=DIRECTION('',(-1.,0.,0.));
#1034=DIRECTION('',(0.,0.,1.));
#1035=DIRECTION('',(0.,0.,-1.));
#1036=DIRECTION('',(0.,1.,0.));
#1037=DIRECTION('',(0.,1.,0.));
#1038=DIRECTION('',(0.,0.,1.));
#1039=DIRECTION('',(1.,0.,0.));
#1040=DIRECTION('',(0.,0.,1.));
#1041=DIRECTION('',(1.,0.,0.));
#1042=DIRECTION('',(0.,0.,1.));
#1043=DIRECTION('',(1.,0.,0.));
#1044=DIRECTION('',(0.,0.,1.));
#1045=DIRECTION('',(1.,0.,0.));
#1046=DIRECTION('',(0.,0.,1.));
#1047=DIRECTION('',(1.,0.,0.));
#1048=DIRECTION('',(0.,0.,1.));
#1049=DIRECTION('',(1.,0.,0.));
#1050=DIRECTION('',(0.,0.,1.));
#1051=DIRECTION('',(1.,0.,0.));
#1052=DIRECTION('',(0.,0.,1.));
#1053=DIRECTION('',(1.,0.,0.));
#1054=DIRECTION('',(0.,0.,1.));
#1055=DIRECTION('',(1.,0.,0.));
#1056=DIRECTION('',(0.,0.,1.));
#1057=DIRECTION('',(1.,0.,0.));
#1058=DIRECTION('',(0.,0.,-1.));
#1059=DIRECTION('',(-1.,0.,0.));
#1060=DIRECTION('',(0.,0.,-1.));
#1061=DIRECTION('',(-1.,0.,0.));
#1062=DIRECTION('',(0.,0.,-1.));
#1063=DIRECTION('',(-1.,0.,0.));
#1064=DIRECTION('',(0.,0.,1.));
#1065=DIRECTION('',(1.,0.,0.));
#1066=DIRECTION('',(0.,0.,-1.));
#1067=DIRECTION('',(-1.,0.,0.));
#1068=DIRECTION('',(0.,0.,-1.));
#1069=DIRECTION('',(-1.,0.,0.));
#1070=DIRECTION('',(0.,0.,1.));
#1071=DIRECTION('',(1.,0.,0.));
#1072=DIRECTION('',(0.,0.,1.));
#1073=DIRECTION('',(1.,0.,0.));
#1074=DIRECTION('',(0.,0.,1.));
#1075=DIRECTION('',(1.,0.,0.));
#1076=DIRECTION('',(0.,0.,1.));
#1077=DIRECTION('',(1.,0.,0.));
#1078=DIRECTION('',(0.,0.,1.));
#1079=DIRECTION('',(1.,0.,0.));
#1080=DIRECTION('',(0.,0.,1.));
#1081=DIRECTION('',(1.,0.,0.));
#1082=DIRECTION('',(0.,0.,1.));
#1083=DIRECTION('',(1.,0.,0.));
#1084=DIRECTION('',(0.,0.,1.));
#1085=DIRECTION('',(1.,0.,0.));
#1086=DIRECTION('',(0.,0.,-1.));
#1087=DIRECTION('',(-1.,0.,0.));
#1088=DIRECTION('',(0.,0.,-1.));
#1089=DIRECTION('',(-1.,0.,0.));
#1090=DIRECTION('',(0.,0.,-1.));
#1091=DIRECTION('',(1.,0.,0.));
#1092=CARTESIAN_POINT('',(0.,0.,0.));
#1093=CARTESIAN_POINT('',(-0.005,-0.005,0.0023));
#1094=CARTESIAN_POINT('',(0.0475,0.0285,0.0023));
#1095=CARTESIAN_POINT('',(0.0525,0.0285,0.0023));
#1096=CARTESIAN_POINT('',(0.0125,0.0475,0.0023));
#1097=CARTESIAN_POINT('',(0.0175,0.0475,0.0023));
#1098=CARTESIAN_POINT('',(0.012,0.008,0.0023));
#1099=CARTESIAN_POINT('',(0.0149,0.008,0.0023));
#1100=CARTESIAN_POINT('',(0.058,0.008,0.0023));
#1101=CARTESIAN_POINT('',(0.0609,0.008,0.0023));
#1102=CARTESIAN_POINT('',(0.058,-0.058,0.0023));
#1103=CARTESIAN_POINT('',(0.0609,-0.058,0.0023));
#1104=CARTESIAN_POINT('',(0.012,-0.058,0.0023));
#1105=CARTESIAN_POINT('',(0.0149,-0.058,0.0023));
#1106=CARTESIAN_POINT('',(-0.0575,0.03715,0.0023));
#1107=CARTESIAN_POINT('',(-0.0525,0.03715,0.0023));
#1108=CARTESIAN_POINT('',(-0.0225,0.01815,0.0023));
#1109=CARTESIAN_POINT('',(-0.0175,0.01815,0.0023));
#1110=CARTESIAN_POINT('',(-0.025,-0.0665,0.0023));
#1111=CARTESIAN_POINT('',(-0.025,-0.0633,0.0023));
#1112=CARTESIAN_POINT('',(-0.025,-0.066,0.0023));
#1113=CARTESIAN_POINT('',(-0.023,-0.066,0.0023));
#1114=CARTESIAN_POINT('',(-0.023,-0.068,0.0023));
#1115=CARTESIAN_POINT('',(0.0225,-0.068,0.0023));
#1116=CARTESIAN_POINT('',(0.068,-0.068,0.0023));
#1117=CARTESIAN_POINT('',(0.068,-0.066,0.0023));
#1118=CARTESIAN_POINT('',(0.07,-0.066,0.0023));
#1119=CARTESIAN_POINT('',(0.07,0.0565,0.0023));
#1120=CARTESIAN_POINT('',(0.07,0.056,0.0023));
#1121=CARTESIAN_POINT('',(0.068,0.056,0.0023));
#1122=CARTESIAN_POINT('',(0.068,0.058,0.0023));
#1123=CARTESIAN_POINT('',(-0.005,0.058,0.0023));
#1124=CARTESIAN_POINT('',(-0.078,0.058,0.0023));
#1125=CARTESIAN_POINT('',(-0.078,0.056,0.0023));
#1126=CARTESIAN_POINT('',(-0.08,0.056,0.0023));
#1127=CARTESIAN_POINT('',(-0.08,0.0565,0.0023));
#1128=CARTESIAN_POINT('',(-0.08,0.003,0.0023));
#1129=CARTESIAN_POINT('',(-0.051,0.003,0.0023));
#1130=CARTESIAN_POINT('',(-0.022,0.003,0.0023));
#1131=CARTESIAN_POINT('',(-0.022,0.0015,0.0023));
#1132=CARTESIAN_POINT('',(-0.022,-0.0653,0.0023));
#1133=CARTESIAN_POINT('',(-0.0235,-0.0653,0.0023));
#1134=CARTESIAN_POINT('',(-0.023,-0.0653,0.0023));
#1135=CARTESIAN_POINT('',(-0.023,-0.0633,0.0023));
#1136=CARTESIAN_POINT('',(0.0225,-0.068,0.0023));
#1137=CARTESIAN_POINT('',(-0.023,-0.068,0.0023));
#1138=CARTESIAN_POINT('',(-0.023,-0.068,0.));
#1139=CARTESIAN_POINT('',(0.0225,-0.068,0.));
#1140=CARTESIAN_POINT('',(0.068,-0.068,0.));
#1141=CARTESIAN_POINT('',(0.068,-0.068,0.0023));
#1142=CARTESIAN_POINT('',(0.07,0.0565,0.0023));
#1143=CARTESIAN_POINT('',(0.07,-0.066,0.0023));
#1144=CARTESIAN_POINT('',(0.07,-0.066,0.));
#1145=CARTESIAN_POINT('',(0.07,0.0565,0.));
#1146=CARTESIAN_POINT('',(0.07,0.056,0.));
#1147=CARTESIAN_POINT('',(0.07,0.056,0.0023));
#1148=CARTESIAN_POINT('',(-0.005,0.058,0.0023));
#1149=CARTESIAN_POINT('',(0.068,0.058,0.0023));
#1150=CARTESIAN_POINT('',(0.068,0.058,0.));
#1151=CARTESIAN_POINT('',(-0.005,0.058,0.));
#1152=CARTESIAN_POINT('',(-0.078,0.058,0.));
#1153=CARTESIAN_POINT('',(-0.078,0.058,0.0023));
#1154=CARTESIAN_POINT('',(-0.08,0.0565,0.0023));
#1155=CARTESIAN_POINT('',(-0.08,0.056,0.));
#1156=CARTESIAN_POINT('',(-0.08,0.056,0.));
#1157=CARTESIAN_POINT('',(-0.08,0.0565,0.));
#1158=CARTESIAN_POINT('',(-0.08,0.002,0.));
#1159=CARTESIAN_POINT('',(-0.08,0.002,0.0023));
#1160=CARTESIAN_POINT('',(-0.08,0.002,0.0123));
#1161=CARTESIAN_POINT('',(-0.08,0.0565,0.0123));
#1162=CARTESIAN_POINT('',(-0.08,0.003,0.0123));
#1163=CARTESIAN_POINT('',(-0.08,0.003,0.0123));
#1164=CARTESIAN_POINT('',(-0.0525,0.,0.0023));
#1165=CARTESIAN_POINT('',(-0.0525,0.,0.));
#1166=CARTESIAN_POINT('',(-0.027,0.,0.));
#1167=CARTESIAN_POINT('',(-0.078,0.,0.));
#1168=CARTESIAN_POINT('',(-0.027,0.,0.0023));
#1169=CARTESIAN_POINT('',(-0.027,0.,0.0123));
#1170=CARTESIAN_POINT('',(-0.0525,0.,0.0123));
#1171=CARTESIAN_POINT('',(-0.078,0.,0.0123));
#1172=CARTESIAN_POINT('',(-0.078,0.,0.0023));
#1173=CARTESIAN_POINT('',(-0.025,-0.0665,0.0023));
#1174=CARTESIAN_POINT('',(-0.025,-0.0633,0.0123));
#1175=CARTESIAN_POINT('',(-0.025,-0.0633,0.0123));
#1176=CARTESIAN_POINT('',(-0.025,-0.0665,0.0123));
#1177=CARTESIAN_POINT('',(-0.025,-0.002,0.0123));
#1178=CARTESIAN_POINT('',(-0.025,-0.002,0.0023));
#1179=CARTESIAN_POINT('',(-0.025,-0.002,0.));
#1180=CARTESIAN_POINT('',(-0.025,-0.0665,0.));
#1181=CARTESIAN_POINT('',(-0.025,-0.066,0.));
#1182=CARTESIAN_POINT('',(-0.025,-0.066,0.0023));
#1183=CARTESIAN_POINT('',(-0.005,-0.005,0.));
#1184=CARTESIAN_POINT('',(-0.012,-0.01,0.));
#1185=CARTESIAN_POINT('',(-0.016,-0.01,0.));
#1186=CARTESIAN_POINT('',(-0.023,-0.066,0.));
#1187=CARTESIAN_POINT('',(-0.027,-0.002,0.));
#1188=CARTESIAN_POINT('',(-0.078,0.002,0.));
#1189=CARTESIAN_POINT('',(-0.078,0.056,0.));
#1190=CARTESIAN_POINT('',(0.068,0.056,0.));
#1191=CARTESIAN_POINT('',(0.068,-0.066,0.));
#1192=CARTESIAN_POINT('',(-0.0225,0.01815,0.0073));
#1193=CARTESIAN_POINT('',(-0.0225,0.01815,0.0043));
#1194=CARTESIAN_POINT('',(-0.0195,0.01815,0.0043));
#1195=CARTESIAN_POINT('',(-0.0225,0.01815,0.0073));
#1196=CARTESIAN_POINT('',(-0.0195,0.01815,0.0073));
#1197=CARTESIAN_POINT('',(-0.005,-0.005,0.0073));
#1198=CARTESIAN_POINT('',(-0.0225,0.01815,0.0073));
#1199=CARTESIAN_POINT('',(-0.02085,0.01815,0.0073));
#1200=CARTESIAN_POINT('',(0.0475,0.0285,0.0073));
#1201=CARTESIAN_POINT('',(0.0475,0.0285,0.0043));
#1202=CARTESIAN_POINT('',(0.0505,0.0285,0.0043));
#1203=CARTESIAN_POINT('',(0.0475,0.0285,0.0073));
#1204=CARTESIAN_POINT('',(0.0505,0.0285,0.0073));
#1205=CARTESIAN_POINT('',(-0.005,-0.005,0.0073));
#1206=CARTESIAN_POINT('',(0.0475,0.0285,0.0073));
#1207=CARTESIAN_POINT('',(0.04915,0.0285,0.0073));
#1208=CARTESIAN_POINT('',(0.0125,0.0475,0.0073));
#1209=CARTESIAN_POINT('',(0.0125,0.0475,0.0043));
#1210=CARTESIAN_POINT('',(0.0155,0.0475,0.0043));
#1211=CARTESIAN_POINT('',(0.0125,0.0475,0.0073));
#1212=CARTESIAN_POINT('',(0.0155,0.0475,0.0073));
#1213=CARTESIAN_POINT('',(-0.005,-0.005,0.0073));
#1214=CARTESIAN_POINT('',(0.0125,0.0475,0.0073));
#1215=CARTESIAN_POINT('',(0.01415,0.0475,0.0073));
#1216=CARTESIAN_POINT('',(0.012,-0.058,0.0073));
#1217=CARTESIAN_POINT('',(0.012,-0.058,0.0043));
#1218=CARTESIAN_POINT('',(0.0129,-0.058,0.0043));
#1219=CARTESIAN_POINT('',(0.012,-0.058,0.0113));
#1220=CARTESIAN_POINT('',(0.0129,-0.058,0.0113));
#1221=CARTESIAN_POINT('',(0.058,-0.058,0.0073));
#1222=CARTESIAN_POINT('',(0.058,-0.058,0.0043));
#1223=CARTESIAN_POINT('',(0.0589,-0.058,0.0043));
#1224=CARTESIAN_POINT('',(0.058,-0.058,0.0113));
#1225=CARTESIAN_POINT('',(0.0589,-0.058,0.0113));
#1226=CARTESIAN_POINT('',(0.058,0.008,0.0073));
#1227=CARTESIAN_POINT('',(0.058,0.008,0.0043));
#1228=CARTESIAN_POINT('',(0.0589,0.008,0.0043));
#1229=CARTESIAN_POINT('',(0.058,0.008,0.0113));
#1230=CARTESIAN_POINT('',(0.0589,0.008,0.0113));
#1231=CARTESIAN_POINT('',(0.012,0.008,0.0073));
#1232=CARTESIAN_POINT('',(0.012,0.008,0.0043));
#1233=CARTESIAN_POINT('',(0.0129,0.008,0.0043));
#1234=CARTESIAN_POINT('',(0.012,0.008,0.0113));
#1235=CARTESIAN_POINT('',(0.0129,0.008,0.0113));
#1236=CARTESIAN_POINT('',(-0.0575,0.03715,0.0073));
#1237=CARTESIAN_POINT('',(-0.0575,0.03715,0.0043));
#1238=CARTESIAN_POINT('',(-0.0545,0.03715,0.0043));
#1239=CARTESIAN_POINT('',(-0.0575,0.03715,0.0073));
#1240=CARTESIAN_POINT('',(-0.0545,0.03715,0.0073));
#1241=CARTESIAN_POINT('',(-0.005,-0.005,0.0073));
#1242=CARTESIAN_POINT('',(-0.0575,0.03715,0.0073));
#1243=CARTESIAN_POINT('',(-0.05585,0.03715,0.0073));
#1244=CARTESIAN_POINT('',(-0.0575,0.03715,0.0033));
#1245=CARTESIAN_POINT('',(-0.0575,0.03715,0.0033));
#1246=CARTESIAN_POINT('',(-0.05585,0.03715,0.0033));
#1247=CARTESIAN_POINT('',(-0.005675,0.032825,0.0033));
#1248=CARTESIAN_POINT('',(0.0125,0.0475,0.0033));
#1249=CARTESIAN_POINT('',(0.0125,0.0475,0.0033));
#1250=CARTESIAN_POINT('',(0.01415,0.0475,0.0033));
#1251=CARTESIAN_POINT('',(-0.005675,0.032825,0.0033));
#1252=CARTESIAN_POINT('',(0.0475,0.0285,0.0033));
#1253=CARTESIAN_POINT('',(0.0475,0.0285,0.0033));
#1254=CARTESIAN_POINT('',(0.04915,0.0285,0.0033));
#1255=CARTESIAN_POINT('',(-0.005675,0.032825,0.0033));
#1256=CARTESIAN_POINT('',(-0.0225,0.01815,0.0033));
#1257=CARTESIAN_POINT('',(-0.0225,0.01815,0.0033));
#1258=CARTESIAN_POINT('',(-0.02085,0.01815,0.0033));
#1259=CARTESIAN_POINT('',(-0.005675,0.032825,0.0033));
#1260=CARTESIAN_POINT('',(-0.0235,-0.0653,0.0123));
#1261=CARTESIAN_POINT('',(-0.0235,-0.0653,0.0123));
#1262=CARTESIAN_POINT('',(-0.022,-0.0653,0.0123));
#1263=CARTESIAN_POINT('',(-0.023,-0.0653,0.0123));
#1264=CARTESIAN_POINT('',(-0.023,-0.0653,0.0023));
#1265=CARTESIAN_POINT('',(-0.022,-0.0653,0.0123));
#1266=CARTESIAN_POINT('',(-0.022,0.0015,0.0123));
#1267=CARTESIAN_POINT('',(-0.022,0.003,0.0123));
#1268=CARTESIAN_POINT('',(-0.022,0.003,0.0123));
#1269=CARTESIAN_POINT('',(-0.022,0.0015,0.0123));
#1270=CARTESIAN_POINT('',(-0.051,0.003,0.0123));
#1271=CARTESIAN_POINT('',(-0.051,0.003,0.0123));
#1272=CARTESIAN_POINT('',(-0.005,-0.005,0.0123));
#1273=CARTESIAN_POINT('',(-0.023,-0.0633,0.0123));
#1274=CARTESIAN_POINT('',(-0.078,0.002,0.0123));
#1275=CARTESIAN_POINT('',(-0.027,-0.002,0.0123));
#1276=CARTESIAN_POINT('',(0.035,-0.025,0.0113));
#1277=CARTESIAN_POINT('',(0.035,-0.025,0.0113));
#1278=CARTESIAN_POINT('',(0.035,-0.025,0.0113));
#1279=CARTESIAN_POINT('',(0.035,-0.025,0.0113));
#1280=CARTESIAN_POINT('',(-0.023,-0.0633,0.0123));
#1281=CARTESIAN_POINT('',(-0.023,-0.066,0.0023));
#1282=CARTESIAN_POINT('',(0.068,-0.066,0.0023));
#1283=CARTESIAN_POINT('',(0.068,0.056,0.0023));
#1284=CARTESIAN_POINT('',(-0.078,0.056,0.0023));
#1285=CARTESIAN_POINT('',(-0.027,-0.002,0.0023));
#1286=CARTESIAN_POINT('',(-0.078,0.002,0.0023));
#1287=CARTESIAN_POINT('',(0.0475,0.0285,0.0043));
#1288=CARTESIAN_POINT('',(0.0125,0.0475,0.0043));
#1289=CARTESIAN_POINT('',(0.012,0.008,0.0043));
#1290=CARTESIAN_POINT('',(0.058,0.008,0.0043));
#1291=CARTESIAN_POINT('',(0.058,-0.058,0.0043));
#1292=CARTESIAN_POINT('',(0.012,-0.058,0.0043));
#1293=CARTESIAN_POINT('',(-0.0575,0.03715,0.0043));
#1294=CARTESIAN_POINT('',(-0.0225,0.01815,0.0043));
#1295=CARTESIAN_POINT('',(-0.012,-0.01,0.001));
#1296=CARTESIAN_POINT('',(-0.012,-0.01,0.001));
#1297=CARTESIAN_POINT('',(-0.016,-0.01,0.001));
#1298=CARTESIAN_POINT('',(-0.005,-0.005,0.001));
#1299=MECHANICAL_DESIGN_GEOMETRIC_PRESENTATION_REPRESENTATION('',(#738),
#1300);
#1300=(
GEOMETRIC_REPRESENTATION_CONTEXT(3)
GLOBAL_UNCERTAINTY_ASSIGNED_CONTEXT((#1301))
GLOBAL_UNIT_ASSIGNED_CONTEXT((#1304,#1303,#1302))
REPRESENTATION_CONTEXT('Part 1','TOP_LEVEL_ASSEMBLY_PART')
);
#1301=UNCERTAINTY_MEASURE_WITH_UNIT(LENGTH_MEASURE(1.E-8),#1304,
'DISTANCE_ACCURACY_VALUE','Maximum Tolerance applied to model');
#1302=(
NAMED_UNIT(*)
SI_UNIT($,.STERADIAN.)
SOLID_ANGLE_UNIT()
);
#1303=(
NAMED_UNIT(*)
PLANE_ANGLE_UNIT()
SI_UNIT($,.RADIAN.)
);
#1304=(
LENGTH_UNIT()
NAMED_UNIT(*)
SI_UNIT($,.METRE.)
);
#1305=PRODUCT_DEFINITION_SHAPE('','',#1306);
#1306=PRODUCT_DEFINITION('','',#1308,#1307);
#1307=PRODUCT_DEFINITION_CONTEXT('',#1314,'design');
#1308=PRODUCT_DEFINITION_FORMATION_WITH_SPECIFIED_SOURCE('','',#1310,
 .NOT_KNOWN.);
#1309=PRODUCT_RELATED_PRODUCT_CATEGORY('','',(#1310));
#1310=PRODUCT('Part 1','Part 1','Part 1',(#1312));
#1311=PRODUCT_CATEGORY('','');
#1312=PRODUCT_CONTEXT('',#1314,'mechanical');
#1313=APPLICATION_PROTOCOL_DEFINITION('international standard',
'ap242_managed_model_based_3d_engineering',2020,#1314);
#1314=APPLICATION_CONTEXT('managed model based 3d engineering');
ENDSEC;
END-ISO-10303-21;
