ISO-10303-21;
HEADER;
/* Generated by software containing ST-Developer
 * from STEP Tools, Inc. (www.steptools.com) 
 */
/* OPTION: using custom renumber hook */

FILE_DESCRIPTION(
/* description */ ('STEP AP242 Edition 2',
'CAx-IF Rec.Pracs.---Representation and Presentation of Product Manufa
cturing Information (PMI)---4.0---2014-10-13',
'CAx-IF Rec.Pracs.---3D Tessellated Geometry---0.4---2014-09-14','2;1',
'CAx-IF Rec.Pracs.---User Defined Attributes---1.5---2016-08-15'),
/* implementation_level */ '2;1');

FILE_NAME(
/* name */ 'Level 1',
/* time_stamp */ '2026-09-02T14:42:28Z',
/* author */ (''),
/* organization */ (''),
/* preprocessor_version */ 'ST-DEVELOPER v20',
/* originating_system */ 'ONSHAPE BY PTC INC, 1.220',
/* authorisation */ '  ');

FILE_SCHEMA (('AP242_MANAGED_MODEL_BASED_3D_ENGINEERING_MIM_LF { 1 0 10303 442 3 1 4 }'));
ENDSEC;

DATA;
#10=SHAPE_REPRESENTATION_RELATIONSHIP('','',#1309,#11);
#11=ADVANCED_BREP_SHAPE_REPRESENTATION('',(#1307),#2308);
#12=ELLIPSE('',#1431,0.00282842712474619,0.002);
#13=TOROIDAL_SURFACE('',#1428,0.004,0.002);
#14=TOROIDAL_SURFACE('',#1433,0.005,0.002);
#15=TOROIDAL_SURFACE('',#1434,0.005,0.002);
#16=TOROIDAL_SURFACE('',#1435,0.005,0.002);
#17=TOROIDAL_SURFACE('',#1436,0.005,0.002);
#18=TOROIDAL_SURFACE('',#1437,0.005,0.002);
#19=TOROIDAL_SURFACE('',#1438,0.005,0.002);
#20=TOROIDAL_SURFACE('',#1439,0.005,0.002);
#21=TOROIDAL_SURFACE('',#1440,0.005,0.002);
#22=TOROIDAL_SURFACE('',#1468,0.004,0.002);
#23=TOROIDAL_SURFACE('',#1479,0.004,0.002);
#24=TOROIDAL_SURFACE('',#1481,0.004,0.002);
#25=TOROIDAL_SURFACE('',#1487,0.004,0.002);
#26=TOROIDAL_SURFACE('',#1494,0.004,0.002);
#27=SPHERICAL_SURFACE('',#1411,0.002);
#28=SPHERICAL_SURFACE('',#1418,0.002);
#29=SPHERICAL_SURFACE('',#1420,0.002);
#30=SPHERICAL_SURFACE('',#1426,0.002);
#31=CYLINDRICAL_SURFACE('',#1337,0.003);
#32=CYLINDRICAL_SURFACE('',#1342,0.003);
#33=CYLINDRICAL_SURFACE('',#1347,0.003);
#34=CYLINDRICAL_SURFACE('',#1352,0.003);
#35=CYLINDRICAL_SURFACE('',#1357,0.003);
#36=CYLINDRICAL_SURFACE('',#1362,0.003);
#37=CYLINDRICAL_SURFACE('',#1367,0.003);
#38=CYLINDRICAL_SURFACE('',#1372,0.003);
#39=CYLINDRICAL_SURFACE('',#1377,0.0019);
#40=CYLINDRICAL_SURFACE('',#1380,0.0019);
#41=CYLINDRICAL_SURFACE('',#1383,0.0019);
#42=CYLINDRICAL_SURFACE('',#1386,0.00165);
#43=CYLINDRICAL_SURFACE('',#1389,0.00165);
#44=CYLINDRICAL_SURFACE('',#1392,0.00165);
#45=CYLINDRICAL_SURFACE('',#1395,0.00165);
#46=CYLINDRICAL_SURFACE('',#1398,0.0019);
#47=CYLINDRICAL_SURFACE('',#1407,0.002);
#48=CYLINDRICAL_SURFACE('',#1409,0.002);
#49=CYLINDRICAL_SURFACE('',#1414,0.002);
#50=CYLINDRICAL_SURFACE('',#1416,0.002);
#51=CYLINDRICAL_SURFACE('',#1422,0.002);
#52=CYLINDRICAL_SURFACE('',#1424,0.002);
#53=CYLINDRICAL_SURFACE('',#1430,0.002);
#54=CYLINDRICAL_SURFACE('',#1432,0.002);
#55=CYLINDRICAL_SURFACE('',#1462,0.002);
#56=CYLINDRICAL_SURFACE('',#1463,0.002);
#57=CYLINDRICAL_SURFACE('',#1466,0.002);
#58=CYLINDRICAL_SURFACE('',#1471,0.002);
#59=CYLINDRICAL_SURFACE('',#1473,0.002);
#60=CYLINDRICAL_SURFACE('',#1475,0.002);
#61=CYLINDRICAL_SURFACE('',#1477,0.002);
#62=CYLINDRICAL_SURFACE('',#1483,0.002);
#63=CYLINDRICAL_SURFACE('',#1485,0.002);
#64=CYLINDRICAL_SURFACE('',#1489,0.002);
#65=CYLINDRICAL_SURFACE('',#1490,0.002);
#66=CYLINDRICAL_SURFACE('',#1492,0.002);
#67=CYLINDRICAL_SURFACE('',#1496,0.002);
#68=CIRCLE('',#1312,0.004);
#69=CIRCLE('',#1313,0.002);
#70=CIRCLE('',#1314,0.002);
#71=CIRCLE('',#1315,0.002);
#72=CIRCLE('',#1316,0.005);
#73=CIRCLE('',#1317,0.005);
#74=CIRCLE('',#1318,0.005);
#75=CIRCLE('',#1319,0.005);
#76=CIRCLE('',#1320,0.005);
#77=CIRCLE('',#1321,0.005);
#78=CIRCLE('',#1322,0.005);
#79=CIRCLE('',#1323,0.005);
#80=CIRCLE('',#1324,0.004);
#81=CIRCLE('',#1325,0.004);
#82=CIRCLE('',#1326,0.004);
#83=CIRCLE('',#1327,0.004);
#84=CIRCLE('',#1332,0.002);
#85=CIRCLE('',#1334,0.002);
#86=CIRCLE('',#1336,0.004);
#87=CIRCLE('',#1338,0.003);
#88=CIRCLE('',#1339,0.003);
#89=CIRCLE('',#1341,0.0019);
#90=CIRCLE('',#1343,0.003);
#91=CIRCLE('',#1344,0.003);
#92=CIRCLE('',#1346,0.00165);
#93=CIRCLE('',#1348,0.003);
#94=CIRCLE('',#1349,0.003);
#95=CIRCLE('',#1351,0.00165);
#96=CIRCLE('',#1353,0.003);
#97=CIRCLE('',#1354,0.003);
#98=CIRCLE('',#1356,0.00165);
#99=CIRCLE('',#1358,0.003);
#100=CIRCLE('',#1359,0.003);
#101=CIRCLE('',#1361,0.00165);
#102=CIRCLE('',#1363,0.003);
#103=CIRCLE('',#1364,0.003);
#104=CIRCLE('',#1366,0.0019);
#105=CIRCLE('',#1368,0.003);
#106=CIRCLE('',#1369,0.003);
#107=CIRCLE('',#1371,0.0019);
#108=CIRCLE('',#1373,0.003);
#109=CIRCLE('',#1374,0.003);
#110=CIRCLE('',#1376,0.0019);
#111=CIRCLE('',#1378,0.0019);
#112=CIRCLE('',#1381,0.0019);
#113=CIRCLE('',#1384,0.0019);
#114=CIRCLE('',#1387,0.00165);
#115=CIRCLE('',#1390,0.00165);
#116=CIRCLE('',#1393,0.00165);
#117=CIRCLE('',#1396,0.00165);
#118=CIRCLE('',#1399,0.0019);
#119=CIRCLE('',#1404,0.002);
#120=CIRCLE('',#1405,0.002);
#121=CIRCLE('',#1406,0.002);
#122=CIRCLE('',#1408,0.002);
#123=CIRCLE('',#1410,0.002);
#124=CIRCLE('',#1412,0.002);
#125=CIRCLE('',#1413,0.002);
#126=CIRCLE('',#1415,0.002);
#127=CIRCLE('',#1417,0.002);
#128=CIRCLE('',#1419,0.002);
#129=CIRCLE('',#1421,0.002);
#130=CIRCLE('',#1423,0.002);
#131=CIRCLE('',#1425,0.002);
#132=CIRCLE('',#1427,0.002);
#133=CIRCLE('',#1429,0.002);
#134=CIRCLE('',#1446,0.002);
#135=CIRCLE('',#1447,0.002);
#136=CIRCLE('',#1448,0.002);
#137=CIRCLE('',#1453,0.002);
#138=CIRCLE('',#1454,0.002);
#139=CIRCLE('',#1455,0.002);
#140=CIRCLE('',#1457,0.002);
#141=CIRCLE('',#1458,0.002);
#142=CIRCLE('',#1459,0.002);
#143=CIRCLE('',#1460,0.002);
#144=CIRCLE('',#1461,0.002);
#145=CIRCLE('',#1464,0.002);
#146=CIRCLE('',#1467,0.002);
#147=CIRCLE('',#1469,0.002);
#148=CIRCLE('',#1470,0.002);
#149=CIRCLE('',#1472,0.002);
#150=CIRCLE('',#1474,0.002);
#151=CIRCLE('',#1476,0.002);
#152=CIRCLE('',#1478,0.002);
#153=CIRCLE('',#1480,0.002);
#154=CIRCLE('',#1482,0.002);
#155=CIRCLE('',#1484,0.002);
#156=CIRCLE('',#1486,0.002);
#157=CIRCLE('',#1488,0.002);
#158=CIRCLE('',#1491,0.002);
#159=CIRCLE('',#1493,0.002);
#160=CIRCLE('',#1495,0.002);
#161=ORIENTED_EDGE('',*,*,#483,.F.);
#162=ORIENTED_EDGE('',*,*,#484,.T.);
#163=ORIENTED_EDGE('',*,*,#485,.F.);
#164=ORIENTED_EDGE('',*,*,#486,.T.);
#165=ORIENTED_EDGE('',*,*,#487,.F.);
#166=ORIENTED_EDGE('',*,*,#488,.T.);
#167=ORIENTED_EDGE('',*,*,#489,.F.);
#168=ORIENTED_EDGE('',*,*,#490,.T.);
#169=ORIENTED_EDGE('',*,*,#491,.T.);
#170=ORIENTED_EDGE('',*,*,#492,.T.);
#171=ORIENTED_EDGE('',*,*,#493,.T.);
#172=ORIENTED_EDGE('',*,*,#494,.T.);
#173=ORIENTED_EDGE('',*,*,#495,.T.);
#174=ORIENTED_EDGE('',*,*,#496,.T.);
#175=ORIENTED_EDGE('',*,*,#497,.T.);
#176=ORIENTED_EDGE('',*,*,#498,.T.);
#177=ORIENTED_EDGE('',*,*,#499,.T.);
#178=ORIENTED_EDGE('',*,*,#500,.T.);
#179=ORIENTED_EDGE('',*,*,#501,.F.);
#180=ORIENTED_EDGE('',*,*,#502,.T.);
#181=ORIENTED_EDGE('',*,*,#503,.F.);
#182=ORIENTED_EDGE('',*,*,#504,.T.);
#183=ORIENTED_EDGE('',*,*,#505,.F.);
#184=ORIENTED_EDGE('',*,*,#506,.T.);
#185=ORIENTED_EDGE('',*,*,#507,.F.);
#186=ORIENTED_EDGE('',*,*,#508,.T.);
#187=ORIENTED_EDGE('',*,*,#509,.F.);
#188=ORIENTED_EDGE('',*,*,#510,.T.);
#189=ORIENTED_EDGE('',*,*,#511,.T.);
#190=ORIENTED_EDGE('',*,*,#512,.T.);
#191=ORIENTED_EDGE('',*,*,#513,.T.);
#192=ORIENTED_EDGE('',*,*,#514,.T.);
#193=ORIENTED_EDGE('',*,*,#515,.T.);
#194=ORIENTED_EDGE('',*,*,#516,.T.);
#195=ORIENTED_EDGE('',*,*,#517,.T.);
#196=ORIENTED_EDGE('',*,*,#518,.T.);
#197=ORIENTED_EDGE('',*,*,#519,.F.);
#198=ORIENTED_EDGE('',*,*,#520,.F.);
#199=ORIENTED_EDGE('',*,*,#519,.T.);
#200=ORIENTED_EDGE('',*,*,#521,.T.);
#201=ORIENTED_EDGE('',*,*,#522,.T.);
#202=ORIENTED_EDGE('',*,*,#523,.F.);
#203=ORIENTED_EDGE('',*,*,#524,.T.);
#204=ORIENTED_EDGE('',*,*,#525,.T.);
#205=ORIENTED_EDGE('',*,*,#526,.T.);
#206=ORIENTED_EDGE('',*,*,#527,.T.);
#207=ORIENTED_EDGE('',*,*,#528,.T.);
#208=ORIENTED_EDGE('',*,*,#529,.T.);
#209=ORIENTED_EDGE('',*,*,#530,.T.);
#210=ORIENTED_EDGE('',*,*,#531,.T.);
#211=ORIENTED_EDGE('',*,*,#532,.T.);
#212=ORIENTED_EDGE('',*,*,#533,.T.);
#213=ORIENTED_EDGE('',*,*,#534,.T.);
#214=ORIENTED_EDGE('',*,*,#535,.T.);
#215=ORIENTED_EDGE('',*,*,#536,.T.);
#216=ORIENTED_EDGE('',*,*,#537,.T.);
#217=ORIENTED_EDGE('',*,*,#538,.F.);
#218=ORIENTED_EDGE('',*,*,#539,.F.);
#219=ORIENTED_EDGE('',*,*,#538,.T.);
#220=ORIENTED_EDGE('',*,*,#540,.T.);
#221=ORIENTED_EDGE('',*,*,#541,.F.);
#222=ORIENTED_EDGE('',*,*,#542,.F.);
#223=ORIENTED_EDGE('',*,*,#541,.T.);
#224=ORIENTED_EDGE('',*,*,#543,.T.);
#225=ORIENTED_EDGE('',*,*,#544,.F.);
#226=ORIENTED_EDGE('',*,*,#545,.F.);
#227=ORIENTED_EDGE('',*,*,#544,.T.);
#228=ORIENTED_EDGE('',*,*,#546,.T.);
#229=ORIENTED_EDGE('',*,*,#547,.F.);
#230=ORIENTED_EDGE('',*,*,#548,.F.);
#231=ORIENTED_EDGE('',*,*,#547,.T.);
#232=ORIENTED_EDGE('',*,*,#549,.T.);
#233=ORIENTED_EDGE('',*,*,#550,.F.);
#234=ORIENTED_EDGE('',*,*,#551,.F.);
#235=ORIENTED_EDGE('',*,*,#550,.T.);
#236=ORIENTED_EDGE('',*,*,#552,.T.);
#237=ORIENTED_EDGE('',*,*,#553,.F.);
#238=ORIENTED_EDGE('',*,*,#554,.F.);
#239=ORIENTED_EDGE('',*,*,#553,.T.);
#240=ORIENTED_EDGE('',*,*,#555,.T.);
#241=ORIENTED_EDGE('',*,*,#556,.F.);
#242=ORIENTED_EDGE('',*,*,#557,.F.);
#243=ORIENTED_EDGE('',*,*,#556,.T.);
#244=ORIENTED_EDGE('',*,*,#558,.T.);
#245=ORIENTED_EDGE('',*,*,#559,.F.);
#246=ORIENTED_EDGE('',*,*,#560,.F.);
#247=ORIENTED_EDGE('',*,*,#559,.T.);
#248=ORIENTED_EDGE('',*,*,#561,.F.);
#249=ORIENTED_EDGE('',*,*,#560,.T.);
#250=ORIENTED_EDGE('',*,*,#561,.T.);
#251=ORIENTED_EDGE('',*,*,#562,.F.);
#252=ORIENTED_EDGE('',*,*,#557,.T.);
#253=ORIENTED_EDGE('',*,*,#562,.T.);
#254=ORIENTED_EDGE('',*,*,#563,.F.);
#255=ORIENTED_EDGE('',*,*,#554,.T.);
#256=ORIENTED_EDGE('',*,*,#563,.T.);
#257=ORIENTED_EDGE('',*,*,#564,.F.);
#258=ORIENTED_EDGE('',*,*,#551,.T.);
#259=ORIENTED_EDGE('',*,*,#564,.T.);
#260=ORIENTED_EDGE('',*,*,#565,.F.);
#261=ORIENTED_EDGE('',*,*,#548,.T.);
#262=ORIENTED_EDGE('',*,*,#565,.T.);
#263=ORIENTED_EDGE('',*,*,#566,.F.);
#264=ORIENTED_EDGE('',*,*,#545,.T.);
#265=ORIENTED_EDGE('',*,*,#566,.T.);
#266=ORIENTED_EDGE('',*,*,#567,.F.);
#267=ORIENTED_EDGE('',*,*,#542,.T.);
#268=ORIENTED_EDGE('',*,*,#567,.T.);
#269=ORIENTED_EDGE('',*,*,#568,.F.);
#270=ORIENTED_EDGE('',*,*,#539,.T.);
#271=ORIENTED_EDGE('',*,*,#568,.T.);
#272=ORIENTED_EDGE('',*,*,#569,.T.);
#273=ORIENTED_EDGE('',*,*,#570,.T.);
#274=ORIENTED_EDGE('',*,*,#571,.F.);
#275=ORIENTED_EDGE('',*,*,#523,.T.);
#276=ORIENTED_EDGE('',*,*,#572,.T.);
#277=ORIENTED_EDGE('',*,*,#573,.T.);
#278=ORIENTED_EDGE('',*,*,#574,.T.);
#279=ORIENTED_EDGE('',*,*,#525,.F.);
#280=ORIENTED_EDGE('',*,*,#571,.T.);
#281=ORIENTED_EDGE('',*,*,#575,.T.);
#282=ORIENTED_EDGE('',*,*,#572,.F.);
#283=ORIENTED_EDGE('',*,*,#529,.F.);
#284=ORIENTED_EDGE('',*,*,#576,.T.);
#285=ORIENTED_EDGE('',*,*,#516,.F.);
#286=ORIENTED_EDGE('',*,*,#577,.T.);
#287=ORIENTED_EDGE('',*,*,#520,.T.);
#288=ORIENTED_EDGE('',*,*,#524,.F.);
#289=ORIENTED_EDGE('',*,*,#515,.F.);
#290=ORIENTED_EDGE('',*,*,#578,.T.);
#291=ORIENTED_EDGE('',*,*,#517,.F.);
#292=ORIENTED_EDGE('',*,*,#577,.F.);
#293=ORIENTED_EDGE('',*,*,#528,.F.);
#294=ORIENTED_EDGE('',*,*,#579,.T.);
#295=ORIENTED_EDGE('',*,*,#513,.F.);
#296=ORIENTED_EDGE('',*,*,#576,.F.);
#297=ORIENTED_EDGE('',*,*,#580,.F.);
#298=ORIENTED_EDGE('',*,*,#492,.F.);
#299=ORIENTED_EDGE('',*,*,#581,.F.);
#300=ORIENTED_EDGE('',*,*,#581,.T.);
#301=ORIENTED_EDGE('',*,*,#491,.F.);
#302=ORIENTED_EDGE('',*,*,#582,.F.);
#303=ORIENTED_EDGE('',*,*,#535,.F.);
#304=ORIENTED_EDGE('',*,*,#580,.T.);
#305=ORIENTED_EDGE('',*,*,#534,.F.);
#306=ORIENTED_EDGE('',*,*,#583,.F.);
#307=ORIENTED_EDGE('',*,*,#527,.F.);
#308=ORIENTED_EDGE('',*,*,#483,.T.);
#309=ORIENTED_EDGE('',*,*,#582,.T.);
#310=ORIENTED_EDGE('',*,*,#490,.F.);
#311=ORIENTED_EDGE('',*,*,#584,.F.);
#312=ORIENTED_EDGE('',*,*,#579,.F.);
#313=ORIENTED_EDGE('',*,*,#583,.T.);
#314=ORIENTED_EDGE('',*,*,#585,.F.);
#315=ORIENTED_EDGE('',*,*,#584,.T.);
#316=ORIENTED_EDGE('',*,*,#489,.T.);
#317=ORIENTED_EDGE('',*,*,#586,.F.);
#318=ORIENTED_EDGE('',*,*,#536,.F.);
#319=ORIENTED_EDGE('',*,*,#585,.T.);
#320=ORIENTED_EDGE('',*,*,#533,.F.);
#321=ORIENTED_EDGE('',*,*,#587,.F.);
#322=ORIENTED_EDGE('',*,*,#514,.F.);
#323=ORIENTED_EDGE('',*,*,#586,.T.);
#324=ORIENTED_EDGE('',*,*,#488,.F.);
#325=ORIENTED_EDGE('',*,*,#588,.F.);
#326=ORIENTED_EDGE('',*,*,#587,.T.);
#327=ORIENTED_EDGE('',*,*,#532,.F.);
#328=ORIENTED_EDGE('',*,*,#589,.F.);
#329=ORIENTED_EDGE('',*,*,#578,.F.);
#330=ORIENTED_EDGE('',*,*,#487,.T.);
#331=ORIENTED_EDGE('',*,*,#521,.F.);
#332=ORIENTED_EDGE('',*,*,#590,.F.);
#333=ORIENTED_EDGE('',*,*,#530,.F.);
#334=ORIENTED_EDGE('',*,*,#588,.T.);
#335=ORIENTED_EDGE('',*,*,#589,.T.);
#336=ORIENTED_EDGE('',*,*,#531,.F.);
#337=ORIENTED_EDGE('',*,*,#590,.T.);
#338=ORIENTED_EDGE('',*,*,#518,.F.);
#339=ORIENTED_EDGE('',*,*,#500,.F.);
#340=ORIENTED_EDGE('',*,*,#552,.F.);
#341=ORIENTED_EDGE('',*,*,#499,.F.);
#342=ORIENTED_EDGE('',*,*,#555,.F.);
#343=ORIENTED_EDGE('',*,*,#498,.F.);
#344=ORIENTED_EDGE('',*,*,#543,.F.);
#345=ORIENTED_EDGE('',*,*,#497,.F.);
#346=ORIENTED_EDGE('',*,*,#558,.F.);
#347=ORIENTED_EDGE('',*,*,#496,.F.);
#348=ORIENTED_EDGE('',*,*,#540,.F.);
#349=ORIENTED_EDGE('',*,*,#495,.F.);
#350=ORIENTED_EDGE('',*,*,#537,.F.);
#351=ORIENTED_EDGE('',*,*,#494,.F.);
#352=ORIENTED_EDGE('',*,*,#546,.F.);
#353=ORIENTED_EDGE('',*,*,#493,.F.);
#354=ORIENTED_EDGE('',*,*,#549,.F.);
#355=ORIENTED_EDGE('',*,*,#591,.T.);
#356=ORIENTED_EDGE('',*,*,#592,.T.);
#357=ORIENTED_EDGE('',*,*,#593,.T.);
#358=ORIENTED_EDGE('',*,*,#594,.T.);
#359=ORIENTED_EDGE('',*,*,#595,.T.);
#360=ORIENTED_EDGE('',*,*,#596,.T.);
#361=ORIENTED_EDGE('',*,*,#597,.F.);
#362=ORIENTED_EDGE('',*,*,#598,.T.);
#363=ORIENTED_EDGE('',*,*,#599,.F.);
#364=ORIENTED_EDGE('',*,*,#600,.T.);
#365=ORIENTED_EDGE('',*,*,#601,.T.);
#366=ORIENTED_EDGE('',*,*,#602,.T.);
#367=ORIENTED_EDGE('',*,*,#603,.T.);
#368=ORIENTED_EDGE('',*,*,#604,.T.);
#369=ORIENTED_EDGE('',*,*,#605,.T.);
#370=ORIENTED_EDGE('',*,*,#606,.T.);
#371=ORIENTED_EDGE('',*,*,#607,.F.);
#372=ORIENTED_EDGE('',*,*,#608,.F.);
#373=ORIENTED_EDGE('',*,*,#609,.T.);
#374=ORIENTED_EDGE('',*,*,#599,.T.);
#375=ORIENTED_EDGE('',*,*,#610,.T.);
#376=ORIENTED_EDGE('',*,*,#611,.F.);
#377=ORIENTED_EDGE('',*,*,#612,.F.);
#378=ORIENTED_EDGE('',*,*,#613,.F.);
#379=ORIENTED_EDGE('',*,*,#614,.T.);
#380=ORIENTED_EDGE('',*,*,#608,.T.);
#381=ORIENTED_EDGE('',*,*,#615,.F.);
#382=ORIENTED_EDGE('',*,*,#612,.T.);
#383=ORIENTED_EDGE('',*,*,#616,.F.);
#384=ORIENTED_EDGE('',*,*,#617,.F.);
#385=ORIENTED_EDGE('',*,*,#615,.T.);
#386=ORIENTED_EDGE('',*,*,#611,.T.);
#387=ORIENTED_EDGE('',*,*,#618,.T.);
#388=ORIENTED_EDGE('',*,*,#619,.F.);
#389=ORIENTED_EDGE('',*,*,#616,.T.);
#390=ORIENTED_EDGE('',*,*,#620,.T.);
#391=ORIENTED_EDGE('',*,*,#511,.F.);
#392=ORIENTED_EDGE('',*,*,#621,.T.);
#393=ORIENTED_EDGE('',*,*,#613,.T.);
#394=ORIENTED_EDGE('',*,*,#617,.T.);
#395=ORIENTED_EDGE('',*,*,#619,.T.);
#396=ORIENTED_EDGE('',*,*,#622,.T.);
#397=ORIENTED_EDGE('',*,*,#623,.F.);
#398=ORIENTED_EDGE('',*,*,#597,.T.);
#399=ORIENTED_EDGE('',*,*,#624,.T.);
#400=ORIENTED_EDGE('',*,*,#509,.T.);
#401=ORIENTED_EDGE('',*,*,#625,.T.);
#402=ORIENTED_EDGE('',*,*,#603,.F.);
#403=ORIENTED_EDGE('',*,*,#626,.T.);
#404=ORIENTED_EDGE('',*,*,#593,.F.);
#405=ORIENTED_EDGE('',*,*,#627,.T.);
#406=ORIENTED_EDGE('',*,*,#623,.T.);
#407=ORIENTED_EDGE('',*,*,#620,.F.);
#408=ORIENTED_EDGE('',*,*,#607,.T.);
#409=ORIENTED_EDGE('',*,*,#628,.F.);
#410=ORIENTED_EDGE('',*,*,#628,.T.);
#411=ORIENTED_EDGE('',*,*,#629,.F.);
#412=ORIENTED_EDGE('',*,*,#594,.F.);
#413=ORIENTED_EDGE('',*,*,#626,.F.);
#414=ORIENTED_EDGE('',*,*,#606,.F.);
#415=ORIENTED_EDGE('',*,*,#630,.F.);
#416=ORIENTED_EDGE('',*,*,#629,.T.);
#417=ORIENTED_EDGE('',*,*,#631,.F.);
#418=ORIENTED_EDGE('',*,*,#507,.T.);
#419=ORIENTED_EDGE('',*,*,#610,.F.);
#420=ORIENTED_EDGE('',*,*,#602,.F.);
#421=ORIENTED_EDGE('',*,*,#632,.F.);
#422=ORIENTED_EDGE('',*,*,#604,.F.);
#423=ORIENTED_EDGE('',*,*,#625,.F.);
#424=ORIENTED_EDGE('',*,*,#512,.F.);
#425=ORIENTED_EDGE('',*,*,#622,.F.);
#426=ORIENTED_EDGE('',*,*,#618,.F.);
#427=ORIENTED_EDGE('',*,*,#631,.T.);
#428=ORIENTED_EDGE('',*,*,#605,.F.);
#429=ORIENTED_EDGE('',*,*,#633,.F.);
#430=ORIENTED_EDGE('',*,*,#508,.F.);
#431=ORIENTED_EDGE('',*,*,#630,.T.);
#432=ORIENTED_EDGE('',*,*,#506,.F.);
#433=ORIENTED_EDGE('',*,*,#634,.F.);
#434=ORIENTED_EDGE('',*,*,#591,.F.);
#435=ORIENTED_EDGE('',*,*,#627,.F.);
#436=ORIENTED_EDGE('',*,*,#592,.F.);
#437=ORIENTED_EDGE('',*,*,#635,.F.);
#438=ORIENTED_EDGE('',*,*,#598,.F.);
#439=ORIENTED_EDGE('',*,*,#633,.T.);
#440=ORIENTED_EDGE('',*,*,#632,.T.);
#441=ORIENTED_EDGE('',*,*,#636,.F.);
#442=ORIENTED_EDGE('',*,*,#501,.T.);
#443=ORIENTED_EDGE('',*,*,#634,.T.);
#444=ORIENTED_EDGE('',*,*,#505,.T.);
#445=ORIENTED_EDGE('',*,*,#637,.F.);
#446=ORIENTED_EDGE('',*,*,#635,.T.);
#447=ORIENTED_EDGE('',*,*,#636,.T.);
#448=ORIENTED_EDGE('',*,*,#601,.F.);
#449=ORIENTED_EDGE('',*,*,#638,.F.);
#450=ORIENTED_EDGE('',*,*,#502,.F.);
#451=ORIENTED_EDGE('',*,*,#637,.T.);
#452=ORIENTED_EDGE('',*,*,#504,.F.);
#453=ORIENTED_EDGE('',*,*,#639,.F.);
#454=ORIENTED_EDGE('',*,*,#595,.F.);
#455=ORIENTED_EDGE('',*,*,#503,.T.);
#456=ORIENTED_EDGE('',*,*,#638,.T.);
#457=ORIENTED_EDGE('',*,*,#640,.F.);
#458=ORIENTED_EDGE('',*,*,#639,.T.);
#459=ORIENTED_EDGE('',*,*,#624,.F.);
#460=ORIENTED_EDGE('',*,*,#596,.F.);
#461=ORIENTED_EDGE('',*,*,#640,.T.);
#462=ORIENTED_EDGE('',*,*,#600,.F.);
#463=ORIENTED_EDGE('',*,*,#609,.F.);
#464=ORIENTED_EDGE('',*,*,#614,.F.);
#465=ORIENTED_EDGE('',*,*,#621,.F.);
#466=ORIENTED_EDGE('',*,*,#510,.F.);
#467=ORIENTED_EDGE('',*,*,#526,.F.);
#468=ORIENTED_EDGE('',*,*,#574,.F.);
#469=ORIENTED_EDGE('',*,*,#641,.F.);
#470=ORIENTED_EDGE('',*,*,#484,.F.);
#471=ORIENTED_EDGE('',*,*,#522,.F.);
#472=ORIENTED_EDGE('',*,*,#486,.F.);
#473=ORIENTED_EDGE('',*,*,#642,.F.);
#474=ORIENTED_EDGE('',*,*,#569,.F.);
#475=ORIENTED_EDGE('',*,*,#485,.T.);
#476=ORIENTED_EDGE('',*,*,#641,.T.);
#477=ORIENTED_EDGE('',*,*,#643,.F.);
#478=ORIENTED_EDGE('',*,*,#642,.T.);
#479=ORIENTED_EDGE('',*,*,#575,.F.);
#480=ORIENTED_EDGE('',*,*,#570,.F.);
#481=ORIENTED_EDGE('',*,*,#643,.T.);
#482=ORIENTED_EDGE('',*,*,#573,.F.);
#483=EDGE_CURVE('',#644,#645,#759,.T.);
#484=EDGE_CURVE('',#644,#646,#760,.T.);
#485=EDGE_CURVE('',#647,#646,#68,.T.);
#486=EDGE_CURVE('',#647,#648,#761,.F.);
#487=EDGE_CURVE('',#649,#648,#762,.T.);
#488=EDGE_CURVE('',#649,#650,#69,.T.);
#489=EDGE_CURVE('',#651,#650,#763,.T.);
#490=EDGE_CURVE('',#651,#652,#70,.T.);
#491=EDGE_CURVE('',#652,#653,#764,.T.);
#492=EDGE_CURVE('',#653,#645,#71,.T.);
#493=EDGE_CURVE('',#654,#654,#72,.F.);
#494=EDGE_CURVE('',#655,#655,#73,.F.);
#495=EDGE_CURVE('',#656,#656,#74,.F.);
#496=EDGE_CURVE('',#657,#657,#75,.F.);
#497=EDGE_CURVE('',#658,#658,#76,.F.);
#498=EDGE_CURVE('',#659,#659,#77,.F.);
#499=EDGE_CURVE('',#660,#660,#78,.F.);
#500=EDGE_CURVE('',#661,#661,#79,.F.);
#501=EDGE_CURVE('',#662,#663,#80,.T.);
#502=EDGE_CURVE('',#662,#664,#765,.F.);
#503=EDGE_CURVE('',#665,#664,#81,.T.);
#504=EDGE_CURVE('',#665,#666,#766,.F.);
#505=EDGE_CURVE('',#667,#666,#82,.T.);
#506=EDGE_CURVE('',#667,#668,#767,.T.);
#507=EDGE_CURVE('',#669,#668,#83,.T.);
#508=EDGE_CURVE('',#669,#663,#768,.T.);
#509=EDGE_CURVE('',#670,#671,#769,.T.);
#510=EDGE_CURVE('',#670,#672,#770,.T.);
#511=EDGE_CURVE('',#672,#673,#771,.T.);
#512=EDGE_CURVE('',#673,#671,#772,.F.);
#513=EDGE_CURVE('',#674,#675,#773,.T.);
#514=EDGE_CURVE('',#675,#676,#774,.F.);
#515=EDGE_CURVE('',#676,#677,#775,.F.);
#516=EDGE_CURVE('',#677,#674,#776,.T.);
#517=EDGE_CURVE('',#678,#679,#777,.T.);
#518=EDGE_CURVE('',#679,#680,#778,.T.);
#519=EDGE_CURVE('',#681,#680,#779,.T.);
#520=EDGE_CURVE('',#678,#681,#780,.T.);
#521=EDGE_CURVE('',#680,#648,#781,.F.);
#522=EDGE_CURVE('',#648,#682,#84,.F.);
#523=EDGE_CURVE('',#683,#682,#782,.T.);
#524=EDGE_CURVE('',#683,#681,#783,.T.);
#525=EDGE_CURVE('',#684,#685,#784,.T.);
#526=EDGE_CURVE('',#685,#644,#85,.F.);
#527=EDGE_CURVE('',#644,#686,#785,.F.);
#528=EDGE_CURVE('',#686,#687,#786,.F.);
#529=EDGE_CURVE('',#687,#684,#787,.T.);
#530=EDGE_CURVE('',#688,#689,#788,.T.);
#531=EDGE_CURVE('',#689,#690,#789,.F.);
#532=EDGE_CURVE('',#690,#691,#86,.T.);
#533=EDGE_CURVE('',#691,#692,#790,.T.);
#534=EDGE_CURVE('',#692,#693,#791,.T.);
#535=EDGE_CURVE('',#693,#694,#792,.F.);
#536=EDGE_CURVE('',#694,#688,#793,.T.);
#537=EDGE_CURVE('',#695,#695,#87,.T.);
#538=EDGE_CURVE('',#696,#696,#88,.T.);
#539=EDGE_CURVE('',#697,#697,#89,.T.);
#540=EDGE_CURVE('',#698,#698,#90,.T.);
#541=EDGE_CURVE('',#699,#699,#91,.T.);
#542=EDGE_CURVE('',#700,#700,#92,.T.);
#543=EDGE_CURVE('',#701,#701,#93,.T.);
#544=EDGE_CURVE('',#702,#702,#94,.T.);
#545=EDGE_CURVE('',#703,#703,#95,.T.);
#546=EDGE_CURVE('',#704,#704,#96,.T.);
#547=EDGE_CURVE('',#705,#705,#97,.T.);
#548=EDGE_CURVE('',#706,#706,#98,.T.);
#549=EDGE_CURVE('',#707,#707,#99,.T.);
#550=EDGE_CURVE('',#708,#708,#100,.T.);
#551=EDGE_CURVE('',#709,#709,#101,.T.);
#552=EDGE_CURVE('',#710,#710,#102,.T.);
#553=EDGE_CURVE('',#711,#711,#103,.T.);
#554=EDGE_CURVE('',#712,#712,#104,.T.);
#555=EDGE_CURVE('',#713,#713,#105,.T.);
#556=EDGE_CURVE('',#714,#714,#106,.T.);
#557=EDGE_CURVE('',#715,#715,#107,.T.);
#558=EDGE_CURVE('',#716,#716,#108,.T.);
#559=EDGE_CURVE('',#717,#717,#109,.T.);
#560=EDGE_CURVE('',#718,#718,#110,.T.);
#561=EDGE_CURVE('',#719,#719,#111,.T.);
#562=EDGE_CURVE('',#720,#720,#112,.T.);
#563=EDGE_CURVE('',#721,#721,#113,.T.);
#564=EDGE_CURVE('',#722,#722,#114,.T.);
#565=EDGE_CURVE('',#723,#723,#115,.T.);
#566=EDGE_CURVE('',#724,#724,#116,.T.);
#567=EDGE_CURVE('',#725,#725,#117,.T.);
#568=EDGE_CURVE('',#726,#726,#118,.T.);
#569=EDGE_CURVE('',#682,#727,#794,.T.);
#570=EDGE_CURVE('',#727,#728,#795,.F.);
#571=EDGE_CURVE('',#683,#728,#796,.T.);
#572=EDGE_CURVE('',#684,#729,#797,.T.);
#573=EDGE_CURVE('',#729,#730,#798,.T.);
#574=EDGE_CURVE('',#730,#685,#799,.F.);
#575=EDGE_CURVE('',#728,#729,#119,.T.);
#576=EDGE_CURVE('',#687,#674,#120,.T.);
#577=EDGE_CURVE('',#677,#678,#121,.F.);
#578=EDGE_CURVE('',#676,#679,#122,.F.);
#579=EDGE_CURVE('',#686,#675,#123,.F.);
#580=EDGE_CURVE('',#645,#693,#124,.T.);
#581=EDGE_CURVE('',#693,#653,#125,.T.);
#582=EDGE_CURVE('',#694,#652,#126,.T.);
#583=EDGE_CURVE('',#686,#692,#127,.T.);
#584=EDGE_CURVE('',#694,#651,#128,.T.);
#585=EDGE_CURVE('',#675,#692,#129,.T.);
#586=EDGE_CURVE('',#688,#650,#130,.T.);
#587=EDGE_CURVE('',#676,#691,#131,.T.);
#588=EDGE_CURVE('',#688,#649,#132,.T.);
#589=EDGE_CURVE('',#679,#690,#133,.T.);
#590=EDGE_CURVE('',#689,#680,#12,.F.);
#591=EDGE_CURVE('',#731,#732,#800,.F.);
#592=EDGE_CURVE('',#732,#733,#801,.F.);
#593=EDGE_CURVE('',#733,#734,#802,.T.);
#594=EDGE_CURVE('',#734,#731,#803,.T.);
#595=EDGE_CURVE('',#735,#736,#804,.T.);
#596=EDGE_CURVE('',#736,#737,#805,.F.);
#597=EDGE_CURVE('',#738,#737,#806,.T.);
#598=EDGE_CURVE('',#738,#735,#807,.T.);
#599=EDGE_CURVE('',#739,#740,#808,.T.);
#600=EDGE_CURVE('',#739,#741,#809,.T.);
#601=EDGE_CURVE('',#741,#742,#810,.T.);
#602=EDGE_CURVE('',#742,#740,#811,.F.);
#603=EDGE_CURVE('',#743,#744,#812,.T.);
#604=EDGE_CURVE('',#744,#745,#813,.T.);
#605=EDGE_CURVE('',#745,#746,#814,.F.);
#606=EDGE_CURVE('',#746,#743,#815,.F.);
#607=EDGE_CURVE('',#747,#747,#134,.T.);
#608=EDGE_CURVE('',#748,#749,#816,.T.);
#609=EDGE_CURVE('',#748,#739,#135,.T.);
#610=EDGE_CURVE('',#740,#750,#136,.T.);
#611=EDGE_CURVE('',#751,#750,#817,.T.);
#612=EDGE_CURVE('',#749,#751,#818,.T.);
#613=EDGE_CURVE('',#752,#753,#819,.T.);
#614=EDGE_CURVE('',#752,#748,#820,.T.);
#615=EDGE_CURVE('',#753,#749,#821,.T.);
#616=EDGE_CURVE('',#754,#751,#822,.T.);
#617=EDGE_CURVE('',#753,#754,#823,.T.);
#618=EDGE_CURVE('',#750,#755,#824,.T.);
#619=EDGE_CURVE('',#754,#755,#825,.T.);
#620=EDGE_CURVE('',#756,#756,#137,.T.);
#621=EDGE_CURVE('',#672,#752,#138,.F.);
#622=EDGE_CURVE('',#755,#673,#139,.F.);
#623=EDGE_CURVE('',#757,#757,#140,.T.);
#624=EDGE_CURVE('',#737,#670,#141,.T.);
#625=EDGE_CURVE('',#671,#744,#142,.T.);
#626=EDGE_CURVE('',#743,#734,#143,.T.);
#627=EDGE_CURVE('',#733,#738,#144,.T.);
#628=EDGE_CURVE('',#758,#758,#145,.T.);
#629=EDGE_CURVE('',#731,#746,#146,.F.);
#630=EDGE_CURVE('',#731,#668,#147,.F.);
#631=EDGE_CURVE('',#669,#746,#148,.F.);
#632=EDGE_CURVE('',#745,#742,#149,.F.);
#633=EDGE_CURVE('',#663,#745,#150,.T.);
#634=EDGE_CURVE('',#732,#667,#151,.T.);
#635=EDGE_CURVE('',#735,#732,#152,.F.);
#636=EDGE_CURVE('',#662,#742,#153,.F.);
#637=EDGE_CURVE('',#735,#666,#154,.F.);
#638=EDGE_CURVE('',#664,#741,#155,.T.);
#639=EDGE_CURVE('',#736,#665,#156,.T.);
#640=EDGE_CURVE('',#736,#741,#157,.T.);
#641=EDGE_CURVE('',#646,#730,#158,.T.);
#642=EDGE_CURVE('',#727,#647,#159,.T.);
#643=EDGE_CURVE('',#727,#730,#160,.T.);
#644=VERTEX_POINT('',#1941);
#645=VERTEX_POINT('',#1942);
#646=VERTEX_POINT('',#1944);
#647=VERTEX_POINT('',#1946);
#648=VERTEX_POINT('',#1948);
#649=VERTEX_POINT('',#1950);
#650=VERTEX_POINT('',#1952);
#651=VERTEX_POINT('',#1954);
#652=VERTEX_POINT('',#1956);
#653=VERTEX_POINT('',#1958);
#654=VERTEX_POINT('',#1961);
#655=VERTEX_POINT('',#1963);
#656=VERTEX_POINT('',#1965);
#657=VERTEX_POINT('',#1967);
#658=VERTEX_POINT('',#1969);
#659=VERTEX_POINT('',#1971);
#660=VERTEX_POINT('',#1973);
#661=VERTEX_POINT('',#1975);
#662=VERTEX_POINT('',#1977);
#663=VERTEX_POINT('',#1978);
#664=VERTEX_POINT('',#1980);
#665=VERTEX_POINT('',#1982);
#666=VERTEX_POINT('',#1984);
#667=VERTEX_POINT('',#1986);
#668=VERTEX_POINT('',#1988);
#669=VERTEX_POINT('',#1990);
#670=VERTEX_POINT('',#1994);
#671=VERTEX_POINT('',#1995);
#672=VERTEX_POINT('',#1997);
#673=VERTEX_POINT('',#1999);
#674=VERTEX_POINT('',#2003);
#675=VERTEX_POINT('',#2004);
#676=VERTEX_POINT('',#2006);
#677=VERTEX_POINT('',#2008);
#678=VERTEX_POINT('',#2012);
#679=VERTEX_POINT('',#2013);
#680=VERTEX_POINT('',#2015);
#681=VERTEX_POINT('',#2017);
#682=VERTEX_POINT('',#2022);
#683=VERTEX_POINT('',#2024);
#684=VERTEX_POINT('',#2028);
#685=VERTEX_POINT('',#2029);
#686=VERTEX_POINT('',#2032);
#687=VERTEX_POINT('',#2034);
#688=VERTEX_POINT('',#2038);
#689=VERTEX_POINT('',#2039);
#690=VERTEX_POINT('',#2041);
#691=VERTEX_POINT('',#2043);
#692=VERTEX_POINT('',#2045);
#693=VERTEX_POINT('',#2047);
#694=VERTEX_POINT('',#2049);
#695=VERTEX_POINT('',#2053);
#696=VERTEX_POINT('',#2055);
#697=VERTEX_POINT('',#2058);
#698=VERTEX_POINT('',#2061);
#699=VERTEX_POINT('',#2063);
#700=VERTEX_POINT('',#2066);
#701=VERTEX_POINT('',#2069);
#702=VERTEX_POINT('',#2071);
#703=VERTEX_POINT('',#2074);
#704=VERTEX_POINT('',#2077);
#705=VERTEX_POINT('',#2079);
#706=VERTEX_POINT('',#2082);
#707=VERTEX_POINT('',#2085);
#708=VERTEX_POINT('',#2087);
#709=VERTEX_POINT('',#2090);
#710=VERTEX_POINT('',#2093);
#711=VERTEX_POINT('',#2095);
#712=VERTEX_POINT('',#2098);
#713=VERTEX_POINT('',#2101);
#714=VERTEX_POINT('',#2103);
#715=VERTEX_POINT('',#2106);
#716=VERTEX_POINT('',#2109);
#717=VERTEX_POINT('',#2111);
#718=VERTEX_POINT('',#2114);
#719=VERTEX_POINT('',#2117);
#720=VERTEX_POINT('',#2121);
#721=VERTEX_POINT('',#2125);
#722=VERTEX_POINT('',#2129);
#723=VERTEX_POINT('',#2133);
#724=VERTEX_POINT('',#2137);
#725=VERTEX_POINT('',#2141);
#726=VERTEX_POINT('',#2145);
#727=VERTEX_POINT('',#2149);
#728=VERTEX_POINT('',#2151);
#729=VERTEX_POINT('',#2155);
#730=VERTEX_POINT('',#2157);
#731=VERTEX_POINT('',#2199);
#732=VERTEX_POINT('',#2200);
#733=VERTEX_POINT('',#2202);
#734=VERTEX_POINT('',#2204);
#735=VERTEX_POINT('',#2208);
#736=VERTEX_POINT('',#2209);
#737=VERTEX_POINT('',#2211);
#738=VERTEX_POINT('',#2213);
#739=VERTEX_POINT('',#2217);
#740=VERTEX_POINT('',#2218);
#741=VERTEX_POINT('',#2220);
#742=VERTEX_POINT('',#2222);
#743=VERTEX_POINT('',#2226);
#744=VERTEX_POINT('',#2227);
#745=VERTEX_POINT('',#2229);
#746=VERTEX_POINT('',#2231);
#747=VERTEX_POINT('',#2235);
#748=VERTEX_POINT('',#2237);
#749=VERTEX_POINT('',#2238);
#750=VERTEX_POINT('',#2241);
#751=VERTEX_POINT('',#2243);
#752=VERTEX_POINT('',#2247);
#753=VERTEX_POINT('',#2248);
#754=VERTEX_POINT('',#2253);
#755=VERTEX_POINT('',#2257);
#756=VERTEX_POINT('',#2261);
#757=VERTEX_POINT('',#2266);
#758=VERTEX_POINT('',#2274);
#759=LINE('',#1940,#826);
#760=LINE('',#1943,#827);
#761=LINE('',#1947,#828);
#762=LINE('',#1949,#829);
#763=LINE('',#1953,#830);
#764=LINE('',#1957,#831);
#765=LINE('',#1979,#832);
#766=LINE('',#1983,#833);
#767=LINE('',#1987,#834);
#768=LINE('',#1991,#835);
#769=LINE('',#1993,#836);
#770=LINE('',#1996,#837);
#771=LINE('',#1998,#838);
#772=LINE('',#2000,#839);
#773=LINE('',#2002,#840);
#774=LINE('',#2005,#841);
#775=LINE('',#2007,#842);
#776=LINE('',#2009,#843);
#777=LINE('',#2011,#844);
#778=LINE('',#2014,#845);
#779=LINE('',#2016,#846);
#780=LINE('',#2018,#847);
#781=LINE('',#2020,#848);
#782=LINE('',#2023,#849);
#783=LINE('',#2025,#850);
#784=LINE('',#2027,#851);
#785=LINE('',#2031,#852);
#786=LINE('',#2033,#853);
#787=LINE('',#2035,#854);
#788=LINE('',#2037,#855);
#789=LINE('',#2040,#856);
#790=LINE('',#2044,#857);
#791=LINE('',#2046,#858);
#792=LINE('',#2048,#859);
#793=LINE('',#2050,#860);
#794=LINE('',#2148,#861);
#795=LINE('',#2150,#862);
#796=LINE('',#2152,#863);
#797=LINE('',#2154,#864);
#798=LINE('',#2156,#865);
#799=LINE('',#2158,#866);
#800=LINE('',#2198,#867);
#801=LINE('',#2201,#868);
#802=LINE('',#2203,#869);
#803=LINE('',#2205,#870);
#804=LINE('',#2207,#871);
#805=LINE('',#2210,#872);
#806=LINE('',#2212,#873);
#807=LINE('',#2214,#874);
#808=LINE('',#2216,#875);
#809=LINE('',#2219,#876);
#810=LINE('',#2221,#877);
#811=LINE('',#2223,#878);
#812=LINE('',#2225,#879);
#813=LINE('',#2228,#880);
#814=LINE('',#2230,#881);
#815=LINE('',#2232,#882);
#816=LINE('',#2236,#883);
#817=LINE('',#2242,#884);
#818=LINE('',#2244,#885);
#819=LINE('',#2246,#886);
#820=LINE('',#2249,#887);
#821=LINE('',#2250,#888);
#822=LINE('',#2252,#889);
#823=LINE('',#2254,#890);
#824=LINE('',#2256,#891);
#825=LINE('',#2258,#892);
#826=VECTOR('',#1501,1.);
#827=VECTOR('',#1502,1.);
#828=VECTOR('',#1505,1.);
#829=VECTOR('',#1506,1.);
#830=VECTOR('',#1509,1.);
#831=VECTOR('',#1512,1.);
#832=VECTOR('',#1533,1.);
#833=VECTOR('',#1536,1.);
#834=VECTOR('',#1539,1.);
#835=VECTOR('',#1542,1.);
#836=VECTOR('',#1545,1.);
#837=VECTOR('',#1546,1.);
#838=VECTOR('',#1547,1.);
#839=VECTOR('',#1548,1.);
#840=VECTOR('',#1551,1.);
#841=VECTOR('',#1552,1.);
#842=VECTOR('',#1553,1.);
#843=VECTOR('',#1554,1.);
#844=VECTOR('',#1557,1.);
#845=VECTOR('',#1558,1.);
#846=VECTOR('',#1559,1.);
#847=VECTOR('',#1560,1.);
#848=VECTOR('',#1563,1.);
#849=VECTOR('',#1566,1.);
#850=VECTOR('',#1567,1.);
#851=VECTOR('',#1570,1.);
#852=VECTOR('',#1573,1.);
#853=VECTOR('',#1574,1.);
#854=VECTOR('',#1575,1.);
#855=VECTOR('',#1578,1.);
#856=VECTOR('',#1579,1.);
#857=VECTOR('',#1582,1.);
#858=VECTOR('',#1583,1.);
#859=VECTOR('',#1584,1.);
#860=VECTOR('',#1585,1.);
#861=VECTOR('',#1716,1.);
#862=VECTOR('',#1717,1.);
#863=VECTOR('',#1718,1.);
#864=VECTOR('',#1721,1.);
#865=VECTOR('',#1722,1.);
#866=VECTOR('',#1723,1.);
#867=VECTOR('',#1802,1.);
#868=VECTOR('',#1803,1.);
#869=VECTOR('',#1804,1.);
#870=VECTOR('',#1805,1.);
#871=VECTOR('',#1808,1.);
#872=VECTOR('',#1809,1.);
#873=VECTOR('',#1810,1.);
#874=VECTOR('',#1811,1.);
#875=VECTOR('',#1814,1.);
#876=VECTOR('',#1815,1.);
#877=VECTOR('',#1816,1.);
#878=VECTOR('',#1817,1.);
#879=VECTOR('',#1820,1.);
#880=VECTOR('',#1821,1.);
#881=VECTOR('',#1822,1.);
#882=VECTOR('',#1823,1.);
#883=VECTOR('',#1828,1.);
#884=VECTOR('',#1833,1.);
#885=VECTOR('',#1834,1.);
#886=VECTOR('',#1837,1.);
#887=VECTOR('',#1838,1.);
#888=VECTOR('',#1839,1.);
#889=VECTOR('',#1842,1.);
#890=VECTOR('',#1843,1.);
#891=VECTOR('',#1846,1.);
#892=VECTOR('',#1847,1.);
#893=EDGE_LOOP('',(#161,#162,#163,#164,#165,#166,#167,#168,#169,#170));
#894=EDGE_LOOP('',(#171));
#895=EDGE_LOOP('',(#172));
#896=EDGE_LOOP('',(#173));
#897=EDGE_LOOP('',(#174));
#898=EDGE_LOOP('',(#175));
#899=EDGE_LOOP('',(#176));
#900=EDGE_LOOP('',(#177));
#901=EDGE_LOOP('',(#178));
#902=EDGE_LOOP('',(#179,#180,#181,#182,#183,#184,#185,#186));
#903=EDGE_LOOP('',(#187,#188,#189,#190));
#904=EDGE_LOOP('',(#191,#192,#193,#194));
#905=EDGE_LOOP('',(#195,#196,#197,#198));
#906=EDGE_LOOP('',(#199,#200,#201,#202,#203));
#907=EDGE_LOOP('',(#204,#205,#206,#207,#208));
#908=EDGE_LOOP('',(#209,#210,#211,#212,#213,#214,#215));
#909=EDGE_LOOP('',(#216));
#910=EDGE_LOOP('',(#217));
#911=EDGE_LOOP('',(#218));
#912=EDGE_LOOP('',(#219));
#913=EDGE_LOOP('',(#220));
#914=EDGE_LOOP('',(#221));
#915=EDGE_LOOP('',(#222));
#916=EDGE_LOOP('',(#223));
#917=EDGE_LOOP('',(#224));
#918=EDGE_LOOP('',(#225));
#919=EDGE_LOOP('',(#226));
#920=EDGE_LOOP('',(#227));
#921=EDGE_LOOP('',(#228));
#922=EDGE_LOOP('',(#229));
#923=EDGE_LOOP('',(#230));
#924=EDGE_LOOP('',(#231));
#925=EDGE_LOOP('',(#232));
#926=EDGE_LOOP('',(#233));
#927=EDGE_LOOP('',(#234));
#928=EDGE_LOOP('',(#235));
#929=EDGE_LOOP('',(#236));
#930=EDGE_LOOP('',(#237));
#931=EDGE_LOOP('',(#238));
#932=EDGE_LOOP('',(#239));
#933=EDGE_LOOP('',(#240));
#934=EDGE_LOOP('',(#241));
#935=EDGE_LOOP('',(#242));
#936=EDGE_LOOP('',(#243));
#937=EDGE_LOOP('',(#244));
#938=EDGE_LOOP('',(#245));
#939=EDGE_LOOP('',(#246));
#940=EDGE_LOOP('',(#247));
#941=EDGE_LOOP('',(#248));
#942=EDGE_LOOP('',(#249));
#943=EDGE_LOOP('',(#250));
#944=EDGE_LOOP('',(#251));
#945=EDGE_LOOP('',(#252));
#946=EDGE_LOOP('',(#253));
#947=EDGE_LOOP('',(#254));
#948=EDGE_LOOP('',(#255));
#949=EDGE_LOOP('',(#256));
#950=EDGE_LOOP('',(#257));
#951=EDGE_LOOP('',(#258));
#952=EDGE_LOOP('',(#259));
#953=EDGE_LOOP('',(#260));
#954=EDGE_LOOP('',(#261));
#955=EDGE_LOOP('',(#262));
#956=EDGE_LOOP('',(#263));
#957=EDGE_LOOP('',(#264));
#958=EDGE_LOOP('',(#265));
#959=EDGE_LOOP('',(#266));
#960=EDGE_LOOP('',(#267));
#961=EDGE_LOOP('',(#268));
#962=EDGE_LOOP('',(#269));
#963=EDGE_LOOP('',(#270));
#964=EDGE_LOOP('',(#271));
#965=EDGE_LOOP('',(#272,#273,#274,#275));
#966=EDGE_LOOP('',(#276,#277,#278,#279));
#967=EDGE_LOOP('',(#280,#281,#282,#283,#284,#285,#286,#287,#288));
#968=EDGE_LOOP('',(#289,#290,#291,#292));
#969=EDGE_LOOP('',(#293,#294,#295,#296));
#970=EDGE_LOOP('',(#297,#298,#299));
#971=EDGE_LOOP('',(#300,#301,#302,#303));
#972=EDGE_LOOP('',(#304,#305,#306,#307,#308));
#973=EDGE_LOOP('',(#309,#310,#311));
#974=EDGE_LOOP('',(#312,#313,#314));
#975=EDGE_LOOP('',(#315,#316,#317,#318));
#976=EDGE_LOOP('',(#319,#320,#321,#322));
#977=EDGE_LOOP('',(#323,#324,#325));
#978=EDGE_LOOP('',(#326,#327,#328,#329));
#979=EDGE_LOOP('',(#330,#331,#332,#333,#334));
#980=EDGE_LOOP('',(#335,#336,#337,#338));
#981=EDGE_LOOP('',(#339));
#982=EDGE_LOOP('',(#340));
#983=EDGE_LOOP('',(#341));
#984=EDGE_LOOP('',(#342));
#985=EDGE_LOOP('',(#343));
#986=EDGE_LOOP('',(#344));
#987=EDGE_LOOP('',(#345));
#988=EDGE_LOOP('',(#346));
#989=EDGE_LOOP('',(#347));
#990=EDGE_LOOP('',(#348));
#991=EDGE_LOOP('',(#349));
#992=EDGE_LOOP('',(#350));
#993=EDGE_LOOP('',(#351));
#994=EDGE_LOOP('',(#352));
#995=EDGE_LOOP('',(#353));
#996=EDGE_LOOP('',(#354));
#997=EDGE_LOOP('',(#355,#356,#357,#358));
#998=EDGE_LOOP('',(#359,#360,#361,#362));
#999=EDGE_LOOP('',(#363,#364,#365,#366));
#1000=EDGE_LOOP('',(#367,#368,#369,#370));
#1001=EDGE_LOOP('',(#371));
#1002=EDGE_LOOP('',(#372,#373,#374,#375,#376,#377));
#1003=EDGE_LOOP('',(#378,#379,#380,#381));
#1004=EDGE_LOOP('',(#382,#383,#384,#385));
#1005=EDGE_LOOP('',(#386,#387,#388,#389));
#1006=EDGE_LOOP('',(#390));
#1007=EDGE_LOOP('',(#391,#392,#393,#394,#395,#396));
#1008=EDGE_LOOP('',(#397));
#1009=EDGE_LOOP('',(#398,#399,#400,#401,#402,#403,#404,#405));
#1010=EDGE_LOOP('',(#406));
#1011=EDGE_LOOP('',(#407));
#1012=EDGE_LOOP('',(#408));
#1013=EDGE_LOOP('',(#409));
#1014=EDGE_LOOP('',(#410));
#1015=EDGE_LOOP('',(#411,#412,#413,#414));
#1016=EDGE_LOOP('',(#415,#416,#417,#418));
#1017=EDGE_LOOP('',(#419,#420,#421,#422,#423,#424,#425,#426));
#1018=EDGE_LOOP('',(#427,#428,#429,#430));
#1019=EDGE_LOOP('',(#431,#432,#433,#434));
#1020=EDGE_LOOP('',(#435,#436,#437,#438));
#1021=EDGE_LOOP('',(#439,#440,#441,#442));
#1022=EDGE_LOOP('',(#443,#444,#445,#446));
#1023=EDGE_LOOP('',(#447,#448,#449,#450));
#1024=EDGE_LOOP('',(#451,#452,#453,#454));
#1025=EDGE_LOOP('',(#455,#456,#457,#458));
#1026=EDGE_LOOP('',(#459,#460,#461,#462,#463,#464,#465,#466));
#1027=EDGE_LOOP('',(#467,#468,#469,#470));
#1028=EDGE_LOOP('',(#471,#472,#473,#474));
#1029=EDGE_LOOP('',(#475,#476,#477,#478));
#1030=EDGE_LOOP('',(#479,#480,#481,#482));
#1031=FACE_BOUND('',#893,.T.);
#1032=FACE_BOUND('',#894,.T.);
#1033=FACE_BOUND('',#895,.T.);
#1034=FACE_BOUND('',#896,.T.);
#1035=FACE_BOUND('',#897,.T.);
#1036=FACE_BOUND('',#898,.T.);
#1037=FACE_BOUND('',#899,.T.);
#1038=FACE_BOUND('',#900,.T.);
#1039=FACE_BOUND('',#901,.T.);
#1040=FACE_BOUND('',#902,.T.);
#1041=FACE_BOUND('',#903,.T.);
#1042=FACE_BOUND('',#904,.T.);
#1043=FACE_BOUND('',#905,.T.);
#1044=FACE_BOUND('',#906,.T.);
#1045=FACE_BOUND('',#907,.T.);
#1046=FACE_BOUND('',#908,.T.);
#1047=FACE_BOUND('',#909,.T.);
#1048=FACE_BOUND('',#910,.T.);
#1049=FACE_BOUND('',#911,.T.);
#1050=FACE_BOUND('',#912,.T.);
#1051=FACE_BOUND('',#913,.T.);
#1052=FACE_BOUND('',#914,.T.);
#1053=FACE_BOUND('',#915,.T.);
#1054=FACE_BOUND('',#916,.T.);
#1055=FACE_BOUND('',#917,.T.);
#1056=FACE_BOUND('',#918,.T.);
#1057=FACE_BOUND('',#919,.T.);
#1058=FACE_BOUND('',#920,.T.);
#1059=FACE_BOUND('',#921,.T.);
#1060=FACE_BOUND('',#922,.T.);
#1061=FACE_BOUND('',#923,.T.);
#1062=FACE_BOUND('',#924,.T.);
#1063=FACE_BOUND('',#925,.T.);
#1064=FACE_BOUND('',#926,.T.);
#1065=FACE_BOUND('',#927,.T.);
#1066=FACE_BOUND('',#928,.T.);
#1067=FACE_BOUND('',#929,.T.);
#1068=FACE_BOUND('',#930,.T.);
#1069=FACE_BOUND('',#931,.T.);
#1070=FACE_BOUND('',#932,.T.);
#1071=FACE_BOUND('',#933,.T.);
#1072=FACE_BOUND('',#934,.T.);
#1073=FACE_BOUND('',#935,.T.);
#1074=FACE_BOUND('',#936,.T.);
#1075=FACE_BOUND('',#937,.T.);
#1076=FACE_BOUND('',#938,.T.);
#1077=FACE_BOUND('',#939,.T.);
#1078=FACE_BOUND('',#940,.T.);
#1079=FACE_BOUND('',#941,.T.);
#1080=FACE_BOUND('',#942,.T.);
#1081=FACE_BOUND('',#943,.T.);
#1082=FACE_BOUND('',#944,.T.);
#1083=FACE_BOUND('',#945,.T.);
#1084=FACE_BOUND('',#946,.T.);
#1085=FACE_BOUND('',#947,.T.);
#1086=FACE_BOUND('',#948,.T.);
#1087=FACE_BOUND('',#949,.T.);
#1088=FACE_BOUND('',#950,.T.);
#1089=FACE_BOUND('',#951,.T.);
#1090=FACE_BOUND('',#952,.T.);
#1091=FACE_BOUND('',#953,.T.);
#1092=FACE_BOUND('',#954,.T.);
#1093=FACE_BOUND('',#955,.T.);
#1094=FACE_BOUND('',#956,.T.);
#1095=FACE_BOUND('',#957,.T.);
#1096=FACE_BOUND('',#958,.T.);
#1097=FACE_BOUND('',#959,.T.);
#1098=FACE_BOUND('',#960,.T.);
#1099=FACE_BOUND('',#961,.T.);
#1100=FACE_BOUND('',#962,.T.);
#1101=FACE_BOUND('',#963,.T.);
#1102=FACE_BOUND('',#964,.T.);
#1103=FACE_BOUND('',#965,.T.);
#1104=FACE_BOUND('',#966,.T.);
#1105=FACE_BOUND('',#967,.T.);
#1106=FACE_BOUND('',#968,.T.);
#1107=FACE_BOUND('',#969,.T.);
#1108=FACE_BOUND('',#970,.T.);
#1109=FACE_BOUND('',#971,.T.);
#1110=FACE_BOUND('',#972,.T.);
#1111=FACE_BOUND('',#973,.T.);
#1112=FACE_BOUND('',#974,.T.);
#1113=FACE_BOUND('',#975,.T.);
#1114=FACE_BOUND('',#976,.T.);
#1115=FACE_BOUND('',#977,.T.);
#1116=FACE_BOUND('',#978,.T.);
#1117=FACE_BOUND('',#979,.T.);
#1118=FACE_BOUND('',#980,.T.);
#1119=FACE_BOUND('',#981,.T.);
#1120=FACE_BOUND('',#982,.T.);
#1121=FACE_BOUND('',#983,.T.);
#1122=FACE_BOUND('',#984,.T.);
#1123=FACE_BOUND('',#985,.T.);
#1124=FACE_BOUND('',#986,.T.);
#1125=FACE_BOUND('',#987,.T.);
#1126=FACE_BOUND('',#988,.T.);
#1127=FACE_BOUND('',#989,.T.);
#1128=FACE_BOUND('',#990,.T.);
#1129=FACE_BOUND('',#991,.T.);
#1130=FACE_BOUND('',#992,.T.);
#1131=FACE_BOUND('',#993,.T.);
#1132=FACE_BOUND('',#994,.T.);
#1133=FACE_BOUND('',#995,.T.);
#1134=FACE_BOUND('',#996,.T.);
#1135=FACE_BOUND('',#997,.T.);
#1136=FACE_BOUND('',#998,.T.);
#1137=FACE_BOUND('',#999,.T.);
#1138=FACE_BOUND('',#1000,.T.);
#1139=FACE_BOUND('',#1001,.T.);
#1140=FACE_BOUND('',#1002,.T.);
#1141=FACE_BOUND('',#1003,.T.);
#1142=FACE_BOUND('',#1004,.T.);
#1143=FACE_BOUND('',#1005,.T.);
#1144=FACE_BOUND('',#1006,.T.);
#1145=FACE_BOUND('',#1007,.T.);
#1146=FACE_BOUND('',#1008,.T.);
#1147=FACE_BOUND('',#1009,.T.);
#1148=FACE_BOUND('',#1010,.T.);
#1149=FACE_BOUND('',#1011,.T.);
#1150=FACE_BOUND('',#1012,.T.);
#1151=FACE_BOUND('',#1013,.T.);
#1152=FACE_BOUND('',#1014,.T.);
#1153=FACE_BOUND('',#1015,.T.);
#1154=FACE_BOUND('',#1016,.T.);
#1155=FACE_BOUND('',#1017,.T.);
#1156=FACE_BOUND('',#1018,.T.);
#1157=FACE_BOUND('',#1019,.T.);
#1158=FACE_BOUND('',#1020,.T.);
#1159=FACE_BOUND('',#1021,.T.);
#1160=FACE_BOUND('',#1022,.T.);
#1161=FACE_BOUND('',#1023,.T.);
#1162=FACE_BOUND('',#1024,.T.);
#1163=FACE_BOUND('',#1025,.T.);
#1164=FACE_BOUND('',#1026,.T.);
#1165=FACE_BOUND('',#1027,.T.);
#1166=FACE_BOUND('',#1028,.T.);
#1167=FACE_BOUND('',#1029,.T.);
#1168=FACE_BOUND('',#1030,.T.);
#1169=PLANE('',#1311);
#1170=PLANE('',#1328);
#1171=PLANE('',#1329);
#1172=PLANE('',#1330);
#1173=PLANE('',#1331);
#1174=PLANE('',#1333);
#1175=PLANE('',#1335);
#1176=PLANE('',#1340);
#1177=PLANE('',#1345);
#1178=PLANE('',#1350);
#1179=PLANE('',#1355);
#1180=PLANE('',#1360);
#1181=PLANE('',#1365);
#1182=PLANE('',#1370);
#1183=PLANE('',#1375);
#1184=PLANE('',#1379);
#1185=PLANE('',#1382);
#1186=PLANE('',#1385);
#1187=PLANE('',#1388);
#1188=PLANE('',#1391);
#1189=PLANE('',#1394);
#1190=PLANE('',#1397);
#1191=PLANE('',#1400);
#1192=PLANE('',#1401);
#1193=PLANE('',#1402);
#1194=PLANE('',#1403);
#1195=PLANE('',#1441);
#1196=PLANE('',#1442);
#1197=PLANE('',#1443);
#1198=PLANE('',#1444);
#1199=PLANE('',#1445);
#1200=PLANE('',#1449);
#1201=PLANE('',#1450);
#1202=PLANE('',#1451);
#1203=PLANE('',#1452);
#1204=PLANE('',#1456);
#1205=PLANE('',#1465);
#1206=ADVANCED_FACE('',(#1031,#1032,#1033,#1034,#1035,#1036,#1037,#1038,
#1039,#1040),#1169,.T.);
#1207=ADVANCED_FACE('',(#1041),#1170,.F.);
#1208=ADVANCED_FACE('',(#1042),#1171,.T.);
#1209=ADVANCED_FACE('',(#1043),#1172,.F.);
#1210=ADVANCED_FACE('',(#1044),#1173,.T.);
#1211=ADVANCED_FACE('',(#1045),#1174,.T.);
#1212=ADVANCED_FACE('',(#1046),#1175,.F.);
#1213=ADVANCED_FACE('',(#1047,#1048),#31,.T.);
#1214=ADVANCED_FACE('',(#1049,#1050),#1176,.T.);
#1215=ADVANCED_FACE('',(#1051,#1052),#32,.T.);
#1216=ADVANCED_FACE('',(#1053,#1054),#1177,.T.);
#1217=ADVANCED_FACE('',(#1055,#1056),#33,.T.);
#1218=ADVANCED_FACE('',(#1057,#1058),#1178,.T.);
#1219=ADVANCED_FACE('',(#1059,#1060),#34,.T.);
#1220=ADVANCED_FACE('',(#1061,#1062),#1179,.T.);
#1221=ADVANCED_FACE('',(#1063,#1064),#35,.T.);
#1222=ADVANCED_FACE('',(#1065,#1066),#1180,.T.);
#1223=ADVANCED_FACE('',(#1067,#1068),#36,.T.);
#1224=ADVANCED_FACE('',(#1069,#1070),#1181,.T.);
#1225=ADVANCED_FACE('',(#1071,#1072),#37,.T.);
#1226=ADVANCED_FACE('',(#1073,#1074),#1182,.T.);
#1227=ADVANCED_FACE('',(#1075,#1076),#38,.T.);
#1228=ADVANCED_FACE('',(#1077,#1078),#1183,.T.);
#1229=ADVANCED_FACE('',(#1079,#1080),#39,.F.);
#1230=ADVANCED_FACE('',(#1081),#1184,.T.);
#1231=ADVANCED_FACE('',(#1082,#1083),#40,.F.);
#1232=ADVANCED_FACE('',(#1084),#1185,.T.);
#1233=ADVANCED_FACE('',(#1085,#1086),#41,.F.);
#1234=ADVANCED_FACE('',(#1087),#1186,.T.);
#1235=ADVANCED_FACE('',(#1088,#1089),#42,.F.);
#1236=ADVANCED_FACE('',(#1090),#1187,.T.);
#1237=ADVANCED_FACE('',(#1091,#1092),#43,.F.);
#1238=ADVANCED_FACE('',(#1093),#1188,.T.);
#1239=ADVANCED_FACE('',(#1094,#1095),#44,.F.);
#1240=ADVANCED_FACE('',(#1096),#1189,.T.);
#1241=ADVANCED_FACE('',(#1097,#1098),#45,.F.);
#1242=ADVANCED_FACE('',(#1099),#1190,.T.);
#1243=ADVANCED_FACE('',(#1100,#1101),#46,.F.);
#1244=ADVANCED_FACE('',(#1102),#1191,.T.);
#1245=ADVANCED_FACE('',(#1103),#1192,.F.);
#1246=ADVANCED_FACE('',(#1104),#1193,.T.);
#1247=ADVANCED_FACE('',(#1105),#1194,.T.);
#1248=ADVANCED_FACE('',(#1106),#47,.F.);
#1249=ADVANCED_FACE('',(#1107),#48,.T.);
#1250=ADVANCED_FACE('',(#1108),#27,.T.);
#1251=ADVANCED_FACE('',(#1109),#49,.T.);
#1252=ADVANCED_FACE('',(#1110),#50,.T.);
#1253=ADVANCED_FACE('',(#1111),#28,.T.);
#1254=ADVANCED_FACE('',(#1112),#29,.T.);
#1255=ADVANCED_FACE('',(#1113),#51,.T.);
#1256=ADVANCED_FACE('',(#1114),#52,.T.);
#1257=ADVANCED_FACE('',(#1115),#30,.T.);
#1258=ADVANCED_FACE('',(#1116),#13,.T.);
#1259=ADVANCED_FACE('',(#1117),#53,.T.);
#1260=ADVANCED_FACE('',(#1118),#54,.T.);
#1261=ADVANCED_FACE('',(#1119,#1120),#14,.F.);
#1262=ADVANCED_FACE('',(#1121,#1122),#15,.F.);
#1263=ADVANCED_FACE('',(#1123,#1124),#16,.F.);
#1264=ADVANCED_FACE('',(#1125,#1126),#17,.F.);
#1265=ADVANCED_FACE('',(#1127,#1128),#18,.F.);
#1266=ADVANCED_FACE('',(#1129,#1130),#19,.F.);
#1267=ADVANCED_FACE('',(#1131,#1132),#20,.F.);
#1268=ADVANCED_FACE('',(#1133,#1134),#21,.F.);
#1269=ADVANCED_FACE('',(#1135),#1195,.T.);
#1270=ADVANCED_FACE('',(#1136),#1196,.F.);
#1271=ADVANCED_FACE('',(#1137),#1197,.F.);
#1272=ADVANCED_FACE('',(#1138),#1198,.T.);
#1273=ADVANCED_FACE('',(#1139,#1140),#1199,.T.);
#1274=ADVANCED_FACE('',(#1141),#1200,.F.);
#1275=ADVANCED_FACE('',(#1142),#1201,.F.);
#1276=ADVANCED_FACE('',(#1143),#1202,.F.);
#1277=ADVANCED_FACE('',(#1144,#1145),#1203,.F.);
#1278=ADVANCED_FACE('',(#1146,#1147),#1204,.T.);
#1279=ADVANCED_FACE('',(#1148,#1149),#55,.F.);
#1280=ADVANCED_FACE('',(#1150,#1151),#56,.F.);
#1281=ADVANCED_FACE('',(#1152),#1205,.T.);
#1282=ADVANCED_FACE('',(#1153),#57,.T.);
#1283=ADVANCED_FACE('',(#1154),#22,.F.);
#1284=ADVANCED_FACE('',(#1155),#58,.T.);
#1285=ADVANCED_FACE('',(#1156),#59,.F.);
#1286=ADVANCED_FACE('',(#1157),#60,.F.);
#1287=ADVANCED_FACE('',(#1158),#61,.T.);
#1288=ADVANCED_FACE('',(#1159),#23,.F.);
#1289=ADVANCED_FACE('',(#1160),#24,.F.);
#1290=ADVANCED_FACE('',(#1161),#62,.F.);
#1291=ADVANCED_FACE('',(#1162),#63,.F.);
#1292=ADVANCED_FACE('',(#1163),#25,.F.);
#1293=ADVANCED_FACE('',(#1164),#64,.T.);
#1294=ADVANCED_FACE('',(#1165),#65,.F.);
#1295=ADVANCED_FACE('',(#1166),#66,.F.);
#1296=ADVANCED_FACE('',(#1167),#26,.F.);
#1297=ADVANCED_FACE('',(#1168),#67,.T.);
#1298=CLOSED_SHELL('',(#1206,#1207,#1208,#1209,#1210,#1211,#1212,#1213,
#1214,#1215,#1216,#1217,#1218,#1219,#1220,#1221,#1222,#1223,#1224,#1225,
#1226,#1227,#1228,#1229,#1230,#1231,#1232,#1233,#1234,#1235,#1236,#1237,
#1238,#1239,#1240,#1241,#1242,#1243,#1244,#1245,#1246,#1247,#1248,#1249,
#1250,#1251,#1252,#1253,#1254,#1255,#1256,#1257,#1258,#1259,#1260,#1261,
#1262,#1263,#1264,#1265,#1266,#1267,#1268,#1269,#1270,#1271,#1272,#1273,
#1274,#1275,#1276,#1277,#1278,#1279,#1280,#1281,#1282,#1283,#1284,#1285,
#1286,#1287,#1288,#1289,#1290,#1291,#1292,#1293,#1294,#1295,#1296,#1297));
#1299=STYLED_ITEM('',(#1300),#1307);
#1300=PRESENTATION_STYLE_ASSIGNMENT((#1301));
#1301=SURFACE_STYLE_USAGE(.BOTH.,#1302);
#1302=SURFACE_SIDE_STYLE('',(#1303));
#1303=SURFACE_STYLE_FILL_AREA(#1304);
#1304=FILL_AREA_STYLE('',(#1305));
#1305=FILL_AREA_STYLE_COLOUR('',#1306);
#1306=DRAUGHTING_PRE_DEFINED_COLOUR('white');
#1307=MANIFOLD_SOLID_BREP('Part 1',#1298);
#1308=SHAPE_DEFINITION_REPRESENTATION(#2313,#1309);
#1309=SHAPE_REPRESENTATION('Part 1',(#1310),#2308);
#1310=AXIS2_PLACEMENT_3D('',#1938,#1497,#1498);
#1311=AXIS2_PLACEMENT_3D('',#1939,#1499,#1500);
#1312=AXIS2_PLACEMENT_3D('',#1945,#1503,#1504);
#1313=AXIS2_PLACEMENT_3D('',#1951,#1507,#1508);
#1314=AXIS2_PLACEMENT_3D('',#1955,#1510,#1511);
#1315=AXIS2_PLACEMENT_3D('',#1959,#1513,#1514);
#1316=AXIS2_PLACEMENT_3D('',#1960,#1515,#1516);
#1317=AXIS2_PLACEMENT_3D('',#1962,#1517,#1518);
#1318=AXIS2_PLACEMENT_3D('',#1964,#1519,#1520);
#1319=AXIS2_PLACEMENT_3D('',#1966,#1521,#1522);
#1320=AXIS2_PLACEMENT_3D('',#1968,#1523,#1524);
#1321=AXIS2_PLACEMENT_3D('',#1970,#1525,#1526);
#1322=AXIS2_PLACEMENT_3D('',#1972,#1527,#1528);
#1323=AXIS2_PLACEMENT_3D('',#1974,#1529,#1530);
#1324=AXIS2_PLACEMENT_3D('',#1976,#1531,#1532);
#1325=AXIS2_PLACEMENT_3D('',#1981,#1534,#1535);
#1326=AXIS2_PLACEMENT_3D('',#1985,#1537,#1538);
#1327=AXIS2_PLACEMENT_3D('',#1989,#1540,#1541);
#1328=AXIS2_PLACEMENT_3D('',#1992,#1543,#1544);
#1329=AXIS2_PLACEMENT_3D('',#2001,#1549,#1550);
#1330=AXIS2_PLACEMENT_3D('',#2010,#1555,#1556);
#1331=AXIS2_PLACEMENT_3D('',#2019,#1561,#1562);
#1332=AXIS2_PLACEMENT_3D('',#2021,#1564,#1565);
#1333=AXIS2_PLACEMENT_3D('',#2026,#1568,#1569);
#1334=AXIS2_PLACEMENT_3D('',#2030,#1571,#1572);
#1335=AXIS2_PLACEMENT_3D('',#2036,#1576,#1577);
#1336=AXIS2_PLACEMENT_3D('',#2042,#1580,#1581);
#1337=AXIS2_PLACEMENT_3D('',#2051,#1586,#1587);
#1338=AXIS2_PLACEMENT_3D('',#2052,#1588,#1589);
#1339=AXIS2_PLACEMENT_3D('',#2054,#1590,#1591);
#1340=AXIS2_PLACEMENT_3D('',#2056,#1592,#1593);
#1341=AXIS2_PLACEMENT_3D('',#2057,#1594,#1595);
#1342=AXIS2_PLACEMENT_3D('',#2059,#1596,#1597);
#1343=AXIS2_PLACEMENT_3D('',#2060,#1598,#1599);
#1344=AXIS2_PLACEMENT_3D('',#2062,#1600,#1601);
#1345=AXIS2_PLACEMENT_3D('',#2064,#1602,#1603);
#1346=AXIS2_PLACEMENT_3D('',#2065,#1604,#1605);
#1347=AXIS2_PLACEMENT_3D('',#2067,#1606,#1607);
#1348=AXIS2_PLACEMENT_3D('',#2068,#1608,#1609);
#1349=AXIS2_PLACEMENT_3D('',#2070,#1610,#1611);
#1350=AXIS2_PLACEMENT_3D('',#2072,#1612,#1613);
#1351=AXIS2_PLACEMENT_3D('',#2073,#1614,#1615);
#1352=AXIS2_PLACEMENT_3D('',#2075,#1616,#1617);
#1353=AXIS2_PLACEMENT_3D('',#2076,#1618,#1619);
#1354=AXIS2_PLACEMENT_3D('',#2078,#1620,#1621);
#1355=AXIS2_PLACEMENT_3D('',#2080,#1622,#1623);
#1356=AXIS2_PLACEMENT_3D('',#2081,#1624,#1625);
#1357=AXIS2_PLACEMENT_3D('',#2083,#1626,#1627);
#1358=AXIS2_PLACEMENT_3D('',#2084,#1628,#1629);
#1359=AXIS2_PLACEMENT_3D('',#2086,#1630,#1631);
#1360=AXIS2_PLACEMENT_3D('',#2088,#1632,#1633);
#1361=AXIS2_PLACEMENT_3D('',#2089,#1634,#1635);
#1362=AXIS2_PLACEMENT_3D('',#2091,#1636,#1637);
#1363=AXIS2_PLACEMENT_3D('',#2092,#1638,#1639);
#1364=AXIS2_PLACEMENT_3D('',#2094,#1640,#1641);
#1365=AXIS2_PLACEMENT_3D('',#2096,#1642,#1643);
#1366=AXIS2_PLACEMENT_3D('',#2097,#1644,#1645);
#1367=AXIS2_PLACEMENT_3D('',#2099,#1646,#1647);
#1368=AXIS2_PLACEMENT_3D('',#2100,#1648,#1649);
#1369=AXIS2_PLACEMENT_3D('',#2102,#1650,#1651);
#1370=AXIS2_PLACEMENT_3D('',#2104,#1652,#1653);
#1371=AXIS2_PLACEMENT_3D('',#2105,#1654,#1655);
#1372=AXIS2_PLACEMENT_3D('',#2107,#1656,#1657);
#1373=AXIS2_PLACEMENT_3D('',#2108,#1658,#1659);
#1374=AXIS2_PLACEMENT_3D('',#2110,#1660,#1661);
#1375=AXIS2_PLACEMENT_3D('',#2112,#1662,#1663);
#1376=AXIS2_PLACEMENT_3D('',#2113,#1664,#1665);
#1377=AXIS2_PLACEMENT_3D('',#2115,#1666,#1667);
#1378=AXIS2_PLACEMENT_3D('',#2116,#1668,#1669);
#1379=AXIS2_PLACEMENT_3D('',#2118,#1670,#1671);
#1380=AXIS2_PLACEMENT_3D('',#2119,#1672,#1673);
#1381=AXIS2_PLACEMENT_3D('',#2120,#1674,#1675);
#1382=AXIS2_PLACEMENT_3D('',#2122,#1676,#1677);
#1383=AXIS2_PLACEMENT_3D('',#2123,#1678,#1679);
#1384=AXIS2_PLACEMENT_3D('',#2124,#1680,#1681);
#1385=AXIS2_PLACEMENT_3D('',#2126,#1682,#1683);
#1386=AXIS2_PLACEMENT_3D('',#2127,#1684,#1685);
#1387=AXIS2_PLACEMENT_3D('',#2128,#1686,#1687);
#1388=AXIS2_PLACEMENT_3D('',#2130,#1688,#1689);
#1389=AXIS2_PLACEMENT_3D('',#2131,#1690,#1691);
#1390=AXIS2_PLACEMENT_3D('',#2132,#1692,#1693);
#1391=AXIS2_PLACEMENT_3D('',#2134,#1694,#1695);
#1392=AXIS2_PLACEMENT_3D('',#2135,#1696,#1697);
#1393=AXIS2_PLACEMENT_3D('',#2136,#1698,#1699);
#1394=AXIS2_PLACEMENT_3D('',#2138,#1700,#1701);
#1395=AXIS2_PLACEMENT_3D('',#2139,#1702,#1703);
#1396=AXIS2_PLACEMENT_3D('',#2140,#1704,#1705);
#1397=AXIS2_PLACEMENT_3D('',#2142,#1706,#1707);
#1398=AXIS2_PLACEMENT_3D('',#2143,#1708,#1709);
#1399=AXIS2_PLACEMENT_3D('',#2144,#1710,#1711);
#1400=AXIS2_PLACEMENT_3D('',#2146,#1712,#1713);
#1401=AXIS2_PLACEMENT_3D('',#2147,#1714,#1715);
#1402=AXIS2_PLACEMENT_3D('',#2153,#1719,#1720);
#1403=AXIS2_PLACEMENT_3D('',#2159,#1724,#1725);
#1404=AXIS2_PLACEMENT_3D('',#2160,#1726,#1727);
#1405=AXIS2_PLACEMENT_3D('',#2161,#1728,#1729);
#1406=AXIS2_PLACEMENT_3D('',#2162,#1730,#1731);
#1407=AXIS2_PLACEMENT_3D('',#2163,#1732,#1733);
#1408=AXIS2_PLACEMENT_3D('',#2164,#1734,#1735);
#1409=AXIS2_PLACEMENT_3D('',#2165,#1736,#1737);
#1410=AXIS2_PLACEMENT_3D('',#2166,#1738,#1739);
#1411=AXIS2_PLACEMENT_3D('',#2167,#1740,#1741);
#1412=AXIS2_PLACEMENT_3D('',#2168,#1742,#1743);
#1413=AXIS2_PLACEMENT_3D('',#2169,#1744,#1745);
#1414=AXIS2_PLACEMENT_3D('',#2170,#1746,#1747);
#1415=AXIS2_PLACEMENT_3D('',#2171,#1748,#1749);
#1416=AXIS2_PLACEMENT_3D('',#2172,#1750,#1751);
#1417=AXIS2_PLACEMENT_3D('',#2173,#1752,#1753);
#1418=AXIS2_PLACEMENT_3D('',#2174,#1754,#1755);
#1419=AXIS2_PLACEMENT_3D('',#2175,#1756,#1757);
#1420=AXIS2_PLACEMENT_3D('',#2176,#1758,#1759);
#1421=AXIS2_PLACEMENT_3D('',#2177,#1760,#1761);
#1422=AXIS2_PLACEMENT_3D('',#2178,#1762,#1763);
#1423=AXIS2_PLACEMENT_3D('',#2179,#1764,#1765);
#1424=AXIS2_PLACEMENT_3D('',#2180,#1766,#1767);
#1425=AXIS2_PLACEMENT_3D('',#2181,#1768,#1769);
#1426=AXIS2_PLACEMENT_3D('',#2182,#1770,#1771);
#1427=AXIS2_PLACEMENT_3D('',#2183,#1772,#1773);
#1428=AXIS2_PLACEMENT_3D('',#2184,#1774,#1775);
#1429=AXIS2_PLACEMENT_3D('',#2185,#1776,#1777);
#1430=AXIS2_PLACEMENT_3D('',#2186,#1778,#1779);
#1431=AXIS2_PLACEMENT_3D('',#2187,#1780,#1781);
#1432=AXIS2_PLACEMENT_3D('',#2188,#1782,#1783);
#1433=AXIS2_PLACEMENT_3D('',#2189,#1784,#1785);
#1434=AXIS2_PLACEMENT_3D('',#2190,#1786,#1787);
#1435=AXIS2_PLACEMENT_3D('',#2191,#1788,#1789);
#1436=AXIS2_PLACEMENT_3D('',#2192,#1790,#1791);
#1437=AXIS2_PLACEMENT_3D('',#2193,#1792,#1793);
#1438=AXIS2_PLACEMENT_3D('',#2194,#1794,#1795);
#1439=AXIS2_PLACEMENT_3D('',#2195,#1796,#1797);
#1440=AXIS2_PLACEMENT_3D('',#2196,#1798,#1799);
#1441=AXIS2_PLACEMENT_3D('',#2197,#1800,#1801);
#1442=AXIS2_PLACEMENT_3D('',#2206,#1806,#1807);
#1443=AXIS2_PLACEMENT_3D('',#2215,#1812,#1813);
#1444=AXIS2_PLACEMENT_3D('',#2224,#1818,#1819);
#1445=AXIS2_PLACEMENT_3D('',#2233,#1824,#1825);
#1446=AXIS2_PLACEMENT_3D('',#2234,#1826,#1827);
#1447=AXIS2_PLACEMENT_3D('',#2239,#1829,#1830);
#1448=AXIS2_PLACEMENT_3D('',#2240,#1831,#1832);
#1449=AXIS2_PLACEMENT_3D('',#2245,#1835,#1836);
#1450=AXIS2_PLACEMENT_3D('',#2251,#1840,#1841);
#1451=AXIS2_PLACEMENT_3D('',#2255,#1844,#1845);
#1452=AXIS2_PLACEMENT_3D('',#2259,#1848,#1849);
#1453=AXIS2_PLACEMENT_3D('',#2260,#1850,#1851);
#1454=AXIS2_PLACEMENT_3D('',#2262,#1852,#1853);
#1455=AXIS2_PLACEMENT_3D('',#2263,#1854,#1855);
#1456=AXIS2_PLACEMENT_3D('',#2264,#1856,#1857);
#1457=AXIS2_PLACEMENT_3D('',#2265,#1858,#1859);
#1458=AXIS2_PLACEMENT_3D('',#2267,#1860,#1861);
#1459=AXIS2_PLACEMENT_3D('',#2268,#1862,#1863);
#1460=AXIS2_PLACEMENT_3D('',#2269,#1864,#1865);
#1461=AXIS2_PLACEMENT_3D('',#2270,#1866,#1867);
#1462=AXIS2_PLACEMENT_3D('',#2271,#1868,#1869);
#1463=AXIS2_PLACEMENT_3D('',#2272,#1870,#1871);
#1464=AXIS2_PLACEMENT_3D('',#2273,#1872,#1873);
#1465=AXIS2_PLACEMENT_3D('',#2275,#1874,#1875);
#1466=AXIS2_PLACEMENT_3D('',#2276,#1876,#1877);
#1467=AXIS2_PLACEMENT_3D('',#2277,#1878,#1879);
#1468=AXIS2_PLACEMENT_3D('',#2278,#1880,#1881);
#1469=AXIS2_PLACEMENT_3D('',#2279,#1882,#1883);
#1470=AXIS2_PLACEMENT_3D('',#2280,#1884,#1885);
#1471=AXIS2_PLACEMENT_3D('',#2281,#1886,#1887);
#1472=AXIS2_PLACEMENT_3D('',#2282,#1888,#1889);
#1473=AXIS2_PLACEMENT_3D('',#2283,#1890,#1891);
#1474=AXIS2_PLACEMENT_3D('',#2284,#1892,#1893);
#1475=AXIS2_PLACEMENT_3D('',#2285,#1894,#1895);
#1476=AXIS2_PLACEMENT_3D('',#2286,#1896,#1897);
#1477=AXIS2_PLACEMENT_3D('',#2287,#1898,#1899);
#1478=AXIS2_PLACEMENT_3D('',#2288,#1900,#1901);
#1479=AXIS2_PLACEMENT_3D('',#2289,#1902,#1903);
#1480=AXIS2_PLACEMENT_3D('',#2290,#1904,#1905);
#1481=AXIS2_PLACEMENT_3D('',#2291,#1906,#1907);
#1482=AXIS2_PLACEMENT_3D('',#2292,#1908,#1909);
#1483=AXIS2_PLACEMENT_3D('',#2293,#1910,#1911);
#1484=AXIS2_PLACEMENT_3D('',#2294,#1912,#1913);
#1485=AXIS2_PLACEMENT_3D('',#2295,#1914,#1915);
#1486=AXIS2_PLACEMENT_3D('',#2296,#1916,#1917);
#1487=AXIS2_PLACEMENT_3D('',#2297,#1918,#1919);
#1488=AXIS2_PLACEMENT_3D('',#2298,#1920,#1921);
#1489=AXIS2_PLACEMENT_3D('',#2299,#1922,#1923);
#1490=AXIS2_PLACEMENT_3D('',#2300,#1924,#1925);
#1491=AXIS2_PLACEMENT_3D('',#2301,#1926,#1927);
#1492=AXIS2_PLACEMENT_3D('',#2302,#1928,#1929);
#1493=AXIS2_PLACEMENT_3D('',#2303,#1930,#1931);
#1494=AXIS2_PLACEMENT_3D('',#2304,#1932,#1933);
#1495=AXIS2_PLACEMENT_3D('',#2305,#1934,#1935);
#1496=AXIS2_PLACEMENT_3D('',#2306,#1936,#1937);
#1497=DIRECTION('',(0.,0.,1.));
#1498=DIRECTION('',(1.,0.,0.));
#1499=DIRECTION('',(0.,0.,1.));
#1500=DIRECTION('',(1.,0.,0.));
#1501=DIRECTION('',(0.,1.,0.));
#1502=DIRECTION('',(1.,0.,0.));
#1503=DIRECTION('',(0.,0.,1.));
#1504=DIRECTION('',(1.,0.,0.));
#1505=DIRECTION('',(0.,1.,0.));
#1506=DIRECTION('',(-1.,0.,0.));
#1507=DIRECTION('',(0.,0.,1.));
#1508=DIRECTION('',(1.,0.,0.));
#1509=DIRECTION('',(2.31296463463574E-16,-1.,0.));
#1510=DIRECTION('',(0.,0.,1.));
#1511=DIRECTION('',(1.,0.,0.));
#1512=DIRECTION('',(-1.,-1.7347234759768E-16,0.));
#1513=DIRECTION('',(0.,0.,1.));
#1514=DIRECTION('',(1.,0.,0.));
#1515=DIRECTION('',(0.,0.,1.));
#1516=DIRECTION('',(1.,0.,0.));
#1517=DIRECTION('',(0.,0.,1.));
#1518=DIRECTION('',(1.,0.,0.));
#1519=DIRECTION('',(0.,0.,1.));
#1520=DIRECTION('',(1.,0.,0.));
#1521=DIRECTION('',(0.,0.,1.));
#1522=DIRECTION('',(1.,0.,0.));
#1523=DIRECTION('',(0.,0.,1.));
#1524=DIRECTION('',(1.,0.,0.));
#1525=DIRECTION('',(0.,0.,1.));
#1526=DIRECTION('',(1.,0.,0.));
#1527=DIRECTION('',(0.,0.,1.));
#1528=DIRECTION('',(1.,0.,0.));
#1529=DIRECTION('',(0.,0.,1.));
#1530=DIRECTION('',(1.,0.,0.));
#1531=DIRECTION('',(0.,0.,1.));
#1532=DIRECTION('',(1.,0.,0.));
#1533=DIRECTION('',(1.,0.,0.));
#1534=DIRECTION('',(0.,0.,1.));
#1535=DIRECTION('',(1.,0.,0.));
#1536=DIRECTION('',(0.,-1.,0.));
#1537=DIRECTION('',(0.,0.,1.));
#1538=DIRECTION('',(1.,0.,0.));
#1539=DIRECTION('',(1.,1.73472347597681E-16,0.));
#1540=DIRECTION('',(0.,0.,1.));
#1541=DIRECTION('',(1.,0.,0.));
#1542=DIRECTION('',(1.7347234759768E-16,-1.,0.));
#1543=DIRECTION('',(0.,1.,0.));
#1544=DIRECTION('',(0.,0.,1.));
#1545=DIRECTION('',(1.,0.,0.));
#1546=DIRECTION('',(0.,0.,-1.));
#1547=DIRECTION('',(1.,0.,0.));
#1548=DIRECTION('',(0.,0.,-1.));
#1549=DIRECTION('',(0.,-1.,0.));
#1550=DIRECTION('',(0.,0.,-1.));
#1551=DIRECTION('',(0.,0.,-1.));
#1552=DIRECTION('',(-1.,0.,0.));
#1553=DIRECTION('',(0.,0.,-1.));
#1554=DIRECTION('',(-1.,0.,0.));
#1555=DIRECTION('',(1.,3.17811934530102E-16,0.));
#1556=DIRECTION('',(-3.17811934530102E-16,1.,0.));
#1557=DIRECTION('',(0.,0.,-1.));
#1558=DIRECTION('',(3.17811934530102E-16,-1.,0.));
#1559=DIRECTION('',(0.,0.,-1.));
#1560=DIRECTION('',(3.17811934530102E-16,-1.,0.));
#1561=DIRECTION('',(0.,-1.,0.));
#1562=DIRECTION('',(0.,0.,-1.));
#1563=DIRECTION('',(-1.,0.,0.));
#1564=DIRECTION('',(0.,-1.,0.));
#1565=DIRECTION('',(0.,0.,-1.));
#1566=DIRECTION('',(0.,0.,-1.));
#1567=DIRECTION('',(-1.,0.,0.));
#1568=DIRECTION('',(-1.,0.,0.));
#1569=DIRECTION('',(0.,0.,1.));
#1570=DIRECTION('',(0.,0.,-1.));
#1571=DIRECTION('',(-1.,0.,0.));
#1572=DIRECTION('',(0.,0.,1.));
#1573=DIRECTION('',(0.,1.,0.));
#1574=DIRECTION('',(0.,0.,-1.));
#1575=DIRECTION('',(0.,1.,0.));
#1576=DIRECTION('',(0.,0.,1.));
#1577=DIRECTION('',(1.,0.,0.));
#1578=DIRECTION('',(-1.,0.,0.));
#1579=DIRECTION('',(3.17811934530102E-16,-1.,0.));
#1580=DIRECTION('',(0.,0.,1.));
#1581=DIRECTION('',(1.,0.,0.));
#1582=DIRECTION('',(-1.,0.,0.));
#1583=DIRECTION('',(0.,1.,0.));
#1584=DIRECTION('',(-1.,-1.7347234759768E-16,0.));
#1585=DIRECTION('',(2.31296463463574E-16,-1.,0.));
#1586=DIRECTION('',(0.,0.,-1.));
#1587=DIRECTION('',(-1.,0.,0.));
#1588=DIRECTION('',(0.,0.,1.));
#1589=DIRECTION('',(1.,0.,0.));
#1590=DIRECTION('',(0.,0.,1.));
#1591=DIRECTION('',(1.,0.,0.));
#1592=DIRECTION('',(0.,0.,1.));
#1593=DIRECTION('',(1.,0.,0.));
#1594=DIRECTION('',(0.,0.,1.));
#1595=DIRECTION('',(1.,0.,0.));
#1596=DIRECTION('',(0.,0.,-1.));
#1597=DIRECTION('',(-1.,0.,0.));
#1598=DIRECTION('',(0.,0.,1.));
#1599=DIRECTION('',(1.,0.,0.));
#1600=DIRECTION('',(0.,0.,1.));
#1601=DIRECTION('',(1.,0.,0.));
#1602=DIRECTION('',(0.,0.,1.));
#1603=DIRECTION('',(1.,0.,0.));
#1604=DIRECTION('',(0.,0.,1.));
#1605=DIRECTION('',(1.,0.,0.));
#1606=DIRECTION('',(0.,0.,-1.));
#1607=DIRECTION('',(-1.,0.,0.));
#1608=DIRECTION('',(0.,0.,1.));
#1609=DIRECTION('',(1.,0.,0.));
#1610=DIRECTION('',(0.,0.,1.));
#1611=DIRECTION('',(1.,0.,0.));
#1612=DIRECTION('',(0.,0.,1.));
#1613=DIRECTION('',(1.,0.,0.));
#1614=DIRECTION('',(0.,0.,1.));
#1615=DIRECTION('',(1.,0.,0.));
#1616=DIRECTION('',(0.,0.,-1.));
#1617=DIRECTION('',(-1.,0.,0.));
#1618=DIRECTION('',(0.,0.,1.));
#1619=DIRECTION('',(1.,0.,0.));
#1620=DIRECTION('',(0.,0.,1.));
#1621=DIRECTION('',(1.,0.,0.));
#1622=DIRECTION('',(0.,0.,1.));
#1623=DIRECTION('',(1.,0.,0.));
#1624=DIRECTION('',(0.,0.,1.));
#1625=DIRECTION('',(1.,0.,0.));
#1626=DIRECTION('',(0.,0.,-1.));
#1627=DIRECTION('',(-1.,0.,0.));
#1628=DIRECTION('',(0.,0.,1.));
#1629=DIRECTION('',(1.,0.,0.));
#1630=DIRECTION('',(0.,0.,1.));
#1631=DIRECTION('',(1.,0.,0.));
#1632=DIRECTION('',(0.,0.,1.));
#1633=DIRECTION('',(1.,0.,0.));
#1634=DIRECTION('',(0.,0.,1.));
#1635=DIRECTION('',(1.,0.,0.));
#1636=DIRECTION('',(0.,0.,-1.));
#1637=DIRECTION('',(-1.,0.,0.));
#1638=DIRECTION('',(0.,0.,1.));
#1639=DIRECTION('',(1.,0.,0.));
#1640=DIRECTION('',(0.,0.,1.));
#1641=DIRECTION('',(1.,0.,0.));
#1642=DIRECTION('',(0.,0.,1.));
#1643=DIRECTION('',(1.,0.,0.));
#1644=DIRECTION('',(0.,0.,1.));
#1645=DIRECTION('',(1.,0.,0.));
#1646=DIRECTION('',(0.,0.,-1.));
#1647=DIRECTION('',(-1.,0.,0.));
#1648=DIRECTION('',(0.,0.,1.));
#1649=DIRECTION('',(1.,0.,0.));
#1650=DIRECTION('',(0.,0.,1.));
#1651=DIRECTION('',(1.,0.,0.));
#1652=DIRECTION('',(0.,0.,1.));
#1653=DIRECTION('',(1.,0.,0.));
#1654=DIRECTION('',(0.,0.,1.));
#1655=DIRECTION('',(1.,0.,0.));
#1656=DIRECTION('',(0.,0.,-1.));
#1657=DIRECTION('',(-1.,0.,0.));
#1658=DIRECTION('',(0.,0.,1.));
#1659=DIRECTION('',(1.,0.,0.));
#1660=DIRECTION('',(0.,0.,1.));
#1661=DIRECTION('',(1.,0.,0.));
#1662=DIRECTION('',(0.,0.,1.));
#1663=DIRECTION('',(1.,0.,0.));
#1664=DIRECTION('',(0.,0.,1.));
#1665=DIRECTION('',(1.,0.,0.));
#1666=DIRECTION('',(0.,0.,1.));
#1667=DIRECTION('',(1.,0.,0.));
#1668=DIRECTION('',(0.,0.,1.));
#1669=DIRECTION('',(1.,0.,0.));
#1670=DIRECTION('',(0.,0.,1.));
#1671=DIRECTION('',(1.,0.,0.));
#1672=DIRECTION('',(0.,0.,1.));
#1673=DIRECTION('',(1.,0.,0.));
#1674=DIRECTION('',(0.,0.,1.));
#1675=DIRECTION('',(1.,0.,0.));
#1676=DIRECTION('',(0.,0.,1.));
#1677=DIRECTION('',(1.,0.,0.));
#1678=DIRECTION('',(0.,0.,1.));
#1679=DIRECTION('',(1.,0.,0.));
#1680=DIRECTION('',(0.,0.,1.));
#1681=DIRECTION('',(1.,0.,0.));
#1682=DIRECTION('',(0.,0.,1.));
#1683=DIRECTION('',(1.,0.,0.));
#1684=DIRECTION('',(0.,0.,1.));
#1685=DIRECTION('',(1.,0.,0.));
#1686=DIRECTION('',(0.,0.,1.));
#1687=DIRECTION('',(1.,0.,0.));
#1688=DIRECTION('',(0.,0.,1.));
#1689=DIRECTION('',(1.,0.,0.));
#1690=DIRECTION('',(0.,0.,1.));
#1691=DIRECTION('',(1.,0.,0.));
#1692=DIRECTION('',(0.,0.,1.));
#1693=DIRECTION('',(1.,0.,0.));
#1694=DIRECTION('',(0.,0.,1.));
#1695=DIRECTION('',(1.,0.,0.));
#1696=DIRECTION('',(0.,0.,1.));
#1697=DIRECTION('',(1.,0.,0.));
#1698=DIRECTION('',(0.,0.,1.));
#1699=DIRECTION('',(1.,0.,0.));
#1700=DIRECTION('',(0.,0.,1.));
#1701=DIRECTION('',(1.,0.,0.));
#1702=DIRECTION('',(0.,0.,1.));
#1703=DIRECTION('',(1.,0.,0.));
#1704=DIRECTION('',(0.,0.,1.));
#1705=DIRECTION('',(1.,0.,0.));
#1706=DIRECTION('',(0.,0.,1.));
#1707=DIRECTION('',(1.,0.,0.));
#1708=DIRECTION('',(0.,0.,1.));
#1709=DIRECTION('',(1.,0.,0.));
#1710=DIRECTION('',(0.,0.,1.));
#1711=DIRECTION('',(1.,0.,0.));
#1712=DIRECTION('',(0.,0.,1.));
#1713=DIRECTION('',(1.,0.,0.));
#1714=DIRECTION('',(-1.,0.,0.));
#1715=DIRECTION('',(0.,0.,1.));
#1716=DIRECTION('',(0.,1.,0.));
#1717=DIRECTION('',(0.,0.,-1.));
#1718=DIRECTION('',(0.,1.,0.));
#1719=DIRECTION('',(0.,1.,0.));
#1720=DIRECTION('',(0.,0.,1.));
#1721=DIRECTION('',(1.,0.,0.));
#1722=DIRECTION('',(0.,0.,-1.));
#1723=DIRECTION('',(1.,0.,0.));
#1724=DIRECTION('',(0.,0.,1.));
#1725=DIRECTION('',(1.,0.,0.));
#1726=DIRECTION('',(0.,0.,1.));
#1727=DIRECTION('',(1.,0.,0.));
#1728=DIRECTION('',(0.,0.,1.));
#1729=DIRECTION('',(1.,0.,0.));
#1730=DIRECTION('',(0.,0.,1.));
#1731=DIRECTION('',(1.,0.,0.));
#1732=DIRECTION('',(0.,0.,-1.));
#1733=DIRECTION('',(-1.,0.,0.));
#1734=DIRECTION('',(0.,0.,1.));
#1735=DIRECTION('',(1.,0.,0.));
#1736=DIRECTION('',(0.,0.,-1.));
#1737=DIRECTION('',(-1.,0.,0.));
#1738=DIRECTION('',(0.,0.,-1.));
#1739=DIRECTION('',(-1.,0.,0.));
#1740=DIRECTION('',(0.,0.,1.));
#1741=DIRECTION('',(1.,0.,0.));
#1742=DIRECTION('',(0.,-1.,0.));
#1743=DIRECTION('',(0.,0.,-1.));
#1744=DIRECTION('',(1.,0.,0.));
#1745=DIRECTION('',(0.,0.,-1.));
#1746=DIRECTION('',(-1.,-1.7347234759768E-16,0.));
#1747=DIRECTION('',(1.7347234759768E-16,-1.,0.));
#1748=DIRECTION('',(1.,0.,0.));
#1749=DIRECTION('',(0.,0.,-1.));
#1750=DIRECTION('',(0.,-1.,0.));
#1751=DIRECTION('',(0.,0.,-1.));
#1752=DIRECTION('',(0.,-1.,8.67361737988403E-16));
#1753=DIRECTION('',(0.,-8.67361737988403E-16,-1.));
#1754=DIRECTION('',(0.,0.,1.));
#1755=DIRECTION('',(1.,0.,0.));
#1756=DIRECTION('',(0.,-1.,0.));
#1757=DIRECTION('',(0.,0.,-1.));
#1758=DIRECTION('',(0.,0.,1.));
#1759=DIRECTION('',(1.,0.,0.));
#1760=DIRECTION('',(1.,0.,0.));
#1761=DIRECTION('',(0.,0.,-1.));
#1762=DIRECTION('',(-2.31296463463574E-16,1.,0.));
#1763=DIRECTION('',(-1.,-2.31296463463574E-16,0.));
#1764=DIRECTION('',(0.,-1.,0.));
#1765=DIRECTION('',(0.,0.,-1.));
#1766=DIRECTION('',(1.,0.,0.));
#1767=DIRECTION('',(0.,0.,-1.));
#1768=DIRECTION('',(1.,0.,0.));
#1769=DIRECTION('',(0.,0.,-1.));
#1770=DIRECTION('',(0.,0.,1.));
#1771=DIRECTION('',(1.,0.,0.));
#1772=DIRECTION('',(-1.,0.,0.));
#1773=DIRECTION('',(0.,0.,1.));
#1774=DIRECTION('',(0.,0.,1.));
#1775=DIRECTION('',(1.,0.,0.));
#1776=DIRECTION('',(0.,-1.,-2.16840434497101E-16));
#1777=DIRECTION('',(0.,2.16840434497101E-16,-1.));
#1778=DIRECTION('',(1.,0.,0.));
#1779=DIRECTION('',(0.,0.,-1.));
#1780=DIRECTION('',(0.707106781186548,-0.707106781186548,0.));
#1781=DIRECTION('',(0.707106781186547,0.707106781186548,0.));
#1782=DIRECTION('',(3.17811934530102E-16,-1.,0.));
#1783=DIRECTION('',(1.,3.17811934530102E-16,0.));
#1784=DIRECTION('',(0.,0.,1.));
#1785=DIRECTION('',(1.,0.,0.));
#1786=DIRECTION('',(0.,0.,1.));
#1787=DIRECTION('',(1.,0.,0.));
#1788=DIRECTION('',(0.,0.,1.));
#1789=DIRECTION('',(1.,0.,0.));
#1790=DIRECTION('',(0.,0.,1.));
#1791=DIRECTION('',(1.,0.,0.));
#1792=DIRECTION('',(0.,0.,1.));
#1793=DIRECTION('',(1.,0.,0.));
#1794=DIRECTION('',(0.,0.,1.));
#1795=DIRECTION('',(1.,0.,0.));
#1796=DIRECTION('',(0.,0.,1.));
#1797=DIRECTION('',(1.,0.,0.));
#1798=DIRECTION('',(0.,0.,1.));
#1799=DIRECTION('',(1.,0.,0.));
#1800=DIRECTION('',(-1.73472347597681E-16,1.,0.));
#1801=DIRECTION('',(-1.,-1.73472347597681E-16,0.));
#1802=DIRECTION('',(1.,1.73472347597681E-16,0.));
#1803=DIRECTION('',(0.,0.,-1.));
#1804=DIRECTION('',(1.,1.7347234759768E-16,0.));
#1805=DIRECTION('',(0.,0.,-1.));
#1806=DIRECTION('',(1.,0.,0.));
#1807=DIRECTION('',(0.,0.,-1.));
#1808=DIRECTION('',(0.,-1.,0.));
#1809=DIRECTION('',(0.,0.,-1.));
#1810=DIRECTION('',(0.,-1.,0.));
#1811=DIRECTION('',(0.,0.,-1.));
#1812=DIRECTION('',(0.,1.,0.));
#1813=DIRECTION('',(0.,0.,1.));
#1814=DIRECTION('',(1.,0.,0.));
#1815=DIRECTION('',(0.,0.,-1.));
#1816=DIRECTION('',(1.,0.,0.));
#1817=DIRECTION('',(0.,0.,-1.));
#1818=DIRECTION('',(1.,1.7347234759768E-16,0.));
#1819=DIRECTION('',(-1.7347234759768E-16,1.,0.));
#1820=DIRECTION('',(1.7347234759768E-16,-1.,0.));
#1821=DIRECTION('',(0.,0.,-1.));
#1822=DIRECTION('',(1.7347234759768E-16,-1.,0.));
#1823=DIRECTION('',(0.,0.,-1.));
#1824=DIRECTION('',(0.,0.,1.));
#1825=DIRECTION('',(1.,0.,0.));
#1826=DIRECTION('',(0.,0.,1.));
#1827=DIRECTION('',(1.,0.,0.));
#1828=DIRECTION('',(0.,1.,0.));
#1829=DIRECTION('',(0.,0.,1.));
#1830=DIRECTION('',(1.,0.,0.));
#1831=DIRECTION('',(0.,0.,1.));
#1832=DIRECTION('',(1.,0.,0.));
#1833=DIRECTION('',(0.,-1.,0.));
#1834=DIRECTION('',(1.,0.,0.));
#1835=DIRECTION('',(-1.,0.,0.));
#1836=DIRECTION('',(0.,0.,1.));
#1837=DIRECTION('',(0.,1.,0.));
#1838=DIRECTION('',(0.,0.,-1.));
#1839=DIRECTION('',(0.,0.,-1.));
#1840=DIRECTION('',(0.,1.,0.));
#1841=DIRECTION('',(0.,0.,1.));
#1842=DIRECTION('',(0.,0.,-1.));
#1843=DIRECTION('',(1.,0.,0.));
#1844=DIRECTION('',(1.,0.,0.));
#1845=DIRECTION('',(0.,0.,-1.));
#1846=DIRECTION('',(0.,0.,1.));
#1847=DIRECTION('',(0.,-1.,0.));
#1848=DIRECTION('',(0.,0.,1.));
#1849=DIRECTION('',(1.,0.,0.));
#1850=DIRECTION('',(0.,0.,1.));
#1851=DIRECTION('',(1.,0.,0.));
#1852=DIRECTION('',(0.,0.,1.));
#1853=DIRECTION('',(1.,0.,0.));
#1854=DIRECTION('',(0.,0.,1.));
#1855=DIRECTION('',(1.,0.,0.));
#1856=DIRECTION('',(0.,0.,1.));
#1857=DIRECTION('',(1.,0.,0.));
#1858=DIRECTION('',(0.,0.,1.));
#1859=DIRECTION('',(1.,0.,0.));
#1860=DIRECTION('',(0.,0.,1.));
#1861=DIRECTION('',(1.,0.,0.));
#1862=DIRECTION('',(0.,0.,1.));
#1863=DIRECTION('',(1.,0.,0.));
#1864=DIRECTION('',(0.,0.,1.));
#1865=DIRECTION('',(1.,0.,0.));
#1866=DIRECTION('',(0.,0.,1.));
#1867=DIRECTION('',(1.,0.,0.));
#1868=DIRECTION('',(0.,0.,1.));
#1869=DIRECTION('',(1.,0.,0.));
#1870=DIRECTION('',(0.,0.,1.));
#1871=DIRECTION('',(1.,0.,0.));
#1872=DIRECTION('',(0.,0.,1.));
#1873=DIRECTION('',(1.,0.,0.));
#1874=DIRECTION('',(0.,0.,1.));
#1875=DIRECTION('',(1.,0.,0.));
#1876=DIRECTION('',(0.,0.,-1.));
#1877=DIRECTION('',(-1.,0.,0.));
#1878=DIRECTION('',(0.,0.,1.));
#1879=DIRECTION('',(1.,0.,0.));
#1880=DIRECTION('',(0.,0.,1.));
#1881=DIRECTION('',(1.,0.,0.));
#1882=DIRECTION('',(-1.,0.,0.));
#1883=DIRECTION('',(0.,0.,1.));
#1884=DIRECTION('',(0.,-1.,0.));
#1885=DIRECTION('',(0.,0.,-1.));
#1886=DIRECTION('',(0.,0.,1.));
#1887=DIRECTION('',(1.,0.,0.));
#1888=DIRECTION('',(0.,0.,1.));
#1889=DIRECTION('',(1.,0.,0.));
#1890=DIRECTION('',(-1.7347234759768E-16,1.,0.));
#1891=DIRECTION('',(-1.,-1.7347234759768E-16,0.));
#1892=DIRECTION('',(0.,1.,0.));
#1893=DIRECTION('',(0.,0.,1.));
#1894=DIRECTION('',(-1.,-1.73472347597681E-16,0.));
#1895=DIRECTION('',(1.73472347597681E-16,-1.,0.));
#1896=DIRECTION('',(1.,0.,0.));
#1897=DIRECTION('',(0.,0.,-1.));
#1898=DIRECTION('',(0.,0.,1.));
#1899=DIRECTION('',(1.,0.,0.));
#1900=DIRECTION('',(0.,0.,1.));
#1901=DIRECTION('',(1.,0.,0.));
#1902=DIRECTION('',(0.,0.,1.));
#1903=DIRECTION('',(1.,0.,0.));
#1904=DIRECTION('',(-1.,0.,0.));
#1905=DIRECTION('',(0.,0.,1.));
#1906=DIRECTION('',(0.,0.,1.));
#1907=DIRECTION('',(1.,0.,0.));
#1908=DIRECTION('',(0.,-1.,0.));
#1909=DIRECTION('',(0.,0.,-1.));
#1910=DIRECTION('',(1.,0.,0.));
#1911=DIRECTION('',(0.,0.,-1.));
#1912=DIRECTION('',(1.,0.,0.));
#1913=DIRECTION('',(0.,0.,-1.));
#1914=DIRECTION('',(0.,-1.,0.));
#1915=DIRECTION('',(0.,0.,-1.));
#1916=DIRECTION('',(0.,1.,0.));
#1917=DIRECTION('',(0.,0.,1.));
#1918=DIRECTION('',(0.,0.,1.));
#1919=DIRECTION('',(1.,0.,0.));
#1920=DIRECTION('',(0.,0.,1.));
#1921=DIRECTION('',(1.,0.,0.));
#1922=DIRECTION('',(0.,0.,-1.));
#1923=DIRECTION('',(-1.,0.,0.));
#1924=DIRECTION('',(-1.,0.,0.));
#1925=DIRECTION('',(0.,0.,1.));
#1926=DIRECTION('',(-1.,0.,0.));
#1927=DIRECTION('',(0.,0.,1.));
#1928=DIRECTION('',(0.,1.,0.));
#1929=DIRECTION('',(0.,0.,1.));
#1930=DIRECTION('',(0.,-1.,0.));
#1931=DIRECTION('',(0.,0.,-1.));
#1932=DIRECTION('',(0.,0.,1.));
#1933=DIRECTION('',(1.,0.,0.));
#1934=DIRECTION('',(0.,0.,1.));
#1935=DIRECTION('',(1.,0.,0.));
#1936=DIRECTION('',(0.,0.,1.));
#1937=DIRECTION('',(1.,0.,0.));
#1938=CARTESIAN_POINT('',(0.,0.,0.));
#1939=CARTESIAN_POINT('',(-0.005,-0.0055,0.002));
#1940=CARTESIAN_POINT('',(-0.08,0.02725,0.002));
#1941=CARTESIAN_POINT('',(-0.08,0.005,0.002));
#1942=CARTESIAN_POINT('',(-0.08,0.0525,0.002));
#1943=CARTESIAN_POINT('',(-0.022,0.005,0.002));
#1944=CARTESIAN_POINT('',(-0.024,0.005,0.002));
#1945=CARTESIAN_POINT('',(-0.024,0.001,0.002));
#1946=CARTESIAN_POINT('',(-0.02,0.001,0.002));
#1947=CARTESIAN_POINT('',(-0.02,-0.0055,0.002));
#1948=CARTESIAN_POINT('',(-0.02,-0.0655,0.002));
#1949=CARTESIAN_POINT('',(-0.0125,-0.0655,0.002));
#1950=CARTESIAN_POINT('',(0.068,-0.0655,0.002));
#1951=CARTESIAN_POINT('',(0.068,-0.0635,0.002));
#1952=CARTESIAN_POINT('',(0.07,-0.0635,0.002));
#1953=CARTESIAN_POINT('',(0.07,-0.0055,0.002));
#1954=CARTESIAN_POINT('',(0.07,0.0525,0.002));
#1955=CARTESIAN_POINT('',(0.068,0.0525,0.002));
#1956=CARTESIAN_POINT('',(0.068,0.0545,0.002));
#1957=CARTESIAN_POINT('',(-0.04,0.0545,0.002));
#1958=CARTESIAN_POINT('',(-0.078,0.0545,0.002));
#1959=CARTESIAN_POINT('',(-0.078,0.0525,0.002));
#1960=CARTESIAN_POINT('',(0.01125,-0.055,0.002));
#1961=CARTESIAN_POINT('',(0.01625,-0.055,0.002));
#1962=CARTESIAN_POINT('',(0.05875,-0.055,0.002));
#1963=CARTESIAN_POINT('',(0.06375,-0.055,0.002));
#1964=CARTESIAN_POINT('',(-0.011,0.01375,0.002));
#1965=CARTESIAN_POINT('',(-0.006,0.01375,0.002));
#1966=CARTESIAN_POINT('',(0.01125,0.044,0.002));
#1967=CARTESIAN_POINT('',(0.01625,0.044,0.002));
#1968=CARTESIAN_POINT('',(-0.011,0.04075,0.002));
#1969=CARTESIAN_POINT('',(-0.006,0.04075,0.002));
#1970=CARTESIAN_POINT('',(0.05875,0.044,0.002));
#1971=CARTESIAN_POINT('',(0.06375,0.044,0.002));
#1972=CARTESIAN_POINT('',(-0.069,0.04075,0.002));
#1973=CARTESIAN_POINT('',(-0.064,0.04075,0.002));
#1974=CARTESIAN_POINT('',(-0.069,0.01375,0.002));
#1975=CARTESIAN_POINT('',(-0.064,0.01375,0.002));
#1976=CARTESIAN_POINT('',(-0.009,-0.0135,0.002));
#1977=CARTESIAN_POINT('',(-0.009,-0.0175,0.002));
#1978=CARTESIAN_POINT('',(-0.005,-0.0135,0.002));
#1979=CARTESIAN_POINT('',(-0.005,-0.0175,0.002));
#1980=CARTESIAN_POINT('',(-0.015,-0.0175,0.002));
#1981=CARTESIAN_POINT('',(-0.015,-0.0135,0.002));
#1982=CARTESIAN_POINT('',(-0.019,-0.0135,0.002));
#1983=CARTESIAN_POINT('',(-0.019,-0.0055,0.002));
#1984=CARTESIAN_POINT('',(-0.019,-0.0075,0.002));
#1985=CARTESIAN_POINT('',(-0.015,-0.0075,0.002));
#1986=CARTESIAN_POINT('',(-0.015,-0.0035,0.002));
#1987=CARTESIAN_POINT('',(-0.007,-0.0035,0.002));
#1988=CARTESIAN_POINT('',(-0.009,-0.0035,0.002));
#1989=CARTESIAN_POINT('',(-0.009,-0.0075,0.002));
#1990=CARTESIAN_POINT('',(-0.005,-0.0075,0.002));
#1991=CARTESIAN_POINT('',(-0.005,-0.0155,0.002));
#1992=CARTESIAN_POINT('',(-0.012,-0.0155,0.007));
#1993=CARTESIAN_POINT('',(-0.012,-0.0155,0.0135));
#1994=CARTESIAN_POINT('',(-0.015,-0.0155,0.0135));
#1995=CARTESIAN_POINT('',(-0.009,-0.0155,0.0135));
#1996=CARTESIAN_POINT('',(-0.015,-0.0155,0.007));
#1997=CARTESIAN_POINT('',(-0.015,-0.0155,0.011));
#1998=CARTESIAN_POINT('',(-0.012,-0.0155,0.011));
#1999=CARTESIAN_POINT('',(-0.009,-0.0155,0.011));
#2000=CARTESIAN_POINT('',(-0.009,-0.0155,0.0135));
#2001=CARTESIAN_POINT('',(-0.0525,0.,0.002));
#2002=CARTESIAN_POINT('',(-0.078,0.,0.002));
#2003=CARTESIAN_POINT('',(-0.078,0.,0.012));
#2004=CARTESIAN_POINT('',(-0.078,0.,0.002));
#2005=CARTESIAN_POINT('',(-0.027,0.,0.002));
#2006=CARTESIAN_POINT('',(-0.027,0.,0.002));
#2007=CARTESIAN_POINT('',(-0.027,0.,0.002));
#2008=CARTESIAN_POINT('',(-0.027,0.,0.012));
#2009=CARTESIAN_POINT('',(-0.0525,0.,0.012));
#2010=CARTESIAN_POINT('',(-0.025,-0.03275,0.002));
#2011=CARTESIAN_POINT('',(-0.025,-0.002,0.002));
#2012=CARTESIAN_POINT('',(-0.025,-0.002,0.012));
#2013=CARTESIAN_POINT('',(-0.025,-0.002,0.002));
#2014=CARTESIAN_POINT('',(-0.025,-0.03275,0.002));
#2015=CARTESIAN_POINT('',(-0.025,-0.0655,0.002));
#2016=CARTESIAN_POINT('',(-0.025,-0.0655,0.002));
#2017=CARTESIAN_POINT('',(-0.025,-0.0655,0.012));
#2018=CARTESIAN_POINT('',(-0.025,-0.03275,0.012));
#2019=CARTESIAN_POINT('',(-0.0125,-0.0655,0.002));
#2020=CARTESIAN_POINT('',(0.068,-0.0655,0.002));
#2021=CARTESIAN_POINT('',(-0.02,-0.0655,0.004));
#2022=CARTESIAN_POINT('',(-0.022,-0.0655,0.004));
#2023=CARTESIAN_POINT('',(-0.022,-0.0655,0.012));
#2024=CARTESIAN_POINT('',(-0.022,-0.0655,0.012));
#2025=CARTESIAN_POINT('',(-0.0125,-0.0655,0.012));
#2026=CARTESIAN_POINT('',(-0.08,0.02725,0.002));
#2027=CARTESIAN_POINT('',(-0.08,0.003,0.012));
#2028=CARTESIAN_POINT('',(-0.08,0.003,0.012));
#2029=CARTESIAN_POINT('',(-0.08,0.003,0.004));
#2030=CARTESIAN_POINT('',(-0.08,0.005,0.004));
#2031=CARTESIAN_POINT('',(-0.08,0.002,0.002));
#2032=CARTESIAN_POINT('',(-0.08,0.002,0.002));
#2033=CARTESIAN_POINT('',(-0.08,0.002,0.002));
#2034=CARTESIAN_POINT('',(-0.08,0.002,0.012));
#2035=CARTESIAN_POINT('',(-0.08,0.02725,0.012));
#2036=CARTESIAN_POINT('',(-0.005,-0.0055,0.));
#2037=CARTESIAN_POINT('',(-0.025,-0.0635,0.));
#2038=CARTESIAN_POINT('',(0.068,-0.0635,0.));
#2039=CARTESIAN_POINT('',(-0.023,-0.0635,0.));
#2040=CARTESIAN_POINT('',(-0.023,-0.0055,0.));
#2041=CARTESIAN_POINT('',(-0.023,-0.002,0.));
#2042=CARTESIAN_POINT('',(-0.027,-0.002,0.));
#2043=CARTESIAN_POINT('',(-0.027,0.002,0.));
#2044=CARTESIAN_POINT('',(-0.078,0.002,0.));
#2045=CARTESIAN_POINT('',(-0.078,0.002,0.));
#2046=CARTESIAN_POINT('',(-0.078,0.0525,0.));
#2047=CARTESIAN_POINT('',(-0.078,0.0525,0.));
#2048=CARTESIAN_POINT('',(-0.005,0.0525,0.));
#2049=CARTESIAN_POINT('',(0.068,0.0525,0.));
#2050=CARTESIAN_POINT('',(0.068,-0.0635,0.));
#2051=CARTESIAN_POINT('',(-0.011,0.01375,0.007));
#2052=CARTESIAN_POINT('',(-0.011,0.01375,0.004));
#2053=CARTESIAN_POINT('',(-0.008,0.01375,0.004));
#2054=CARTESIAN_POINT('',(-0.011,0.01375,0.007));
#2055=CARTESIAN_POINT('',(-0.008,0.01375,0.007));
#2056=CARTESIAN_POINT('',(-0.005,-0.0055,0.007));
#2057=CARTESIAN_POINT('',(-0.011,0.01375,0.007));
#2058=CARTESIAN_POINT('',(-0.0091,0.01375,0.007));
#2059=CARTESIAN_POINT('',(0.01125,0.044,0.007));
#2060=CARTESIAN_POINT('',(0.01125,0.044,0.004));
#2061=CARTESIAN_POINT('',(0.01425,0.044,0.004));
#2062=CARTESIAN_POINT('',(0.01125,0.044,0.007));
#2063=CARTESIAN_POINT('',(0.01425,0.044,0.007));
#2064=CARTESIAN_POINT('',(-0.005,-0.0055,0.007));
#2065=CARTESIAN_POINT('',(0.01125,0.044,0.007));
#2066=CARTESIAN_POINT('',(0.0129,0.044,0.007));
#2067=CARTESIAN_POINT('',(0.05875,0.044,0.007));
#2068=CARTESIAN_POINT('',(0.05875,0.044,0.004));
#2069=CARTESIAN_POINT('',(0.06175,0.044,0.004));
#2070=CARTESIAN_POINT('',(0.05875,0.044,0.007));
#2071=CARTESIAN_POINT('',(0.06175,0.044,0.007));
#2072=CARTESIAN_POINT('',(-0.005,-0.0055,0.007));
#2073=CARTESIAN_POINT('',(0.05875,0.044,0.007));
#2074=CARTESIAN_POINT('',(0.0604,0.044,0.007));
#2075=CARTESIAN_POINT('',(0.05875,-0.055,0.007));
#2076=CARTESIAN_POINT('',(0.05875,-0.055,0.004));
#2077=CARTESIAN_POINT('',(0.06175,-0.055,0.004));
#2078=CARTESIAN_POINT('',(0.05875,-0.055,0.007));
#2079=CARTESIAN_POINT('',(0.06175,-0.055,0.007));
#2080=CARTESIAN_POINT('',(-0.005,-0.0055,0.007));
#2081=CARTESIAN_POINT('',(0.05875,-0.055,0.007));
#2082=CARTESIAN_POINT('',(0.0604,-0.055,0.007));
#2083=CARTESIAN_POINT('',(0.01125,-0.055,0.007));
#2084=CARTESIAN_POINT('',(0.01125,-0.055,0.004));
#2085=CARTESIAN_POINT('',(0.01425,-0.055,0.004));
#2086=CARTESIAN_POINT('',(0.01125,-0.055,0.007));
#2087=CARTESIAN_POINT('',(0.01425,-0.055,0.007));
#2088=CARTESIAN_POINT('',(-0.005,-0.0055,0.007));
#2089=CARTESIAN_POINT('',(0.01125,-0.055,0.007));
#2090=CARTESIAN_POINT('',(0.0129,-0.055,0.007));
#2091=CARTESIAN_POINT('',(-0.069,0.01375,0.007));
#2092=CARTESIAN_POINT('',(-0.069,0.01375,0.004));
#2093=CARTESIAN_POINT('',(-0.066,0.01375,0.004));
#2094=CARTESIAN_POINT('',(-0.069,0.01375,0.007));
#2095=CARTESIAN_POINT('',(-0.066,0.01375,0.007));
#2096=CARTESIAN_POINT('',(-0.005,-0.0055,0.007));
#2097=CARTESIAN_POINT('',(-0.069,0.01375,0.007));
#2098=CARTESIAN_POINT('',(-0.0671,0.01375,0.007));
#2099=CARTESIAN_POINT('',(-0.069,0.04075,0.007));
#2100=CARTESIAN_POINT('',(-0.069,0.04075,0.004));
#2101=CARTESIAN_POINT('',(-0.066,0.04075,0.004));
#2102=CARTESIAN_POINT('',(-0.069,0.04075,0.007));
#2103=CARTESIAN_POINT('',(-0.066,0.04075,0.007));
#2104=CARTESIAN_POINT('',(-0.005,-0.0055,0.007));
#2105=CARTESIAN_POINT('',(-0.069,0.04075,0.007));
#2106=CARTESIAN_POINT('',(-0.0671,0.04075,0.007));
#2107=CARTESIAN_POINT('',(-0.011,0.04075,0.007));
#2108=CARTESIAN_POINT('',(-0.011,0.04075,0.004));
#2109=CARTESIAN_POINT('',(-0.008,0.04075,0.004));
#2110=CARTESIAN_POINT('',(-0.011,0.04075,0.007));
#2111=CARTESIAN_POINT('',(-0.008,0.04075,0.007));
#2112=CARTESIAN_POINT('',(-0.005,-0.0055,0.007));
#2113=CARTESIAN_POINT('',(-0.011,0.04075,0.007));
#2114=CARTESIAN_POINT('',(-0.0091,0.04075,0.007));
#2115=CARTESIAN_POINT('',(-0.011,0.04075,0.003));
#2116=CARTESIAN_POINT('',(-0.011,0.04075,0.003));
#2117=CARTESIAN_POINT('',(-0.0091,0.04075,0.003));
#2118=CARTESIAN_POINT('',(-0.0058,-0.0055,0.003));
#2119=CARTESIAN_POINT('',(-0.069,0.04075,0.003));
#2120=CARTESIAN_POINT('',(-0.069,0.04075,0.003));
#2121=CARTESIAN_POINT('',(-0.0671,0.04075,0.003));
#2122=CARTESIAN_POINT('',(-0.0058,-0.0055,0.003));
#2123=CARTESIAN_POINT('',(-0.069,0.01375,0.003));
#2124=CARTESIAN_POINT('',(-0.069,0.01375,0.003));
#2125=CARTESIAN_POINT('',(-0.0671,0.01375,0.003));
#2126=CARTESIAN_POINT('',(-0.0058,-0.0055,0.003));
#2127=CARTESIAN_POINT('',(0.01125,-0.055,0.003));
#2128=CARTESIAN_POINT('',(0.01125,-0.055,0.003));
#2129=CARTESIAN_POINT('',(0.0129,-0.055,0.003));
#2130=CARTESIAN_POINT('',(-0.0058,-0.0055,0.003));
#2131=CARTESIAN_POINT('',(0.05875,-0.055,0.003));
#2132=CARTESIAN_POINT('',(0.05875,-0.055,0.003));
#2133=CARTESIAN_POINT('',(0.0604,-0.055,0.003));
#2134=CARTESIAN_POINT('',(-0.0058,-0.0055,0.003));
#2135=CARTESIAN_POINT('',(0.05875,0.044,0.003));
#2136=CARTESIAN_POINT('',(0.05875,0.044,0.003));
#2137=CARTESIAN_POINT('',(0.0604,0.044,0.003));
#2138=CARTESIAN_POINT('',(-0.0058,-0.0055,0.003));
#2139=CARTESIAN_POINT('',(0.01125,0.044,0.003));
#2140=CARTESIAN_POINT('',(0.01125,0.044,0.003));
#2141=CARTESIAN_POINT('',(0.0129,0.044,0.003));
#2142=CARTESIAN_POINT('',(-0.0058,-0.0055,0.003));
#2143=CARTESIAN_POINT('',(-0.011,0.01375,0.003));
#2144=CARTESIAN_POINT('',(-0.011,0.01375,0.003));
#2145=CARTESIAN_POINT('',(-0.0091,0.01375,0.003));
#2146=CARTESIAN_POINT('',(-0.0058,-0.0055,0.003));
#2147=CARTESIAN_POINT('',(-0.022,0.0015,0.012));
#2148=CARTESIAN_POINT('',(-0.022,0.0015,0.004));
#2149=CARTESIAN_POINT('',(-0.022,0.001,0.004));
#2150=CARTESIAN_POINT('',(-0.022,0.001,0.012));
#2151=CARTESIAN_POINT('',(-0.022,0.001,0.012));
#2152=CARTESIAN_POINT('',(-0.022,0.0015,0.012));
#2153=CARTESIAN_POINT('',(-0.051,0.003,0.012));
#2154=CARTESIAN_POINT('',(-0.051,0.003,0.012));
#2155=CARTESIAN_POINT('',(-0.024,0.003,0.012));
#2156=CARTESIAN_POINT('',(-0.024,0.003,0.002));
#2157=CARTESIAN_POINT('',(-0.024,0.003,0.004));
#2158=CARTESIAN_POINT('',(-0.08,0.003,0.004));
#2159=CARTESIAN_POINT('',(-0.005,-0.0055,0.012));
#2160=CARTESIAN_POINT('',(-0.024,0.001,0.012));
#2161=CARTESIAN_POINT('',(-0.078,0.002,0.012));
#2162=CARTESIAN_POINT('',(-0.027,-0.002,0.012));
#2163=CARTESIAN_POINT('',(-0.027,-0.002,0.002));
#2164=CARTESIAN_POINT('',(-0.027,-0.002,0.002));
#2165=CARTESIAN_POINT('',(-0.078,0.002,0.002));
#2166=CARTESIAN_POINT('',(-0.078,0.002,0.002));
#2167=CARTESIAN_POINT('',(-0.078,0.0525,0.002));
#2168=CARTESIAN_POINT('',(-0.078,0.0525,0.002));
#2169=CARTESIAN_POINT('',(-0.078,0.0525,0.002));
#2170=CARTESIAN_POINT('',(-0.04,0.0525,0.002));
#2171=CARTESIAN_POINT('',(0.068,0.0525,0.002));
#2172=CARTESIAN_POINT('',(-0.078,-0.0055,0.002));
#2173=CARTESIAN_POINT('',(-0.078,0.002,0.002));
#2174=CARTESIAN_POINT('',(0.068,0.0525,0.002));
#2175=CARTESIAN_POINT('',(0.068,0.0525,0.002));
#2176=CARTESIAN_POINT('',(-0.078,0.002,0.002));
#2177=CARTESIAN_POINT('',(-0.078,0.002,0.002));
#2178=CARTESIAN_POINT('',(0.068,-0.0055,0.002));
#2179=CARTESIAN_POINT('',(0.068,-0.0635,0.002));
#2180=CARTESIAN_POINT('',(-0.005,0.002,0.002));
#2181=CARTESIAN_POINT('',(-0.027,0.002,0.002));
#2182=CARTESIAN_POINT('',(0.068,-0.0635,0.002));
#2183=CARTESIAN_POINT('',(0.068,-0.0635,0.002));
#2184=CARTESIAN_POINT('',(-0.027,-0.002,0.002));
#2185=CARTESIAN_POINT('',(-0.023,-0.002,0.002));
#2186=CARTESIAN_POINT('',(-0.005,-0.0635,0.002));
#2187=CARTESIAN_POINT('',(-0.023,-0.0635,0.002));
#2188=CARTESIAN_POINT('',(-0.023,-0.03275,0.002));
#2189=CARTESIAN_POINT('',(-0.069,0.01375,0.004));
#2190=CARTESIAN_POINT('',(-0.069,0.04075,0.004));
#2191=CARTESIAN_POINT('',(0.05875,0.044,0.004));
#2192=CARTESIAN_POINT('',(-0.011,0.04075,0.004));
#2193=CARTESIAN_POINT('',(0.01125,0.044,0.004));
#2194=CARTESIAN_POINT('',(-0.011,0.01375,0.004));
#2195=CARTESIAN_POINT('',(0.05875,-0.055,0.004));
#2196=CARTESIAN_POINT('',(0.01125,-0.055,0.004));
#2197=CARTESIAN_POINT('',(-0.012,-0.0055,0.007));
#2198=CARTESIAN_POINT('',(-0.017,-0.0055,0.004));
#2199=CARTESIAN_POINT('',(-0.009,-0.0055,0.004));
#2200=CARTESIAN_POINT('',(-0.015,-0.0055,0.004));
#2201=CARTESIAN_POINT('',(-0.015,-0.0055,0.0135));
#2202=CARTESIAN_POINT('',(-0.015,-0.0055,0.0135));
#2203=CARTESIAN_POINT('',(-0.012,-0.0055,0.0135));
#2204=CARTESIAN_POINT('',(-0.009,-0.0055,0.0135));
#2205=CARTESIAN_POINT('',(-0.009,-0.0055,0.007));
#2206=CARTESIAN_POINT('',(-0.017,-0.0105,0.007));
#2207=CARTESIAN_POINT('',(-0.017,-0.0105,0.004));
#2208=CARTESIAN_POINT('',(-0.017,-0.0075,0.004));
#2209=CARTESIAN_POINT('',(-0.017,-0.0135,0.004));
#2210=CARTESIAN_POINT('',(-0.017,-0.0135,0.007));
#2211=CARTESIAN_POINT('',(-0.017,-0.0135,0.0135));
#2212=CARTESIAN_POINT('',(-0.017,-0.0105,0.0135));
#2213=CARTESIAN_POINT('',(-0.017,-0.0075,0.0135));
#2214=CARTESIAN_POINT('',(-0.017,-0.0075,0.002));
#2215=CARTESIAN_POINT('',(-0.012,-0.0155,0.007));
#2216=CARTESIAN_POINT('',(-0.012,-0.0155,0.007));
#2217=CARTESIAN_POINT('',(-0.015,-0.0155,0.007));
#2218=CARTESIAN_POINT('',(-0.009,-0.0155,0.007));
#2219=CARTESIAN_POINT('',(-0.015,-0.0155,0.007));
#2220=CARTESIAN_POINT('',(-0.015,-0.0155,0.004));
#2221=CARTESIAN_POINT('',(-0.012,-0.0155,0.004));
#2222=CARTESIAN_POINT('',(-0.009,-0.0155,0.004));
#2223=CARTESIAN_POINT('',(-0.009,-0.0155,0.0135));
#2224=CARTESIAN_POINT('',(-0.007,-0.0105,0.007));
#2225=CARTESIAN_POINT('',(-0.007,-0.0105,0.0135));
#2226=CARTESIAN_POINT('',(-0.007,-0.0075,0.0135));
#2227=CARTESIAN_POINT('',(-0.007,-0.0135,0.0135));
#2228=CARTESIAN_POINT('',(-0.007,-0.0135,0.002));
#2229=CARTESIAN_POINT('',(-0.007,-0.0135,0.004));
#2230=CARTESIAN_POINT('',(-0.007,-0.0055,0.004));
#2231=CARTESIAN_POINT('',(-0.007,-0.0075,0.004));
#2232=CARTESIAN_POINT('',(-0.007,-0.0075,0.007));
#2233=CARTESIAN_POINT('',(-0.005,-0.0055,0.007));
#2234=CARTESIAN_POINT('',(-0.012,-0.0105,0.007));
#2235=CARTESIAN_POINT('',(-0.01,-0.0105,0.007));
#2236=CARTESIAN_POINT('',(-0.0155,-0.01125,0.007));
#2237=CARTESIAN_POINT('',(-0.0155,-0.0154364916731037,0.007));
#2238=CARTESIAN_POINT('',(-0.0155,-0.007,0.007));
#2239=CARTESIAN_POINT('',(-0.015,-0.0135,0.007));
#2240=CARTESIAN_POINT('',(-0.009,-0.0135,0.007));
#2241=CARTESIAN_POINT('',(-0.0085,-0.0154364916731037,0.007));
#2242=CARTESIAN_POINT('',(-0.0085,-0.01125,0.007));
#2243=CARTESIAN_POINT('',(-0.0085,-0.007,0.007));
#2244=CARTESIAN_POINT('',(-0.012,-0.007,0.007));
#2245=CARTESIAN_POINT('',(-0.0155,-0.01125,0.011));
#2246=CARTESIAN_POINT('',(-0.0155,-0.01125,0.011));
#2247=CARTESIAN_POINT('',(-0.0155,-0.0154364916731037,0.011));
#2248=CARTESIAN_POINT('',(-0.0155,-0.007,0.011));
#2249=CARTESIAN_POINT('',(-0.0155,-0.0154364916731037,0.011));
#2250=CARTESIAN_POINT('',(-0.0155,-0.007,0.011));
#2251=CARTESIAN_POINT('',(-0.012,-0.007,0.011));
#2252=CARTESIAN_POINT('',(-0.0085,-0.007,0.011));
#2253=CARTESIAN_POINT('',(-0.0085,-0.007,0.011));
#2254=CARTESIAN_POINT('',(-0.012,-0.007,0.011));
#2255=CARTESIAN_POINT('',(-0.0085,-0.01125,0.011));
#2256=CARTESIAN_POINT('',(-0.0085,-0.0154364916731037,0.007));
#2257=CARTESIAN_POINT('',(-0.0085,-0.0154364916731037,0.011));
#2258=CARTESIAN_POINT('',(-0.0085,-0.01125,0.011));
#2259=CARTESIAN_POINT('',(-0.012,-0.0105,0.011));
#2260=CARTESIAN_POINT('',(-0.012,-0.0105,0.011));
#2261=CARTESIAN_POINT('',(-0.01,-0.0105,0.011));
#2262=CARTESIAN_POINT('',(-0.015,-0.0135,0.011));
#2263=CARTESIAN_POINT('',(-0.009,-0.0135,0.011));
#2264=CARTESIAN_POINT('',(-0.012,-0.0105,0.0135));
#2265=CARTESIAN_POINT('',(-0.012,-0.0105,0.0135));
#2266=CARTESIAN_POINT('',(-0.01,-0.0105,0.0135));
#2267=CARTESIAN_POINT('',(-0.015,-0.0135,0.0135));
#2268=CARTESIAN_POINT('',(-0.009,-0.0135,0.0135));
#2269=CARTESIAN_POINT('',(-0.009,-0.0075,0.0135));
#2270=CARTESIAN_POINT('',(-0.015,-0.0075,0.0135));
#2271=CARTESIAN_POINT('',(-0.012,-0.0105,0.0035));
#2272=CARTESIAN_POINT('',(-0.012,-0.0105,0.0035));
#2273=CARTESIAN_POINT('',(-0.012,-0.0105,0.0035));
#2274=CARTESIAN_POINT('',(-0.01,-0.0105,0.0035));
#2275=CARTESIAN_POINT('',(-0.012,-0.0105,0.0035));
#2276=CARTESIAN_POINT('',(-0.009,-0.0075,0.007));
#2277=CARTESIAN_POINT('',(-0.009,-0.0075,0.004));
#2278=CARTESIAN_POINT('',(-0.009,-0.0075,0.004));
#2279=CARTESIAN_POINT('',(-0.009,-0.0035,0.004));
#2280=CARTESIAN_POINT('',(-0.005,-0.0075,0.004));
#2281=CARTESIAN_POINT('',(-0.009,-0.0135,0.007));
#2282=CARTESIAN_POINT('',(-0.009,-0.0135,0.004));
#2283=CARTESIAN_POINT('',(-0.005,-0.0055,0.004));
#2284=CARTESIAN_POINT('',(-0.005,-0.0135,0.004));
#2285=CARTESIAN_POINT('',(-0.005,-0.0035,0.004));
#2286=CARTESIAN_POINT('',(-0.015,-0.0035,0.004));
#2287=CARTESIAN_POINT('',(-0.015,-0.0075,0.007));
#2288=CARTESIAN_POINT('',(-0.015,-0.0075,0.004));
#2289=CARTESIAN_POINT('',(-0.009,-0.0135,0.004));
#2290=CARTESIAN_POINT('',(-0.009,-0.0175,0.004));
#2291=CARTESIAN_POINT('',(-0.015,-0.0075,0.004));
#2292=CARTESIAN_POINT('',(-0.019,-0.0075,0.004));
#2293=CARTESIAN_POINT('',(-0.012,-0.0175,0.004));
#2294=CARTESIAN_POINT('',(-0.015,-0.0175,0.004));
#2295=CARTESIAN_POINT('',(-0.019,-0.0105,0.004));
#2296=CARTESIAN_POINT('',(-0.019,-0.0135,0.004));
#2297=CARTESIAN_POINT('',(-0.015,-0.0135,0.004));
#2298=CARTESIAN_POINT('',(-0.015,-0.0135,0.004));
#2299=CARTESIAN_POINT('',(-0.015,-0.0135,0.007));
#2300=CARTESIAN_POINT('',(-0.005,0.005,0.004));
#2301=CARTESIAN_POINT('',(-0.024,0.005,0.004));
#2302=CARTESIAN_POINT('',(-0.02,0.0015,0.004));
#2303=CARTESIAN_POINT('',(-0.02,0.001,0.004));
#2304=CARTESIAN_POINT('',(-0.024,0.001,0.004));
#2305=CARTESIAN_POINT('',(-0.024,0.001,0.004));
#2306=CARTESIAN_POINT('',(-0.024,0.001,0.012));
#2307=MECHANICAL_DESIGN_GEOMETRIC_PRESENTATION_REPRESENTATION('',(#1299),
#2308);
#2308=(
GEOMETRIC_REPRESENTATION_CONTEXT(3)
GLOBAL_UNCERTAINTY_ASSIGNED_CONTEXT((#2309))
GLOBAL_UNIT_ASSIGNED_CONTEXT((#2312,#2311,#2310))
REPRESENTATION_CONTEXT('Part 1','TOP_LEVEL_ASSEMBLY_PART')
);
#2309=UNCERTAINTY_MEASURE_WITH_UNIT(LENGTH_MEASURE(1.E-8),#2312,
'DISTANCE_ACCURACY_VALUE','Maximum Tolerance applied to model');
#2310=(
NAMED_UNIT(*)
SI_UNIT($,.STERADIAN.)
SOLID_ANGLE_UNIT()
);
#2311=(
NAMED_UNIT(*)
PLANE_ANGLE_UNIT()
SI_UNIT($,.RADIAN.)
);
#2312=(
LENGTH_UNIT()
NAMED_UNIT(*)
SI_UNIT($,.METRE.)
);
#2313=PRODUCT_DEFINITION_SHAPE('','',#2314);
#2314=PRODUCT_DEFINITION('','',#2316,#2315);
#2315=PRODUCT_DEFINITION_CONTEXT('',#2322,'design');
#2316=PRODUCT_DEFINITION_FORMATION_WITH_SPECIFIED_SOURCE('','',#2318,
 .NOT_KNOWN.);
#2317=PRODUCT_RELATED_PRODUCT_CATEGORY('','',(#2318));
#2318=PRODUCT('Part 1','Part 1','Part 1',(#2320));
#2319=PRODUCT_CATEGORY('','');
#2320=PRODUCT_CONTEXT('',#2322,'mechanical');
#2321=APPLICATION_PROTOCOL_DEFINITION('international standard',
'ap242_managed_model_based_3d_engineering',2020,#2322);
#2322=APPLICATION_CONTEXT('managed model based 3d engineering');
ENDSEC;
END-ISO-10303-21;
