ISO-10303-21;
HEADER;
/* Generated by software containing ST-Developer
 * from STEP Tools, Inc. (www.steptools.com) 
 */
/* OPTION: using custom renumber hook */

FILE_DESCRIPTION(
/* description */ ('STEP AP242 Edition 2',
'CAx-IF Rec.Pracs.---Representation and Presentation of Product Manufa
cturing Information (PMI)---4.0---2014-10-13',
'CAx-IF Rec.Pracs.---3D Tessellated Geometry---0.4---2014-09-14','2;1',
'CAx-IF Rec.Pracs.---User Defined Attributes---1.5---2016-08-15'),
/* implementation_level */ '2;1');

FILE_NAME(
/* name */ 'Side 1',
/* time_stamp */ '2026-09-02T14:42:43Z',
/* author */ (''),
/* organization */ (''),
/* preprocessor_version */ 'ST-DEVELOPER v20',
/* originating_system */ 'ONSHAPE BY PTC INC, 1.220',
/* authorisation */ '  ');

FILE_SCHEMA (('AP242_MANAGED_MODEL_BASED_3D_ENGINEERING_MIM_LF { 1 0 10303 442 3 1 4 }'));
ENDSEC;

DATA;
#10=SHAPE_REPRESENTATION_RELATIONSHIP('','',#529,#11);
#11=ADVANCED_BREP_SHAPE_REPRESENTATION('',(#527),#859);
#12=CYLINDRICAL_SURFACE('',#551,0.0015);
#13=CYLINDRICAL_SURFACE('',#553,0.0015);
#14=CYLINDRICAL_SURFACE('',#555,0.0015);
#15=CYLINDRICAL_SURFACE('',#558,0.0015);
#16=CYLINDRICAL_SURFACE('',#562,0.002);
#17=CYLINDRICAL_SURFACE('',#565,0.002);
#18=CYLINDRICAL_SURFACE('',#568,0.002);
#19=CYLINDRICAL_SURFACE('',#571,0.002);
#20=CIRCLE('',#532,0.0015);
#21=CIRCLE('',#533,0.0015);
#22=CIRCLE('',#534,0.0015);
#23=CIRCLE('',#535,0.0015);
#24=CIRCLE('',#536,0.002);
#25=CIRCLE('',#537,0.002);
#26=CIRCLE('',#538,0.002);
#27=CIRCLE('',#539,0.002);
#28=CIRCLE('',#552,0.0015);
#29=CIRCLE('',#554,0.0015);
#30=CIRCLE('',#556,0.0015);
#31=CIRCLE('',#559,0.0015);
#32=CIRCLE('',#563,0.002);
#33=CIRCLE('',#566,0.002);
#34=CIRCLE('',#569,0.002);
#35=CIRCLE('',#572,0.002);
#36=ORIENTED_EDGE('',*,*,#172,.T.);
#37=ORIENTED_EDGE('',*,*,#173,.T.);
#38=ORIENTED_EDGE('',*,*,#174,.F.);
#39=ORIENTED_EDGE('',*,*,#175,.T.);
#40=ORIENTED_EDGE('',*,*,#176,.T.);
#41=ORIENTED_EDGE('',*,*,#177,.F.);
#42=ORIENTED_EDGE('',*,*,#178,.F.);
#43=ORIENTED_EDGE('',*,*,#179,.T.);
#44=ORIENTED_EDGE('',*,*,#180,.F.);
#45=ORIENTED_EDGE('',*,*,#181,.F.);
#46=ORIENTED_EDGE('',*,*,#182,.T.);
#47=ORIENTED_EDGE('',*,*,#183,.F.);
#48=ORIENTED_EDGE('',*,*,#184,.T.);
#49=ORIENTED_EDGE('',*,*,#185,.T.);
#50=ORIENTED_EDGE('',*,*,#186,.F.);
#51=ORIENTED_EDGE('',*,*,#187,.F.);
#52=ORIENTED_EDGE('',*,*,#188,.F.);
#53=ORIENTED_EDGE('',*,*,#189,.T.);
#54=ORIENTED_EDGE('',*,*,#190,.F.);
#55=ORIENTED_EDGE('',*,*,#191,.F.);
#56=ORIENTED_EDGE('',*,*,#192,.F.);
#57=ORIENTED_EDGE('',*,*,#193,.F.);
#58=ORIENTED_EDGE('',*,*,#194,.F.);
#59=ORIENTED_EDGE('',*,*,#195,.T.);
#60=ORIENTED_EDGE('',*,*,#172,.F.);
#61=ORIENTED_EDGE('',*,*,#196,.F.);
#62=ORIENTED_EDGE('',*,*,#197,.T.);
#63=ORIENTED_EDGE('',*,*,#198,.T.);
#64=ORIENTED_EDGE('',*,*,#183,.T.);
#65=ORIENTED_EDGE('',*,*,#199,.F.);
#66=ORIENTED_EDGE('',*,*,#200,.F.);
#67=ORIENTED_EDGE('',*,*,#196,.T.);
#68=ORIENTED_EDGE('',*,*,#182,.F.);
#69=ORIENTED_EDGE('',*,*,#201,.F.);
#70=ORIENTED_EDGE('',*,*,#202,.T.);
#71=ORIENTED_EDGE('',*,*,#199,.T.);
#72=ORIENTED_EDGE('',*,*,#181,.T.);
#73=ORIENTED_EDGE('',*,*,#203,.F.);
#74=ORIENTED_EDGE('',*,*,#204,.F.);
#75=ORIENTED_EDGE('',*,*,#201,.T.);
#76=ORIENTED_EDGE('',*,*,#180,.T.);
#77=ORIENTED_EDGE('',*,*,#205,.F.);
#78=ORIENTED_EDGE('',*,*,#206,.F.);
#79=ORIENTED_EDGE('',*,*,#203,.T.);
#80=ORIENTED_EDGE('',*,*,#179,.F.);
#81=ORIENTED_EDGE('',*,*,#207,.F.);
#82=ORIENTED_EDGE('',*,*,#208,.T.);
#83=ORIENTED_EDGE('',*,*,#205,.T.);
#84=ORIENTED_EDGE('',*,*,#178,.T.);
#85=ORIENTED_EDGE('',*,*,#209,.F.);
#86=ORIENTED_EDGE('',*,*,#210,.F.);
#87=ORIENTED_EDGE('',*,*,#207,.T.);
#88=ORIENTED_EDGE('',*,*,#177,.T.);
#89=ORIENTED_EDGE('',*,*,#211,.F.);
#90=ORIENTED_EDGE('',*,*,#212,.F.);
#91=ORIENTED_EDGE('',*,*,#209,.T.);
#92=ORIENTED_EDGE('',*,*,#176,.F.);
#93=ORIENTED_EDGE('',*,*,#213,.F.);
#94=ORIENTED_EDGE('',*,*,#214,.T.);
#95=ORIENTED_EDGE('',*,*,#211,.T.);
#96=ORIENTED_EDGE('',*,*,#175,.F.);
#97=ORIENTED_EDGE('',*,*,#215,.F.);
#98=ORIENTED_EDGE('',*,*,#216,.T.);
#99=ORIENTED_EDGE('',*,*,#213,.T.);
#100=ORIENTED_EDGE('',*,*,#174,.T.);
#101=ORIENTED_EDGE('',*,*,#217,.F.);
#102=ORIENTED_EDGE('',*,*,#218,.F.);
#103=ORIENTED_EDGE('',*,*,#215,.T.);
#104=ORIENTED_EDGE('',*,*,#219,.F.);
#105=ORIENTED_EDGE('',*,*,#186,.T.);
#106=ORIENTED_EDGE('',*,*,#220,.T.);
#107=ORIENTED_EDGE('',*,*,#185,.F.);
#108=ORIENTED_EDGE('',*,*,#221,.T.);
#109=ORIENTED_EDGE('',*,*,#184,.F.);
#110=ORIENTED_EDGE('',*,*,#173,.F.);
#111=ORIENTED_EDGE('',*,*,#198,.F.);
#112=ORIENTED_EDGE('',*,*,#222,.T.);
#113=ORIENTED_EDGE('',*,*,#217,.T.);
#114=ORIENTED_EDGE('',*,*,#223,.F.);
#115=ORIENTED_EDGE('',*,*,#187,.T.);
#116=ORIENTED_EDGE('',*,*,#197,.F.);
#117=ORIENTED_EDGE('',*,*,#200,.T.);
#118=ORIENTED_EDGE('',*,*,#202,.F.);
#119=ORIENTED_EDGE('',*,*,#204,.T.);
#120=ORIENTED_EDGE('',*,*,#206,.T.);
#121=ORIENTED_EDGE('',*,*,#208,.F.);
#122=ORIENTED_EDGE('',*,*,#210,.T.);
#123=ORIENTED_EDGE('',*,*,#212,.T.);
#124=ORIENTED_EDGE('',*,*,#214,.F.);
#125=ORIENTED_EDGE('',*,*,#216,.F.);
#126=ORIENTED_EDGE('',*,*,#218,.T.);
#127=ORIENTED_EDGE('',*,*,#222,.F.);
#128=ORIENTED_EDGE('',*,*,#221,.F.);
#129=ORIENTED_EDGE('',*,*,#220,.F.);
#130=ORIENTED_EDGE('',*,*,#219,.T.);
#131=ORIENTED_EDGE('',*,*,#223,.T.);
#132=ORIENTED_EDGE('',*,*,#189,.F.);
#133=ORIENTED_EDGE('',*,*,#224,.F.);
#134=ORIENTED_EDGE('',*,*,#225,.T.);
#135=ORIENTED_EDGE('',*,*,#226,.T.);
#136=ORIENTED_EDGE('',*,*,#188,.T.);
#137=ORIENTED_EDGE('',*,*,#227,.F.);
#138=ORIENTED_EDGE('',*,*,#228,.F.);
#139=ORIENTED_EDGE('',*,*,#224,.T.);
#140=ORIENTED_EDGE('',*,*,#195,.F.);
#141=ORIENTED_EDGE('',*,*,#229,.F.);
#142=ORIENTED_EDGE('',*,*,#230,.T.);
#143=ORIENTED_EDGE('',*,*,#227,.T.);
#144=ORIENTED_EDGE('',*,*,#194,.T.);
#145=ORIENTED_EDGE('',*,*,#231,.F.);
#146=ORIENTED_EDGE('',*,*,#232,.F.);
#147=ORIENTED_EDGE('',*,*,#229,.T.);
#148=ORIENTED_EDGE('',*,*,#193,.T.);
#149=ORIENTED_EDGE('',*,*,#233,.F.);
#150=ORIENTED_EDGE('',*,*,#234,.F.);
#151=ORIENTED_EDGE('',*,*,#231,.T.);
#152=ORIENTED_EDGE('',*,*,#192,.T.);
#153=ORIENTED_EDGE('',*,*,#235,.F.);
#154=ORIENTED_EDGE('',*,*,#236,.F.);
#155=ORIENTED_EDGE('',*,*,#233,.T.);
#156=ORIENTED_EDGE('',*,*,#191,.T.);
#157=ORIENTED_EDGE('',*,*,#237,.F.);
#158=ORIENTED_EDGE('',*,*,#238,.F.);
#159=ORIENTED_EDGE('',*,*,#235,.T.);
#160=ORIENTED_EDGE('',*,*,#190,.T.);
#161=ORIENTED_EDGE('',*,*,#226,.F.);
#162=ORIENTED_EDGE('',*,*,#239,.F.);
#163=ORIENTED_EDGE('',*,*,#237,.T.);
#164=ORIENTED_EDGE('',*,*,#225,.F.);
#165=ORIENTED_EDGE('',*,*,#228,.T.);
#166=ORIENTED_EDGE('',*,*,#230,.F.);
#167=ORIENTED_EDGE('',*,*,#232,.T.);
#168=ORIENTED_EDGE('',*,*,#234,.T.);
#169=ORIENTED_EDGE('',*,*,#236,.T.);
#170=ORIENTED_EDGE('',*,*,#238,.T.);
#171=ORIENTED_EDGE('',*,*,#239,.T.);
#172=EDGE_CURVE('',#240,#241,#288,.T.);
#173=EDGE_CURVE('',#241,#242,#289,.T.);
#174=EDGE_CURVE('',#243,#242,#290,.T.);
#175=EDGE_CURVE('',#243,#244,#291,.T.);
#176=EDGE_CURVE('',#244,#245,#292,.T.);
#177=EDGE_CURVE('',#246,#245,#293,.T.);
#178=EDGE_CURVE('',#247,#246,#294,.T.);
#179=EDGE_CURVE('',#247,#248,#295,.T.);
#180=EDGE_CURVE('',#249,#248,#296,.T.);
#181=EDGE_CURVE('',#250,#249,#297,.T.);
#182=EDGE_CURVE('',#250,#251,#298,.T.);
#183=EDGE_CURVE('',#240,#251,#299,.T.);
#184=EDGE_CURVE('',#252,#252,#20,.T.);
#185=EDGE_CURVE('',#253,#253,#21,.T.);
#186=EDGE_CURVE('',#254,#254,#22,.T.);
#187=EDGE_CURVE('',#255,#255,#23,.T.);
#188=EDGE_CURVE('',#256,#257,#24,.T.);
#189=EDGE_CURVE('',#256,#258,#300,.T.);
#190=EDGE_CURVE('',#259,#258,#25,.T.);
#191=EDGE_CURVE('',#260,#259,#301,.T.);
#192=EDGE_CURVE('',#261,#260,#26,.T.);
#193=EDGE_CURVE('',#262,#261,#302,.T.);
#194=EDGE_CURVE('',#263,#262,#27,.T.);
#195=EDGE_CURVE('',#263,#257,#303,.T.);
#196=EDGE_CURVE('',#264,#240,#304,.T.);
#197=EDGE_CURVE('',#264,#265,#305,.T.);
#198=EDGE_CURVE('',#265,#241,#306,.T.);
#199=EDGE_CURVE('',#266,#251,#307,.T.);
#200=EDGE_CURVE('',#264,#266,#308,.T.);
#201=EDGE_CURVE('',#267,#250,#309,.T.);
#202=EDGE_CURVE('',#267,#266,#310,.T.);
#203=EDGE_CURVE('',#268,#249,#311,.T.);
#204=EDGE_CURVE('',#267,#268,#312,.T.);
#205=EDGE_CURVE('',#269,#248,#313,.T.);
#206=EDGE_CURVE('',#268,#269,#314,.T.);
#207=EDGE_CURVE('',#270,#247,#315,.T.);
#208=EDGE_CURVE('',#270,#269,#316,.T.);
#209=EDGE_CURVE('',#271,#246,#317,.T.);
#210=EDGE_CURVE('',#270,#271,#318,.T.);
#211=EDGE_CURVE('',#272,#245,#319,.T.);
#212=EDGE_CURVE('',#271,#272,#320,.T.);
#213=EDGE_CURVE('',#273,#244,#321,.T.);
#214=EDGE_CURVE('',#273,#272,#322,.T.);
#215=EDGE_CURVE('',#274,#243,#323,.T.);
#216=EDGE_CURVE('',#274,#273,#324,.T.);
#217=EDGE_CURVE('',#275,#242,#325,.T.);
#218=EDGE_CURVE('',#274,#275,#326,.T.);
#219=EDGE_CURVE('',#276,#276,#28,.T.);
#220=EDGE_CURVE('',#277,#277,#29,.T.);
#221=EDGE_CURVE('',#278,#278,#30,.T.);
#222=EDGE_CURVE('',#265,#275,#327,.T.);
#223=EDGE_CURVE('',#279,#279,#31,.T.);
#224=EDGE_CURVE('',#280,#256,#328,.T.);
#225=EDGE_CURVE('',#280,#281,#329,.T.);
#226=EDGE_CURVE('',#281,#258,#330,.T.);
#227=EDGE_CURVE('',#282,#257,#331,.T.);
#228=EDGE_CURVE('',#280,#282,#32,.T.);
#229=EDGE_CURVE('',#283,#263,#332,.T.);
#230=EDGE_CURVE('',#283,#282,#333,.T.);
#231=EDGE_CURVE('',#284,#262,#334,.T.);
#232=EDGE_CURVE('',#283,#284,#33,.T.);
#233=EDGE_CURVE('',#285,#261,#335,.T.);
#234=EDGE_CURVE('',#284,#285,#336,.T.);
#235=EDGE_CURVE('',#286,#260,#337,.T.);
#236=EDGE_CURVE('',#285,#286,#34,.T.);
#237=EDGE_CURVE('',#287,#259,#338,.T.);
#238=EDGE_CURVE('',#286,#287,#339,.T.);
#239=EDGE_CURVE('',#287,#281,#35,.T.);
#240=VERTEX_POINT('',#717);
#241=VERTEX_POINT('',#718);
#242=VERTEX_POINT('',#720);
#243=VERTEX_POINT('',#722);
#244=VERTEX_POINT('',#724);
#245=VERTEX_POINT('',#726);
#246=VERTEX_POINT('',#728);
#247=VERTEX_POINT('',#730);
#248=VERTEX_POINT('',#732);
#249=VERTEX_POINT('',#734);
#250=VERTEX_POINT('',#736);
#251=VERTEX_POINT('',#738);
#252=VERTEX_POINT('',#741);
#253=VERTEX_POINT('',#743);
#254=VERTEX_POINT('',#745);
#255=VERTEX_POINT('',#747);
#256=VERTEX_POINT('',#749);
#257=VERTEX_POINT('',#750);
#258=VERTEX_POINT('',#752);
#259=VERTEX_POINT('',#754);
#260=VERTEX_POINT('',#756);
#261=VERTEX_POINT('',#758);
#262=VERTEX_POINT('',#760);
#263=VERTEX_POINT('',#762);
#264=VERTEX_POINT('',#766);
#265=VERTEX_POINT('',#768);
#266=VERTEX_POINT('',#772);
#267=VERTEX_POINT('',#776);
#268=VERTEX_POINT('',#780);
#269=VERTEX_POINT('',#784);
#270=VERTEX_POINT('',#788);
#271=VERTEX_POINT('',#792);
#272=VERTEX_POINT('',#796);
#273=VERTEX_POINT('',#800);
#274=VERTEX_POINT('',#804);
#275=VERTEX_POINT('',#808);
#276=VERTEX_POINT('',#812);
#277=VERTEX_POINT('',#815);
#278=VERTEX_POINT('',#818);
#279=VERTEX_POINT('',#823);
#280=VERTEX_POINT('',#827);
#281=VERTEX_POINT('',#829);
#282=VERTEX_POINT('',#833);
#283=VERTEX_POINT('',#837);
#284=VERTEX_POINT('',#841);
#285=VERTEX_POINT('',#845);
#286=VERTEX_POINT('',#849);
#287=VERTEX_POINT('',#853);
#288=LINE('',#716,#340);
#289=LINE('',#719,#341);
#290=LINE('',#721,#342);
#291=LINE('',#723,#343);
#292=LINE('',#725,#344);
#293=LINE('',#727,#345);
#294=LINE('',#729,#346);
#295=LINE('',#731,#347);
#296=LINE('',#733,#348);
#297=LINE('',#735,#349);
#298=LINE('',#737,#350);
#299=LINE('',#739,#351);
#300=LINE('',#751,#352);
#301=LINE('',#755,#353);
#302=LINE('',#759,#354);
#303=LINE('',#763,#355);
#304=LINE('',#765,#356);
#305=LINE('',#767,#357);
#306=LINE('',#769,#358);
#307=LINE('',#771,#359);
#308=LINE('',#773,#360);
#309=LINE('',#775,#361);
#310=LINE('',#777,#362);
#311=LINE('',#779,#363);
#312=LINE('',#781,#364);
#313=LINE('',#783,#365);
#314=LINE('',#785,#366);
#315=LINE('',#787,#367);
#316=LINE('',#789,#368);
#317=LINE('',#791,#369);
#318=LINE('',#793,#370);
#319=LINE('',#795,#371);
#320=LINE('',#797,#372);
#321=LINE('',#799,#373);
#322=LINE('',#801,#374);
#323=LINE('',#803,#375);
#324=LINE('',#805,#376);
#325=LINE('',#807,#377);
#326=LINE('',#809,#378);
#327=LINE('',#820,#379);
#328=LINE('',#826,#380);
#329=LINE('',#828,#381);
#330=LINE('',#830,#382);
#331=LINE('',#832,#383);
#332=LINE('',#836,#384);
#333=LINE('',#838,#385);
#334=LINE('',#840,#386);
#335=LINE('',#844,#387);
#336=LINE('',#846,#388);
#337=LINE('',#848,#389);
#338=LINE('',#852,#390);
#339=LINE('',#854,#391);
#340=VECTOR('',#578,1.);
#341=VECTOR('',#579,1.);
#342=VECTOR('',#580,1.);
#343=VECTOR('',#581,1.);
#344=VECTOR('',#582,1.);
#345=VECTOR('',#583,1.);
#346=VECTOR('',#584,1.);
#347=VECTOR('',#585,1.);
#348=VECTOR('',#586,1.);
#349=VECTOR('',#587,1.);
#350=VECTOR('',#588,1.);
#351=VECTOR('',#589,1.);
#352=VECTOR('',#600,1.);
#353=VECTOR('',#603,1.);
#354=VECTOR('',#606,1.);
#355=VECTOR('',#609,1.);
#356=VECTOR('',#612,1.);
#357=VECTOR('',#613,1.);
#358=VECTOR('',#614,1.);
#359=VECTOR('',#617,1.);
#360=VECTOR('',#618,1.);
#361=VECTOR('',#621,1.);
#362=VECTOR('',#622,1.);
#363=VECTOR('',#625,1.);
#364=VECTOR('',#626,1.);
#365=VECTOR('',#629,1.);
#366=VECTOR('',#630,1.);
#367=VECTOR('',#633,1.);
#368=VECTOR('',#634,1.);
#369=VECTOR('',#637,1.);
#370=VECTOR('',#638,1.);
#371=VECTOR('',#641,1.);
#372=VECTOR('',#642,1.);
#373=VECTOR('',#645,1.);
#374=VECTOR('',#646,1.);
#375=VECTOR('',#649,1.);
#376=VECTOR('',#650,1.);
#377=VECTOR('',#653,1.);
#378=VECTOR('',#654,1.);
#379=VECTOR('',#669,1.);
#380=VECTOR('',#678,1.);
#381=VECTOR('',#679,1.);
#382=VECTOR('',#680,1.);
#383=VECTOR('',#683,1.);
#384=VECTOR('',#688,1.);
#385=VECTOR('',#689,1.);
#386=VECTOR('',#692,1.);
#387=VECTOR('',#697,1.);
#388=VECTOR('',#698,1.);
#389=VECTOR('',#701,1.);
#390=VECTOR('',#706,1.);
#391=VECTOR('',#707,1.);
#392=EDGE_LOOP('',(#36,#37,#38,#39,#40,#41,#42,#43,#44,#45,#46,#47));
#393=EDGE_LOOP('',(#48));
#394=EDGE_LOOP('',(#49));
#395=EDGE_LOOP('',(#50));
#396=EDGE_LOOP('',(#51));
#397=EDGE_LOOP('',(#52,#53,#54,#55,#56,#57,#58,#59));
#398=EDGE_LOOP('',(#60,#61,#62,#63));
#399=EDGE_LOOP('',(#64,#65,#66,#67));
#400=EDGE_LOOP('',(#68,#69,#70,#71));
#401=EDGE_LOOP('',(#72,#73,#74,#75));
#402=EDGE_LOOP('',(#76,#77,#78,#79));
#403=EDGE_LOOP('',(#80,#81,#82,#83));
#404=EDGE_LOOP('',(#84,#85,#86,#87));
#405=EDGE_LOOP('',(#88,#89,#90,#91));
#406=EDGE_LOOP('',(#92,#93,#94,#95));
#407=EDGE_LOOP('',(#96,#97,#98,#99));
#408=EDGE_LOOP('',(#100,#101,#102,#103));
#409=EDGE_LOOP('',(#104));
#410=EDGE_LOOP('',(#105));
#411=EDGE_LOOP('',(#106));
#412=EDGE_LOOP('',(#107));
#413=EDGE_LOOP('',(#108));
#414=EDGE_LOOP('',(#109));
#415=EDGE_LOOP('',(#110,#111,#112,#113));
#416=EDGE_LOOP('',(#114));
#417=EDGE_LOOP('',(#115));
#418=EDGE_LOOP('',(#116,#117,#118,#119,#120,#121,#122,#123,#124,#125,#126,
#127));
#419=EDGE_LOOP('',(#128));
#420=EDGE_LOOP('',(#129));
#421=EDGE_LOOP('',(#130));
#422=EDGE_LOOP('',(#131));
#423=EDGE_LOOP('',(#132,#133,#134,#135));
#424=EDGE_LOOP('',(#136,#137,#138,#139));
#425=EDGE_LOOP('',(#140,#141,#142,#143));
#426=EDGE_LOOP('',(#144,#145,#146,#147));
#427=EDGE_LOOP('',(#148,#149,#150,#151));
#428=EDGE_LOOP('',(#152,#153,#154,#155));
#429=EDGE_LOOP('',(#156,#157,#158,#159));
#430=EDGE_LOOP('',(#160,#161,#162,#163));
#431=EDGE_LOOP('',(#164,#165,#166,#167,#168,#169,#170,#171));
#432=FACE_BOUND('',#392,.T.);
#433=FACE_BOUND('',#393,.T.);
#434=FACE_BOUND('',#394,.T.);
#435=FACE_BOUND('',#395,.T.);
#436=FACE_BOUND('',#396,.T.);
#437=FACE_BOUND('',#397,.T.);
#438=FACE_BOUND('',#398,.T.);
#439=FACE_BOUND('',#399,.T.);
#440=FACE_BOUND('',#400,.T.);
#441=FACE_BOUND('',#401,.T.);
#442=FACE_BOUND('',#402,.T.);
#443=FACE_BOUND('',#403,.T.);
#444=FACE_BOUND('',#404,.T.);
#445=FACE_BOUND('',#405,.T.);
#446=FACE_BOUND('',#406,.T.);
#447=FACE_BOUND('',#407,.T.);
#448=FACE_BOUND('',#408,.T.);
#449=FACE_BOUND('',#409,.T.);
#450=FACE_BOUND('',#410,.T.);
#451=FACE_BOUND('',#411,.T.);
#452=FACE_BOUND('',#412,.T.);
#453=FACE_BOUND('',#413,.T.);
#454=FACE_BOUND('',#414,.T.);
#455=FACE_BOUND('',#415,.T.);
#456=FACE_BOUND('',#416,.T.);
#457=FACE_BOUND('',#417,.T.);
#458=FACE_BOUND('',#418,.T.);
#459=FACE_BOUND('',#419,.T.);
#460=FACE_BOUND('',#420,.T.);
#461=FACE_BOUND('',#421,.T.);
#462=FACE_BOUND('',#422,.T.);
#463=FACE_BOUND('',#423,.T.);
#464=FACE_BOUND('',#424,.T.);
#465=FACE_BOUND('',#425,.T.);
#466=FACE_BOUND('',#426,.T.);
#467=FACE_BOUND('',#427,.T.);
#468=FACE_BOUND('',#428,.T.);
#469=FACE_BOUND('',#429,.T.);
#470=FACE_BOUND('',#430,.T.);
#471=FACE_BOUND('',#431,.T.);
#472=PLANE('',#531);
#473=PLANE('',#540);
#474=PLANE('',#541);
#475=PLANE('',#542);
#476=PLANE('',#543);
#477=PLANE('',#544);
#478=PLANE('',#545);
#479=PLANE('',#546);
#480=PLANE('',#547);
#481=PLANE('',#548);
#482=PLANE('',#549);
#483=PLANE('',#550);
#484=PLANE('',#557);
#485=PLANE('',#560);
#486=PLANE('',#561);
#487=PLANE('',#564);
#488=PLANE('',#567);
#489=PLANE('',#570);
#490=PLANE('',#573);
#491=ADVANCED_FACE('',(#432,#433,#434,#435,#436,#437),#472,.F.);
#492=ADVANCED_FACE('',(#438),#473,.T.);
#493=ADVANCED_FACE('',(#439),#474,.F.);
#494=ADVANCED_FACE('',(#440),#475,.T.);
#495=ADVANCED_FACE('',(#441),#476,.F.);
#496=ADVANCED_FACE('',(#442),#477,.F.);
#497=ADVANCED_FACE('',(#443),#478,.T.);
#498=ADVANCED_FACE('',(#444),#479,.F.);
#499=ADVANCED_FACE('',(#445),#480,.F.);
#500=ADVANCED_FACE('',(#446),#481,.T.);
#501=ADVANCED_FACE('',(#447),#482,.T.);
#502=ADVANCED_FACE('',(#448),#483,.F.);
#503=ADVANCED_FACE('',(#449,#450),#12,.F.);
#504=ADVANCED_FACE('',(#451,#452),#13,.F.);
#505=ADVANCED_FACE('',(#453,#454),#14,.F.);
#506=ADVANCED_FACE('',(#455),#484,.T.);
#507=ADVANCED_FACE('',(#456,#457),#15,.F.);
#508=ADVANCED_FACE('',(#458,#459,#460,#461,#462),#485,.T.);
#509=ADVANCED_FACE('',(#463),#486,.T.);
#510=ADVANCED_FACE('',(#464),#16,.T.);
#511=ADVANCED_FACE('',(#465),#487,.T.);
#512=ADVANCED_FACE('',(#466),#17,.T.);
#513=ADVANCED_FACE('',(#467),#488,.F.);
#514=ADVANCED_FACE('',(#468),#18,.T.);
#515=ADVANCED_FACE('',(#469),#489,.F.);
#516=ADVANCED_FACE('',(#470),#19,.T.);
#517=ADVANCED_FACE('',(#471),#490,.T.);
#518=CLOSED_SHELL('',(#491,#492,#493,#494,#495,#496,#497,#498,#499,#500,
#501,#502,#503,#504,#505,#506,#507,#508,#509,#510,#511,#512,#513,#514,#515,
#516,#517));
#519=STYLED_ITEM('',(#520),#527);
#520=PRESENTATION_STYLE_ASSIGNMENT((#521));
#521=SURFACE_STYLE_USAGE(.BOTH.,#522);
#522=SURFACE_SIDE_STYLE('',(#523));
#523=SURFACE_STYLE_FILL_AREA(#524);
#524=FILL_AREA_STYLE('',(#525));
#525=FILL_AREA_STYLE_COLOUR('',#526);
#526=DRAUGHTING_PRE_DEFINED_COLOUR('white');
#527=MANIFOLD_SOLID_BREP('Part 1',#518);
#528=SHAPE_DEFINITION_REPRESENTATION(#864,#529);
#529=SHAPE_REPRESENTATION('Part 1',(#530),#859);
#530=AXIS2_PLACEMENT_3D('',#714,#574,#575);
#531=AXIS2_PLACEMENT_3D('',#715,#576,#577);
#532=AXIS2_PLACEMENT_3D('',#740,#590,#591);
#533=AXIS2_PLACEMENT_3D('',#742,#592,#593);
#534=AXIS2_PLACEMENT_3D('',#744,#594,#595);
#535=AXIS2_PLACEMENT_3D('',#746,#596,#597);
#536=AXIS2_PLACEMENT_3D('',#748,#598,#599);
#537=AXIS2_PLACEMENT_3D('',#753,#601,#602);
#538=AXIS2_PLACEMENT_3D('',#757,#604,#605);
#539=AXIS2_PLACEMENT_3D('',#761,#607,#608);
#540=AXIS2_PLACEMENT_3D('',#764,#610,#611);
#541=AXIS2_PLACEMENT_3D('',#770,#615,#616);
#542=AXIS2_PLACEMENT_3D('',#774,#619,#620);
#543=AXIS2_PLACEMENT_3D('',#778,#623,#624);
#544=AXIS2_PLACEMENT_3D('',#782,#627,#628);
#545=AXIS2_PLACEMENT_3D('',#786,#631,#632);
#546=AXIS2_PLACEMENT_3D('',#790,#635,#636);
#547=AXIS2_PLACEMENT_3D('',#794,#639,#640);
#548=AXIS2_PLACEMENT_3D('',#798,#643,#644);
#549=AXIS2_PLACEMENT_3D('',#802,#647,#648);
#550=AXIS2_PLACEMENT_3D('',#806,#651,#652);
#551=AXIS2_PLACEMENT_3D('',#810,#655,#656);
#552=AXIS2_PLACEMENT_3D('',#811,#657,#658);
#553=AXIS2_PLACEMENT_3D('',#813,#659,#660);
#554=AXIS2_PLACEMENT_3D('',#814,#661,#662);
#555=AXIS2_PLACEMENT_3D('',#816,#663,#664);
#556=AXIS2_PLACEMENT_3D('',#817,#665,#666);
#557=AXIS2_PLACEMENT_3D('',#819,#667,#668);
#558=AXIS2_PLACEMENT_3D('',#821,#670,#671);
#559=AXIS2_PLACEMENT_3D('',#822,#672,#673);
#560=AXIS2_PLACEMENT_3D('',#824,#674,#675);
#561=AXIS2_PLACEMENT_3D('',#825,#676,#677);
#562=AXIS2_PLACEMENT_3D('',#831,#681,#682);
#563=AXIS2_PLACEMENT_3D('',#834,#684,#685);
#564=AXIS2_PLACEMENT_3D('',#835,#686,#687);
#565=AXIS2_PLACEMENT_3D('',#839,#690,#691);
#566=AXIS2_PLACEMENT_3D('',#842,#693,#694);
#567=AXIS2_PLACEMENT_3D('',#843,#695,#696);
#568=AXIS2_PLACEMENT_3D('',#847,#699,#700);
#569=AXIS2_PLACEMENT_3D('',#850,#702,#703);
#570=AXIS2_PLACEMENT_3D('',#851,#704,#705);
#571=AXIS2_PLACEMENT_3D('',#855,#708,#709);
#572=AXIS2_PLACEMENT_3D('',#856,#710,#711);
#573=AXIS2_PLACEMENT_3D('',#857,#712,#713);
#574=DIRECTION('',(0.,0.,1.));
#575=DIRECTION('',(1.,0.,0.));
#576=DIRECTION('',(1.,0.,0.));
#577=DIRECTION('',(0.,1.,0.));
#578=DIRECTION('',(0.,0.,1.));
#579=DIRECTION('',(0.,1.,0.));
#580=DIRECTION('',(0.,0.,1.));
#581=DIRECTION('',(0.,1.,0.));
#582=DIRECTION('',(0.,0.,1.));
#583=DIRECTION('',(0.,-1.,0.));
#584=DIRECTION('',(0.,0.,1.));
#585=DIRECTION('',(0.,-1.,0.));
#586=DIRECTION('',(0.,0.,-1.));
#587=DIRECTION('',(0.,1.,0.));
#588=DIRECTION('',(0.,0.,-1.));
#589=DIRECTION('',(0.,1.,0.));
#590=DIRECTION('',(1.,0.,0.));
#591=DIRECTION('',(0.,0.,-1.));
#592=DIRECTION('',(1.,0.,0.));
#593=DIRECTION('',(0.,0.,-1.));
#594=DIRECTION('',(-1.,0.,0.));
#595=DIRECTION('',(0.,0.,-1.));
#596=DIRECTION('',(-1.,0.,0.));
#597=DIRECTION('',(0.,0.,-1.));
#598=DIRECTION('',(-1.,0.,0.));
#599=DIRECTION('',(0.,0.,1.));
#600=DIRECTION('',(0.,1.79454152687256E-16,-1.));
#601=DIRECTION('',(-1.,0.,0.));
#602=DIRECTION('',(0.,0.,1.));
#603=DIRECTION('',(0.,-1.,0.));
#604=DIRECTION('',(-1.,0.,0.));
#605=DIRECTION('',(0.,0.,1.));
#606=DIRECTION('',(0.,1.79454152687256E-16,-1.));
#607=DIRECTION('',(-1.,0.,0.));
#608=DIRECTION('',(0.,0.,1.));
#609=DIRECTION('',(0.,-1.,0.));
#610=DIRECTION('',(0.,-1.,0.));
#611=DIRECTION('',(0.,0.,-1.));
#612=DIRECTION('',(-1.,0.,0.));
#613=DIRECTION('',(0.,0.,1.));
#614=DIRECTION('',(-1.,0.,0.));
#615=DIRECTION('',(0.,0.,1.));
#616=DIRECTION('',(1.,0.,0.));
#617=DIRECTION('',(-1.,0.,0.));
#618=DIRECTION('',(0.,1.,0.));
#619=DIRECTION('',(0.,1.,0.));
#620=DIRECTION('',(0.,0.,1.));
#621=DIRECTION('',(-1.,0.,0.));
#622=DIRECTION('',(0.,0.,-1.));
#623=DIRECTION('',(0.,0.,1.));
#624=DIRECTION('',(1.,0.,0.));
#625=DIRECTION('',(-1.,0.,0.));
#626=DIRECTION('',(0.,1.,0.));
#627=DIRECTION('',(0.,1.,0.));
#628=DIRECTION('',(0.,0.,1.));
#629=DIRECTION('',(-1.,0.,0.));
#630=DIRECTION('',(0.,0.,-1.));
#631=DIRECTION('',(0.,0.,-1.));
#632=DIRECTION('',(-1.,0.,0.));
#633=DIRECTION('',(-1.,0.,0.));
#634=DIRECTION('',(0.,-1.,0.));
#635=DIRECTION('',(0.,-1.,0.));
#636=DIRECTION('',(0.,0.,-1.));
#637=DIRECTION('',(-1.,0.,0.));
#638=DIRECTION('',(0.,0.,1.));
#639=DIRECTION('',(0.,0.,-1.));
#640=DIRECTION('',(-1.,0.,0.));
#641=DIRECTION('',(-1.,0.,0.));
#642=DIRECTION('',(0.,-1.,0.));
#643=DIRECTION('',(0.,-1.,0.));
#644=DIRECTION('',(0.,0.,-1.));
#645=DIRECTION('',(-1.,0.,0.));
#646=DIRECTION('',(0.,0.,1.));
#647=DIRECTION('',(0.,0.,1.));
#648=DIRECTION('',(1.,0.,0.));
#649=DIRECTION('',(-1.,0.,0.));
#650=DIRECTION('',(0.,1.,0.));
#651=DIRECTION('',(0.,-1.,0.));
#652=DIRECTION('',(0.,0.,-1.));
#653=DIRECTION('',(-1.,0.,0.));
#654=DIRECTION('',(0.,0.,1.));
#655=DIRECTION('',(-1.,0.,0.));
#656=DIRECTION('',(0.,0.,1.));
#657=DIRECTION('',(-1.,0.,0.));
#658=DIRECTION('',(0.,0.,-1.));
#659=DIRECTION('',(-1.,0.,0.));
#660=DIRECTION('',(0.,0.,1.));
#661=DIRECTION('',(1.,0.,0.));
#662=DIRECTION('',(0.,0.,-1.));
#663=DIRECTION('',(-1.,0.,0.));
#664=DIRECTION('',(0.,0.,1.));
#665=DIRECTION('',(1.,0.,0.));
#666=DIRECTION('',(0.,0.,-1.));
#667=DIRECTION('',(0.,0.,1.));
#668=DIRECTION('',(1.,0.,0.));
#669=DIRECTION('',(0.,1.,0.));
#670=DIRECTION('',(-1.,0.,0.));
#671=DIRECTION('',(0.,0.,1.));
#672=DIRECTION('',(-1.,0.,0.));
#673=DIRECTION('',(0.,0.,-1.));
#674=DIRECTION('',(1.,0.,0.));
#675=DIRECTION('',(0.,1.,0.));
#676=DIRECTION('',(0.,-1.,-1.79454152687256E-16));
#677=DIRECTION('',(0.,1.79454152687256E-16,-1.));
#678=DIRECTION('',(1.,0.,0.));
#679=DIRECTION('',(0.,1.79454152687256E-16,-1.));
#680=DIRECTION('',(1.,0.,0.));
#681=DIRECTION('',(1.,0.,0.));
#682=DIRECTION('',(0.,0.,-1.));
#683=DIRECTION('',(1.,0.,0.));
#684=DIRECTION('',(-1.,0.,0.));
#685=DIRECTION('',(0.,0.,1.));
#686=DIRECTION('',(0.,0.,1.));
#687=DIRECTION('',(1.,0.,0.));
#688=DIRECTION('',(1.,0.,0.));
#689=DIRECTION('',(0.,-1.,0.));
#690=DIRECTION('',(1.,0.,0.));
#691=DIRECTION('',(0.,0.,-1.));
#692=DIRECTION('',(1.,0.,0.));
#693=DIRECTION('',(-1.,0.,0.));
#694=DIRECTION('',(0.,0.,1.));
#695=DIRECTION('',(0.,-1.,-1.79454152687256E-16));
#696=DIRECTION('',(0.,1.79454152687256E-16,-1.));
#697=DIRECTION('',(1.,0.,0.));
#698=DIRECTION('',(0.,1.79454152687256E-16,-1.));
#699=DIRECTION('',(1.,0.,0.));
#700=DIRECTION('',(0.,0.,-1.));
#701=DIRECTION('',(1.,0.,0.));
#702=DIRECTION('',(-1.,0.,0.));
#703=DIRECTION('',(0.,0.,1.));
#704=DIRECTION('',(0.,0.,1.));
#705=DIRECTION('',(1.,0.,0.));
#706=DIRECTION('',(1.,0.,0.));
#707=DIRECTION('',(0.,-1.,0.));
#708=DIRECTION('',(1.,0.,0.));
#709=DIRECTION('',(0.,0.,-1.));
#710=DIRECTION('',(-1.,0.,0.));
#711=DIRECTION('',(0.,0.,1.));
#712=DIRECTION('',(-1.,0.,0.));
#713=DIRECTION('',(0.,-1.,0.));
#714=CARTESIAN_POINT('',(0.,0.,0.));
#715=CARTESIAN_POINT('',(0.,0.,0.));
#716=CARTESIAN_POINT('',(0.,-0.062,0.065625));
#717=CARTESIAN_POINT('',(0.,-0.062,-0.06625));
#718=CARTESIAN_POINT('',(0.,-0.062,0.06625));
#719=CARTESIAN_POINT('',(0.,-0.05875,0.06625));
#720=CARTESIAN_POINT('',(0.,-0.0555,0.06625));
#721=CARTESIAN_POINT('',(0.,-0.0555,0.065625));
#722=CARTESIAN_POINT('',(0.,-0.0555,0.065));
#723=CARTESIAN_POINT('',(0.,-6.93889390390723E-18,0.065));
#724=CARTESIAN_POINT('',(0.,0.0555,0.065));
#725=CARTESIAN_POINT('',(0.,0.0555,0.065625));
#726=CARTESIAN_POINT('',(0.,0.0555,0.06625));
#727=CARTESIAN_POINT('',(0.,0.05875,0.06625));
#728=CARTESIAN_POINT('',(0.,0.062,0.06625));
#729=CARTESIAN_POINT('',(0.,0.062,0.065625));
#730=CARTESIAN_POINT('',(0.,0.062,-0.06625));
#731=CARTESIAN_POINT('',(0.,0.05875,-0.06625));
#732=CARTESIAN_POINT('',(0.,0.0555,-0.06625));
#733=CARTESIAN_POINT('',(0.,0.0555,-0.065625));
#734=CARTESIAN_POINT('',(0.,0.0555,-0.065));
#735=CARTESIAN_POINT('',(0.,-6.93889390390723E-18,-0.065));
#736=CARTESIAN_POINT('',(0.,-0.0555,-0.065));
#737=CARTESIAN_POINT('',(0.,-0.0555,-0.065625));
#738=CARTESIAN_POINT('',(0.,-0.0555,-0.06625));
#739=CARTESIAN_POINT('',(0.,-0.05875,-0.06625));
#740=CARTESIAN_POINT('',(0.,0.05875,0.063));
#741=CARTESIAN_POINT('',(0.,0.05875,0.0615));
#742=CARTESIAN_POINT('',(0.,-0.05875,0.063));
#743=CARTESIAN_POINT('',(0.,-0.05875,0.0615));
#744=CARTESIAN_POINT('',(0.,0.05875,-0.063));
#745=CARTESIAN_POINT('',(0.,0.05875,-0.0645));
#746=CARTESIAN_POINT('',(0.,-0.05875,-0.063));
#747=CARTESIAN_POINT('',(0.,-0.05875,-0.0645));
#748=CARTESIAN_POINT('',(0.,-0.058,0.058));
#749=CARTESIAN_POINT('',(0.,-0.06,0.058));
#750=CARTESIAN_POINT('',(0.,-0.058,0.06));
#751=CARTESIAN_POINT('',(0.,-0.06,-6.93889390390723E-18));
#752=CARTESIAN_POINT('',(0.,-0.06,-0.058));
#753=CARTESIAN_POINT('',(0.,-0.058,-0.058));
#754=CARTESIAN_POINT('',(0.,-0.058,-0.06));
#755=CARTESIAN_POINT('',(0.,2.08166817117217E-17,-0.06));
#756=CARTESIAN_POINT('',(0.,0.058,-0.06));
#757=CARTESIAN_POINT('',(0.,0.058,-0.058));
#758=CARTESIAN_POINT('',(0.,0.06,-0.058));
#759=CARTESIAN_POINT('',(0.,0.06,-6.93889390390723E-18));
#760=CARTESIAN_POINT('',(0.,0.06,0.058));
#761=CARTESIAN_POINT('',(0.,0.058,0.058));
#762=CARTESIAN_POINT('',(0.,0.058,0.06));
#763=CARTESIAN_POINT('',(0.,0.,0.06));
#764=CARTESIAN_POINT('',(0.0015,-0.062,0.065625));
#765=CARTESIAN_POINT('',(0.0015,-0.062,-0.06625));
#766=CARTESIAN_POINT('',(0.0015,-0.062,-0.06625));
#767=CARTESIAN_POINT('',(0.0015,-0.062,0.065625));
#768=CARTESIAN_POINT('',(0.0015,-0.062,0.06625));
#769=CARTESIAN_POINT('',(0.0015,-0.062,0.06625));
#770=CARTESIAN_POINT('',(0.0015,-0.05875,-0.06625));
#771=CARTESIAN_POINT('',(0.0015,-0.0555,-0.06625));
#772=CARTESIAN_POINT('',(0.0015,-0.0555,-0.06625));
#773=CARTESIAN_POINT('',(0.0015,-0.05875,-0.06625));
#774=CARTESIAN_POINT('',(0.0015,-0.0555,-0.065625));
#775=CARTESIAN_POINT('',(0.0015,-0.0555,-0.065));
#776=CARTESIAN_POINT('',(0.0015,-0.0555,-0.065));
#777=CARTESIAN_POINT('',(0.0015,-0.0555,-0.065625));
#778=CARTESIAN_POINT('',(0.0015,-6.93889390390723E-18,-0.065));
#779=CARTESIAN_POINT('',(0.0015,0.0555,-0.065));
#780=CARTESIAN_POINT('',(0.0015,0.0555,-0.065));
#781=CARTESIAN_POINT('',(0.0015,-6.93889390390723E-18,-0.065));
#782=CARTESIAN_POINT('',(0.0015,0.0555,-0.065625));
#783=CARTESIAN_POINT('',(0.0015,0.0555,-0.06625));
#784=CARTESIAN_POINT('',(0.0015,0.0555,-0.06625));
#785=CARTESIAN_POINT('',(0.0015,0.0555,-0.065625));
#786=CARTESIAN_POINT('',(0.0015,0.05875,-0.06625));
#787=CARTESIAN_POINT('',(0.0015,0.062,-0.06625));
#788=CARTESIAN_POINT('',(0.0015,0.062,-0.06625));
#789=CARTESIAN_POINT('',(0.0015,0.05875,-0.06625));
#790=CARTESIAN_POINT('',(0.0015,0.062,0.065625));
#791=CARTESIAN_POINT('',(0.0015,0.062,0.06625));
#792=CARTESIAN_POINT('',(0.0015,0.062,0.06625));
#793=CARTESIAN_POINT('',(0.0015,0.062,0.065625));
#794=CARTESIAN_POINT('',(0.0015,0.05875,0.06625));
#795=CARTESIAN_POINT('',(0.0015,0.0555,0.06625));
#796=CARTESIAN_POINT('',(0.0015,0.0555,0.06625));
#797=CARTESIAN_POINT('',(0.0015,0.05875,0.06625));
#798=CARTESIAN_POINT('',(0.0015,0.0555,0.065625));
#799=CARTESIAN_POINT('',(0.0015,0.0555,0.065));
#800=CARTESIAN_POINT('',(0.0015,0.0555,0.065));
#801=CARTESIAN_POINT('',(0.0015,0.0555,0.065625));
#802=CARTESIAN_POINT('',(0.0015,-6.93889390390723E-18,0.065));
#803=CARTESIAN_POINT('',(0.0015,-0.0555,0.065));
#804=CARTESIAN_POINT('',(0.0015,-0.0555,0.065));
#805=CARTESIAN_POINT('',(0.0015,-6.93889390390723E-18,0.065));
#806=CARTESIAN_POINT('',(0.0015,-0.0555,0.065625));
#807=CARTESIAN_POINT('',(0.0015,-0.0555,0.06625));
#808=CARTESIAN_POINT('',(0.0015,-0.0555,0.06625));
#809=CARTESIAN_POINT('',(0.0015,-0.0555,0.065625));
#810=CARTESIAN_POINT('',(0.0015,0.05875,-0.063));
#811=CARTESIAN_POINT('',(0.0015,0.05875,-0.063));
#812=CARTESIAN_POINT('',(0.0015,0.05875,-0.0645));
#813=CARTESIAN_POINT('',(0.0015,-0.05875,0.063));
#814=CARTESIAN_POINT('',(0.0015,-0.05875,0.063));
#815=CARTESIAN_POINT('',(0.0015,-0.05875,0.0615));
#816=CARTESIAN_POINT('',(0.0015,0.05875,0.063));
#817=CARTESIAN_POINT('',(0.0015,0.05875,0.063));
#818=CARTESIAN_POINT('',(0.0015,0.05875,0.0615));
#819=CARTESIAN_POINT('',(0.0015,-0.05875,0.06625));
#820=CARTESIAN_POINT('',(0.0015,-0.05875,0.06625));
#821=CARTESIAN_POINT('',(0.0015,-0.05875,-0.063));
#822=CARTESIAN_POINT('',(0.0015,-0.05875,-0.063));
#823=CARTESIAN_POINT('',(0.0015,-0.05875,-0.0645));
#824=CARTESIAN_POINT('',(0.0015,0.,0.));
#825=CARTESIAN_POINT('',(-0.003,-0.06,-6.93889390390723E-18));
#826=CARTESIAN_POINT('',(-0.003,-0.06,0.058));
#827=CARTESIAN_POINT('',(-0.003,-0.06,0.058));
#828=CARTESIAN_POINT('',(-0.003,-0.06,-6.93889390390723E-18));
#829=CARTESIAN_POINT('',(-0.003,-0.06,-0.058));
#830=CARTESIAN_POINT('',(-0.003,-0.06,-0.058));
#831=CARTESIAN_POINT('',(-0.003,-0.058,0.058));
#832=CARTESIAN_POINT('',(-0.003,-0.058,0.06));
#833=CARTESIAN_POINT('',(-0.003,-0.058,0.06));
#834=CARTESIAN_POINT('',(-0.003,-0.058,0.058));
#835=CARTESIAN_POINT('',(-0.003,0.,0.06));
#836=CARTESIAN_POINT('',(-0.003,0.058,0.06));
#837=CARTESIAN_POINT('',(-0.003,0.058,0.06));
#838=CARTESIAN_POINT('',(-0.003,0.,0.06));
#839=CARTESIAN_POINT('',(-0.003,0.058,0.058));
#840=CARTESIAN_POINT('',(-0.003,0.06,0.058));
#841=CARTESIAN_POINT('',(-0.003,0.06,0.058));
#842=CARTESIAN_POINT('',(-0.003,0.058,0.058));
#843=CARTESIAN_POINT('',(-0.003,0.06,-6.93889390390723E-18));
#844=CARTESIAN_POINT('',(-0.003,0.06,-0.058));
#845=CARTESIAN_POINT('',(-0.003,0.06,-0.058));
#846=CARTESIAN_POINT('',(-0.003,0.06,-6.93889390390723E-18));
#847=CARTESIAN_POINT('',(-0.003,0.058,-0.058));
#848=CARTESIAN_POINT('',(-0.003,0.058,-0.06));
#849=CARTESIAN_POINT('',(-0.003,0.058,-0.06));
#850=CARTESIAN_POINT('',(-0.003,0.058,-0.058));
#851=CARTESIAN_POINT('',(-0.003,2.08166817117217E-17,-0.06));
#852=CARTESIAN_POINT('',(-0.003,-0.058,-0.06));
#853=CARTESIAN_POINT('',(-0.003,-0.058,-0.06));
#854=CARTESIAN_POINT('',(-0.003,2.08166817117217E-17,-0.06));
#855=CARTESIAN_POINT('',(-0.003,-0.058,-0.058));
#856=CARTESIAN_POINT('',(-0.003,-0.058,-0.058));
#857=CARTESIAN_POINT('',(-0.003,0.,0.));
#858=MECHANICAL_DESIGN_GEOMETRIC_PRESENTATION_REPRESENTATION('',(#519),
#859);
#859=(
GEOMETRIC_REPRESENTATION_CONTEXT(3)
GLOBAL_UNCERTAINTY_ASSIGNED_CONTEXT((#860))
GLOBAL_UNIT_ASSIGNED_CONTEXT((#863,#862,#861))
REPRESENTATION_CONTEXT('Part 1','TOP_LEVEL_ASSEMBLY_PART')
);
#860=UNCERTAINTY_MEASURE_WITH_UNIT(LENGTH_MEASURE(1.E-8),#863,
'DISTANCE_ACCURACY_VALUE','Maximum Tolerance applied to model');
#861=(
NAMED_UNIT(*)
SI_UNIT($,.STERADIAN.)
SOLID_ANGLE_UNIT()
);
#862=(
NAMED_UNIT(*)
PLANE_ANGLE_UNIT()
SI_UNIT($,.RADIAN.)
);
#863=(
LENGTH_UNIT()
NAMED_UNIT(*)
SI_UNIT($,.METRE.)
);
#864=PRODUCT_DEFINITION_SHAPE('','',#865);
#865=PRODUCT_DEFINITION('','',#867,#866);
#866=PRODUCT_DEFINITION_CONTEXT('',#873,'design');
#867=PRODUCT_DEFINITION_FORMATION_WITH_SPECIFIED_SOURCE('','',#869,
 .NOT_KNOWN.);
#868=PRODUCT_RELATED_PRODUCT_CATEGORY('','',(#869));
#869=PRODUCT('Part 1','Part 1','Part 1',(#871));
#870=PRODUCT_CATEGORY('','');
#871=PRODUCT_CONTEXT('',#873,'mechanical');
#872=APPLICATION_PROTOCOL_DEFINITION('international standard',
'ap242_managed_model_based_3d_engineering',2020,#873);
#873=APPLICATION_CONTEXT('managed model based 3d engineering');
ENDSEC;
END-ISO-10303-21;
